{
.appVersion = "3243";
.formatVersion = 3;
axes = (
{
name = Weight;
tag = wght;
}
);
classes = (
{
automatic = 1;
code = "A Aacute Acircumflex Adieresis Agrave Aring Atilde AE B C Ccedilla D E Eacute Ecircumflex Edieresis Egrave F G H I Iacute Icircumflex Idieresis Igrave J K L M N Ntilde O Oacute Ocircumflex Odieresis Ograve Otilde OE P Q R S Scaron T U Uacute Ucircumflex Udieresis Ugrave V W X Y Yacute Ydieresis Z Zcaron A.alt C.alt I.alt J.alt K.alt M.alt N.alt O.alt Q.alt R.alt S.alt V.alt W.alt X.alt Y.alt Z.alt A.alt2 V.alt2 W.alt2 A.alt3 V.alt3 W.alt3 W.alt4";
name = Uppercase;
}
);
customParameters = (
{
name = fsType;
value = (
);
},
{
name = "Write lastChange";
value = 0;
},
{
name = "Use Line Breaks";
value = 1;
},
{
name = "Use Typo Metrics";
value = 1;
}
);
date = "2011-05-25 19:46:57 +0000";
familyName = Orbitron;
featurePrefixes = (
{
automatic = 1;
code = "languagesystem DFLT dflt;
languagesystem latn dflt;
";
name = Languagesystems;
}
);
features = (
{
code = "feature smcp;
feature salt;
feature ss01;
feature ss02;
feature ss03;
";
tag = aalt;
},
{
code = "sub a by a.sc;
sub b by b.sc;
sub c by c.sc;
sub d by d.sc;
sub e by e.sc;
sub f by f.sc;
sub g by g.sc;
sub h by h.sc;
sub i by i.sc;
sub j by j.sc;
sub k by k.sc;
sub l by l.sc;
sub m by m.sc;
sub n by n.sc;
sub o by o.sc;
sub p by p.sc;
sub q by q.sc;
sub r by r.sc;
sub s by s.sc;
sub t by t.sc;
sub u by u.sc;
sub v by v.sc;
sub w by w.sc;
sub x by x.sc;
sub y by y.sc;
sub z by z.sc;
";
tag = smcp;
},
{
code = "script latn;
sub question by question.alt;
sub C by C.alt;
sub I by I.alt;
sub J by J.alt;
sub K by K.alt;
sub M by M.alt;
sub N by N.alt;
sub O by O.alt;
sub Q by Q.alt;
sub R by R.alt;
sub S by S.alt;
sub V by V.alt3;
sub W by W.alt4;
sub X by X.alt;
sub Y by Y.alt;
sub Z by Z.alt;
sub a by a.alt;
sub k by k.alt;
sub v by v.alt;
sub w by w.alt;
sub x by x.alt;
sub z by z.alt;
";
tag = salt;
},
{
code = "script latn;
sub A by A.alt;
sub V by V.alt;
sub W by W.alt;
";
tag = ss01;
},
{

glyphs = (
{
color = 4;
glyphname = A;
layers = (
{
anchors = (
{
name = bottom;
pos = (418,0);
},
{
name = ogonek;
pos = (740,0);
},
{
name = top;
pos = (418,720);
}
);
layerId = "17A5F7C0-AED1-4270-89BA-BFDC1003B8A5";
shapes = (
{
closed = 1;
nodes = (
(58,0,l),
(139,0,l),
(139,263,l),
(697,263,l),
(697,0,l),
(778,0,l),
(778,600,ls),
(778,666.667,o),
(724.667,720,o),
(658,720,cs),
(178,720,ls),
(111.333,720,o),
(58,666.667,o),
(58,600,cs),
(58,0,l)
);
},
{
closed = 1;
nodes = (
(139,344,l),
(139,600,ls),
(139,620.896,o),
(157.104,639,o),
(178,639,cs),
(658,639,ls),
(678.896,639,o),
(697,621.333,o),
(697,600,cs),
(697,344,l),
(139,344,l)
);
}
);
width = 836;
},
{
anchors = (
{
name = bottom;
pos = (418,0);
},
{
name = ogonek;
pos = (700,0);
},
{
name = top;
pos = (418,720);
}
);
layerId = "D465923C-ABAE-4975-85A4-08C1BC9DA335";
shapes = (
{
closed = 1;
nodes = (
(58,0,l),
(213,0,l),
(213,232,l),
(621,232,l),
(621,0,l),
(778,0,l),
(778,572,ls),
(778,653.333,o),
(710.333,720,o),
(629,720,cs),
(206,720,ls),
(124.667,720,o),
(58,653.333,o),
(58,572,cs),
(58,0,l)
);
},
{
closed = 1;
nodes = (
(213,388,l),
(213,564,ls),
(213,564,o),
(213,564,o),
(213,564,cs),
(621,564,ls),
(621,564,o),
(621,564,o),
(621,564,cs),
(621,388,l),
(213,388,l)
);
}
);
width = 836;
}
);
unicode = 65;
},
{
color = 4;
glyphname = AE;
layers = (
{
layerId = "17A5F7C0-AED1-4270-89BA-BFDC1003B8A5";
shapes = (
{
closed = 1;
nodes = (
(135,0,l),
(135,263,l),
(693,263,l),
(693,0,l),
(1350,0,l),
(1350,81,l),
(774,81,l),
(774,319,l),
(1237,319,l),
(1237,401,l),
(774,401,l),
(774,639,l),
(1350,639,l),
(1350,720,l),
(174,720,ls),
(107.333,720,o),
(54,666.667,o),
(54,600,cs),
(54,0,l),
(54,0,l)
);
},
{
closed = 1;
nodes = (
(135,600,ls),
(135,621.333,o),
(152.667,639,o),
(174,639,cs),
(654,639,ls),
(675.333,639,o),
(693,621.333,o),
(693,600,cs),
(693,344,l),
(135,344,l),
(135,344,l)
);
}
);
width = 1375;
},
{
layerId = "D465923C-ABAE-4975-85A4-08C1BC9DA335";
shapes = (
{
closed = 1;
nodes = (
(211,0,l),
(211,232,l),
(619,232,l),
(619,0,l),
(1283,0,l),
(1283,156,l),
(774,156,l),
(774,282,l),
(1183,282,l),
(1183,438,l),
(774,438,l),
(774,564,l),
(1283,564,l),
(1283,720,l),
(202,720,ls),
(122,720,o),
(54,653.333,o),
(54,572,cs),
(54,0,l),
(54,0,l)
);
},
{
closed = 1;
nodes = (
(211,564,ls),
(211,564,o),
(211,564,o),
(211,564,cs),
(619,564,ls),
(619,564,o),
(619,564,o),
(619,564,cs),
(619,388,l),
(211,388,l),
(211,388,l)
);
}
);
width = 1375;
}
);
unicode = 198;
},
{
color = 4;
glyphname = B;
layers = (
{
layerId = "17A5F7C0-AED1-4270-89BA-BFDC1003B8A5";
shapes = (
{
closed = 1;
nodes = (
(59,0,l),
(659,0,ls),
(725.667,0,o),
(779,53.333,o),
(779,120,cs),
(779,288,ls),
(779,321.831,o),
(764.333,350,o),
(735,394,c),
(742.96,409.92,o),
(748,428.095,o),
(748,447,cs),
(748,600,ls),
(748,666.667,o),
(694.667,720,o),
(628,720,cs),
(59,720,l),
(59,0,l)
);
},
{
closed = 1;
nodes = (
(158.104,81,o),
(140,99.104,o),
(140,120,cs),
(140,288,ls),
(140,308.896,o),
(158.104,327,o),
(179,327,cs),
(659,327,ls),
(679.896,327,o),
(698,308.896,o),
(698,288,cs),
(698,120,ls),
(698,99.104,o),
(679.896,81,o),
(659,81,cs),
(179,81,l)
);
},
{
closed = 1;
nodes = (
(158.104,408,o),
(140,426.104,o),
(140,447,cs),
(140,600,ls),
(140,620.896,o),
(158.104,639,o),
(179,639,cs),
(628,639,ls),
(648.896,639,o),
(666,620.896,o),
(666,600,cs),
(666,447,ls),
(666,426.104,o),
(648.896,408,o),
(628,408,cs),
(179,408,l)
);
}
);
width = 832;
},
{
layerId = "D465923C-ABAE-4975-85A4-08C1BC9DA335";
shapes = (
{
closed = 1;
nodes = (
(59,0,l),
(630,0,ls),
(711.333,0,o),
(779,66.667,o),
(779,148,cs),
(779,297,ls),
(779,330.333,o),
(764,365.667,o),
(744,391,c),
(749.333,404.333,o),
(751,419.667,o),
(751,437,cs),
(751,572,ls),
(751,653.333,o),
(683,720,o),
(603,720,cs),
(59,720,l),
(59,0,l)
);
},
{
closed = 1;
nodes = (
(214,156,o),
(214,156,o),
(214,156,cs),
(214,288,ls),
(214,288,o),
(214,288,o),
(214,288,cs),
(622,288,ls),
(622,288,o),
(622,288,o),
(622,288,cs),
(622,156,ls),
(622,156,o),
(622,156,o),
(622,156,cs),
(214,156,l)
);
},
{
closed = 1;
nodes = (
(214,444,o),
(214,444,o),
(214,444,cs),
(214,564,ls),
(214,564,o),
(214,564,o),
(214,564,cs),
(594,564,ls),
(594,564,o),
(594,564,o),
(594,564,cs),
(594,444,ls),
(594,444,o),
(594,444,o),
(594,444,cs),
(214,444,l)
);
}
);
width = 832;
}
);
unicode = 66;
},
{
color = 4;
glyphname = C;
layers = (
{
anchors = (
{
name = bottom;
pos = (441,0);
},
{
name = top;
pos = (441,720);
}
);
layerId = "17A5F7C0-AED1-4270-89BA-BFDC1003B8A5";
shapes = (
{
closed = 1;
nodes = (
(774,0,l),
(774,81,l),
(176,81,ls),
(155.104,81,o),
(137,99.104,o),
(137,120,cs),
(137,600,ls),
(137,620.896,o),
(155.104,639,o),
(176,639,cs),
(774,639,l),
(774,720,l),
(176,720,ls),
(109.333,720,o),
(56,666.667,o),
(56,600,cs),
(56,120,ls),
(56,53.333,o),
(109.333,0,o),
(176,0,c)
);
}
);
width = 822;
},
{
anchors = (
{
name = bottom;
pos = (441,0);
},
{
name = top;
pos = (441,720);
}
);
layerId = "D465923C-ABAE-4975-85A4-08C1BC9DA335";
shapes = (
{
closed = 1;
nodes = (
(774,0,l),
(774,156,l),
(244,156,ls),
(222,156,o),
(211,167,o),
(211,189,cs),
(211,531,ls),
(211,553,o),
(222,564,o),
(244,564,cs),
(774,564,l),
(774,720,l),
(204,720,ls),
(122.408,720,o),
(56,653.592,o),
(56,572,cs),
(56,148,ls),
(56,66.408,o),
(122.408,0,o),
(204,0,c)
);
}
);
width = 822;
}
);
unicode = 67;
},
{
color = 4;
glyphname = D;
layers = (
{
layerId = "17A5F7C0-AED1-4270-89BA-BFDC1003B8A5";
shapes = (
{
closed = 1;
nodes = (
(658,0,ls),
(724.667,0,o),
(778,53.333,o),
(778,120,cs),
(778,600,ls),
(778,666.667,o),
(724.667,720,o),
(658,720,cs),
(58,720,l),
(58,0,l)
);
},
{
closed = 1;
nodes = (
(157.104,81,o),
(139,99.104,o),
(139,120,cs),
(139,600,ls),
(139,620.896,o),
(157.104,639,o),
(178,639,cs),
(658,639,ls),
(678.896,639,o),
(697,620.896,o),
(697,600,cs),
(697,120,ls),
(697,99.104,o),
(678.896,81,o),
(658,81,cs),
(178,81,l)
);
}
);
width = 834;
},
{
layerId = "D465923C-ABAE-4975-85A4-08C1BC9DA335";
shapes = (
{
closed = 1;
nodes = (
(629,0,ls),
(710.333,0,o),
(778,66.667,o),
(778,148,cs),
(778,572,ls),
(778,653.333,o),
(710.333,720,o),
(629,720,cs),
(58,720,l),
(58,0,l)
);
},
{
closed = 1;
nodes = (
(212,156,o),
(212,156,o),
(212,156,cs),
(212,564,l),
(212,564,o),
(212,564,o),
(212,564,cs),
(621,564,l),
(621,564,o),
(621,564,o),
(621,564,cs),
(621,156,l),
(621,156,o),
(621,156,o),
(621,156,cs),
(212,156,l)
);
}
);
width = 834;
}
);
unicode = 68;
},
{
color = 4;
glyphname = E;
layers = (
{
anchors = (
{
name = bottom;
pos = (400,0);
},
{
name = ogonek;
pos = (647,0);
},
{
name = top;
pos = (398,720);
}
);
layerId = "17A5F7C0-AED1-4270-89BA-BFDC1003B8A5";
shapes = (
{
closed = 1;
nodes = (
(715,0,l),
(715,81,l),
(139,81,l),
(139,319,l),
(602,319,l),
(602,401,l),
(139,401,l),
(139,639,l),
(715,639,l),
(715,720,l),
(58,720,l),
(58,0,l)
);
}
);
width = 766;
},
{
anchors = (
{
name = bottom;
pos = (398,0);
},
{
name = ogonek;
pos = (655,0);
},
{
name = top;
pos = (398,720);
}
);
layerId = "D465923C-ABAE-4975-85A4-08C1BC9DA335";
shapes = (
{
closed = 1;
nodes = (
(723,0,l),
(723,156,l),
(215,156,l),
(215,282,l),
(624,282,l),
(624,438,l),
(215,438,l),
(215,564,l),
(723,564,l),
(723,720,l),
(58,720,l),
(58,0,l)
);
}
);
width = 766;
}
);
unicode = 69;
},
{
color = 4;
glyphname = F;
layers = (
{
layerId = "17A5F7C0-AED1-4270-89BA-BFDC1003B8A5";
shapes = (
{
closed = 1;
nodes = (
(139,0,l),
(139,319,l),
(602,319,l),
(602,401,l),
(139,401,l),
(139,639,l),
(715,639,l),
(715,720,l),
(58,720,l),
(58,0,l)
);
}
);
width = 723;
},
{
layerId = "D465923C-ABAE-4975-85A4-08C1BC9DA335";
shapes = (
{
closed = 1;
nodes = (
(215,0,l),
(215,282,l),
(624,282,l),
(624,438,l),
(215,438,l),
(215,564,l),
(723,564,l),
(723,720,l),
(58,720,l),
(58,0,l)
);
}
);
width = 723;
}
);
unicode = 70;
},
{
color = 4;
glyphname = G;
layers = (
{
layerId = "17A5F7C0-AED1-4270-89BA-BFDC1003B8A5";
shapes = (
{
closed = 1;
nodes = (
(656,0,ls),
(722.667,0,o),
(776,53.333,o),
(776,120,cs),
(776,380,l),
(517,380,l),
(517,298,l),
(695,298,l),
(695,120,ls),
(695,99.104,o),
(676.896,81,o),
(656,81,cs),
(176,81,ls),
(155.104,81,o),
(137,99.104,o),
(137,120,cs),
(137,600,ls),
(137,620.896,o),
(155.104,639,o),
(176,639,cs),
(656,639,ls),
(676.896,639,o),
(695,620.896,o),
(695,600,cs),
(695,571,l),
(776,571,l),
(776,600,ls),
(776,666.667,o),
(722.667,720,o),
(656,720,cs),
(176,720,ls),
(109.333,720,o),
(56,666.667,o),
(56,600,cs),
(56,120,ls),
(56,53.333,o),
(109.333,0,o),
(176,0,c)
);
}
);
width = 830;
},
{
layerId = "D465923C-ABAE-4975-85A4-08C1BC9DA335";
shapes = (
{
closed = 1;
nodes = (
(627,0,ls),
(708.592,0,o),
(776,66.408,o),
(776,148,cs),
(776,420,l),
(463,420,l),
(463,264,l),
(619,264,l),
(619,156,ls),
(619,156,o),
(619,156,o),
(619,156,cs),
(211,156,ls),
(211,156,o),
(211,156,o),
(211,156,cs),
(211,564,ls),
(211,564,o),
(211,564,o),
(211,564,cs),
(619,564,ls),
(619,564,o),
(619,564,o),
(619,564,cs),
(619,504,l),
(776,504,l),
(776,572,ls),
(776,653.592,o),
(708.592,720,o),
(627,720,cs),
(204,720,ls),
(122.408,720,o),
(56,653.592,o),
(56,572,cs),
(56,148,ls),
(56,66.408,o),
(122.408,0,o),
(204,0,c)
);
}
);
width = 830;
}
);
unicode = 71;
},
{
color = 4;
glyphname = H;
layers = (
{
layerId = "17A5F7C0-AED1-4270-89BA-BFDC1003B8A5";
shapes = (
{
closed = 1;
nodes = (
(138,0,l),
(138,319,l),
(713,319,l),
(713,0,l),
(795,0,l),
(795,720,l),
(713,720,l),
(713,401,l),
(138,401,l),
(138,720,l),
(57,720,l),
(57,0,l)
);
}
);
width = 851;
},
{
layerId = "D465923C-ABAE-4975-85A4-08C1BC9DA335";
shapes = (
{
closed = 1;
nodes = (
(212,0,l),
(212,282,l),
(637,282,l),
(637,0,l),
(792,0,l),
(792,720,l),
(637,720,l),
(637,438,l),
(212,438,l),
(212,720,l),
(57,720,l),
(57,0,l)
);
}
);
width = 851;
}
);
unicode = 72;
},
{
color = 4;
glyphname = I;
layers = (
{
anchors = (
{
name = bottom;
pos = (106,0);
},
{
name = ogonek;
pos = (134,0);
},
{
name = top;
pos = (109,720);
}
);
layerId = "17A5F7C0-AED1-4270-89BA-BFDC1003B8A5";
shapes = (
{
closed = 1;
nodes = (
(148,0,l),
(148,720,l),
(66,720,l),
(66,0,l)
);
}
);
width = 214;
},
{
anchors = (
{
name = bottom;
pos = (109,0);
},
{
name = ogonek;
pos = (165,0);
},
{
name = top;
pos = (109,720);
}
);
layerId = "D465923C-ABAE-4975-85A4-08C1BC9DA335";
shapes = (
{
closed = 1;
nodes = (
(184,0,l),
(184,720,l),
(31,720,l),
(31,0,l)
);
}
);
width = 214;
}
);
unicode = 73;
},
{
color = 4;
glyphname = J;
layers = (
{
layerId = "17A5F7C0-AED1-4270-89BA-BFDC1003B8A5";
shapes = (
{
closed = 1;
nodes = (
(604,0,ls),
(670.667,0,o),
(724,53.333,o),
(724,120,cs),
(724,720,l),
(643,720,l),
(643,120,ls),
(643,99.104,o),
(624.896,81,o),
(604,81,cs),
(124,81,ls),
(103.104,81,o),
(85,99.104,o),
(85,120,cs),
(85,177,l),
(4,177,l),
(4,120,ls),
(4,53.333,o),
(57.333,0,o),
(124,0,c)
);
}
);
width = 780;
},
{
layerId = "D465923C-ABAE-4975-85A4-08C1BC9DA335";
shapes = (
{
closed = 1;
nodes = (
(576,0,ls),
(656,0,o),
(724,66.667,o),
(724,148,cs),
(724,720,l),
(567,720,l),
(567,156,ls),
(567,156,o),
(567,156,o),
(567,156,cs),
(159,156,ls),
(159,156,o),
(159,156,o),
(159,156,cs),
(159,241,l),
(4,241,l),
(4,148,ls),
(4,66.667,o),
(70.667,0,o),
(152,0,c)
);
}
);
width = 780;
}
);
unicode = 74;
},
{
color = 4;
glyphname = K;
layers = (
{
layerId = "17A5F7C0-AED1-4270-89BA-BFDC1003B8A5";
shapes = (
{
closed = 1;
nodes = (
(139,0,l),
(139,319,l),
(371,319,l),
(639,0,l),
(744,0,l),
(744,1,l),
(442,360,l),
(743,719,l),
(743,720,l),
(639,720,l),
(371,401,l),
(139,401,l),
(139,720,l),
(57,720,l),
(57,0,l)
);
}
);
width = 797;
},
{
layerId = "D465923C-ABAE-4975-85A4-08C1BC9DA335";
shapes = (
{
closed = 1;
nodes = (
(213,0,l),
(213,282,l),
(354,282,l),
(590,0,l),
(752,0,l),
(752,54,l),
(495,360,l),
(752,666,l),
(752,720,l),
(590,720,l),
(354,438,l),
(213,438,l),
(213,720,l),
(57,720,l),
(57,0,l)
);
}
);
width = 797;
}
);
unicode = 75;
},
{
color = 4;
glyphname = L;
layers = (
{
layerId = "17A5F7C0-AED1-4270-89BA-BFDC1003B8A5";
shapes = (
{
closed = 1;
nodes = (
(777,0,l),
(777,81,l),
(138,81,l),
(138,721,l),
(57,721,l),
(57,0,l)
);
}
);
width = 779;
},
{
layerId = "D465923C-ABAE-4975-85A4-08C1BC9DA335";
shapes = (
{
closed = 1;
nodes = (
(777,0,l),
(777,156,l),
(212,156,l),
(212,721,l),
(57,721,l),
(57,0,l)
);
}
);
width = 779;
}
);
unicode = 76;
},
{
color = 4;
glyphname = M;
layers = (
{
layerId = "17A5F7C0-AED1-4270-89BA-BFDC1003B8A5";
shapes = (
{
closed = 1;
nodes = (
(137,0,l),
(137,628,l),
(466,237,l),
(795,628,l),
(795,0,l),
(876,0,l),
(876,720,l),
(765,720,l),
(466,364,l),
(167,720,l),
(56,720,l),
(56,0,l)
);
}
);
width = 928;
},
{
layerId = "D465923C-ABAE-4975-85A4-08C1BC9DA335";
shapes = (
{
closed = 1;
nodes = (
(211,0,l),
(211,482,l),
(460,187,l),
(708,483,l),
(708,0,l),
(864,0,l),
(864,720,l),
(703,720,l),
(460,429,l),
(216,720,l),
(56,720,l),
(56,0,l)
);
}
);
width = 928;
}
);
unicode = 77;
},
{
color = 4;
glyphname = N;
layers = (
{
anchors = (
{
name = bottom;
pos = (403,0);
},
{
name = top;
pos = (403,720);
}
);
layerId = "17A5F7C0-AED1-4270-89BA-BFDC1003B8A5";
shapes = (
{
closed = 1;
nodes = (
(137,0,l),
(137,628,l),
(665,0,l),
(776,0,l),
(776,720,l),
(695,720,l),
(695,92,l),
(167,720,l),
(56,720,l),
(56,0,l)
);
}
);
width = 832;
},
{
anchors = (
{
name = bottom;
pos = (403,0);
},
{
name = top;
pos = (403,720);
}
);
layerId = "D465923C-ABAE-4975-85A4-08C1BC9DA335";
shapes = (
{
closed = 1;
nodes = (
(211,0,l),
(211,482,l),
(616,0,l),
(776,0,l),
(776,720,l),
(619,720,l),
(619,240,l),
(216,720,l),
(56,720,l),
(56,0,l)
);
}
);
width = 832;
}
);
unicode = 78;
},
{
color = 4;
glyphname = O;
layers = (
{
anchors = (
{
name = bottom;
pos = (414,0);
},
{
name = top;
pos = (414,720);
}
);
layerId = "17A5F7C0-AED1-4270-89BA-BFDC1003B8A5";
shapes = (
{
closed = 1;
nodes = (
(654,0,ls),
(720.667,0,o),
(774,53.333,o),
(774,120,cs),
(774,600,ls),
(774,666.667,o),
(720.667,720,o),
(654,720,cs),
(174,720,ls),
(107.333,720,o),
(54,666.667,o),
(54,600,cs),
(54,120,ls),
(54,53.333,o),
(107.333,0,o),
(174,0,c)
);
},
{
closed = 1;
nodes = (
(153.104,81,o),
(135,99.104,o),
(135,120,cs),
(135,600,ls),
(135,620.896,o),
(153.104,639,o),
(174,639,cs),
(654,639,ls),
(674.896,639,o),
(693,620.896,o),
(693,600,cs),
(693,120,ls),
(693,99.104,o),
(674.896,81,o),
(654,81,cs),
(174,81,l)
);
}
);
width = 828;
},
{
anchors = (
{
name = bottom;
pos = (414,0);
},
{
name = top;
pos = (414,720);
}
);
layerId = "D465923C-ABAE-4975-85A4-08C1BC9DA335";
shapes = (
{
closed = 1;
nodes = (
(626,0,ls),
(706,0,o),
(774,66.667,o),
(774,148,cs),
(774,572,ls),
(774,653.333,o),
(706,720,o),
(626,720,cs),
(202,720,ls),
(120.667,720,o),
(54,653.333,o),
(54,572,cs),
(54,148,ls),
(54,66.667,o),
(120.667,0,o),
(202,0,c)
);
},
{
closed = 1;
nodes = (
(209,156,o),
(209,156,o),
(209,156,cs),
(209,564,ls),
(209,564,o),
(209,564,o),
(209,564,cs),
(617,564,ls),
(617,564,o),
(617,564,o),
(617,564,cs),
(617,156,ls),
(617,156,o),
(617,156,o),
(617,156,cs),
(209,156,ls)
);
}
);
width = 828;
}
);
unicode = 79;
},
{
color = 4;
glyphname = OE;
layers = (
{
layerId = "17A5F7C0-AED1-4270-89BA-BFDC1003B8A5";
shapes = (
{
closed = 1;
nodes = (
(1349,0,l),
(1349,81,l),
(773,81,l),
(773,319,l),
(1236,319,l),
(1236,401,l),
(773,401,l),
(773,639,l),
(1349,639,l),
(1349,720,l),
(173,720,ls),
(106.333,720,o),
(53,666.667,o),
(53,600,cs),
(53,120,ls),
(53,53.333,o),
(106.333,0,o),
(173,0,c)
);
},
{
closed = 1;
nodes = (
(152.104,81,o),
(134,99.104,o),
(134,120,cs),
(134,600,ls),
(134,620.896,o),
(152.104,639,o),
(173,639,cs),
(653,639,ls),
(673.896,639,o),
(692,620.896,o),
(692,600,cs),
(692,120,ls),
(692,99.104,o),
(673.896,81,o),
(653,81,cs),
(173,81,l)
);
}
);
width = 1374;
},
{
layerId = "D465923C-ABAE-4975-85A4-08C1BC9DA335";
shapes = (
{
closed = 1;
nodes = (
(1282,0,l),
(1282,156,l),
(773,156,l),
(773,282,l),
(1182,282,l),
(1182,438,l),
(773,438,l),
(773,564,l),
(1282,564,l),
(1282,720,l),
(201,720,ls),
(120.403,720,o),
(53,653.592,o),
(53,572,cs),
(53,148,ls),
(53,66.408,o),
(120.403,0,o),
(201,0,c)
);
},
{
closed = 1;
nodes = (
(210,156,o),
(210,156,o),
(210,156,cs),
(210,564,ls),
(210,564,o),
(210,564,o),
(210,564,cs),
(618,564,ls),
(618,564,o),
(618,564,o),
(618,564,cs),
(618,156,ls),
(618,156,o),
(618,156,o),
(618,156,cs),
(210,156,ls)
);
}
);
width = 1374;
}
);
unicode = 338;
},
{
color = 4;
glyphname = P;
layers = (
{
layerId = "17A5F7C0-AED1-4270-89BA-BFDC1003B8A5";
shapes = (
{
closed = 1;
nodes = (
(137,0,l),
(137,268,l),
(656,268,ls),
(722.667,268,o),
(776,322.328,o),
(776,388,cs),
(776,599,ls),
(776,664.672,o),
(722.667,719,o),
(656,719,cs),
(56,719,l),
(56,0,l)
);
},
{
closed = 1;
nodes = (
(155.104,350,o),
(137,367.104,o),
(137,388,cs),
(137,599,ls),
(137,619.896,o),
(155.104,638,o),
(176,638,cs),
(656,638,ls),
(676.896,638,o),
(695,619.896,o),
(695,599,cs),
(695,388,ls),
(695,367.104,o),
(676.896,350,o),
(656,350,cs),
(176,350,l)
);
}
);
width = 791;
},
{
layerId = "D465923C-ABAE-4975-85A4-08C1BC9DA335";
shapes = (
{
closed = 1;
nodes = (
(211,0,l),
(211,236,l),
(627,237,ls),
(708.592,237,o),
(776,304.403,o),
(776,385,cs),
(776,571,ls),
(776,651.597,o),
(708.592,719,o),
(627,719,cs),
(56,719,l),
(56,0,l)
);
},
{
closed = 1;
nodes = (
(211,393,o),
(211,393,o),
(211,393,cs),
(211,564,ls),
(211,564,o),
(211,564,o),
(211,564,cs),
(619,564,ls),
(619,564,o),
(619,564,o),
(619,564,cs),
(619,393,ls),
(619,393,o),
(619,393,o),
(619,393,cs),
(211,393,ls)
);
}
);
width = 791;
}
);
unicode = 80;
},
{
color = 4;
glyphname = Q;
layers = (
{
layerId = "17A5F7C0-AED1-4270-89BA-BFDC1003B8A5";
shapes = (
{
closed = 1;
nodes = (
(868,0,l),
(868,81,l),
(774,81,l),
(774,123,l),
(646,36,l),
(646,0,l)
);
},
{
ref = O;
}
);
width = 884;
},
{
layerId = "D465923C-ABAE-4975-85A4-08C1BC9DA335";
shapes = (
{
closed = 1;
nodes = (
(856,0,l),
(856,156,l),
(774,156,l),
(774,156,l),
(620,144,l),
(620,0,l)
);
},
{
ref = O;
}
);
width = 884;
}
);
unicode = 81;
},
{
color = 4;
glyphname = R;
layers = (
{
layerId = "17A5F7C0-AED1-4270-89BA-BFDC1003B8A5";
shapes = (
{
closed = 1;
nodes = (
(771,0,l),
(771,1,l),
(535,280,l),
(429,280,l),
(664,0,l)
);
},
{
ref = P;
}
);
width = 825;
},
{
layerId = "D465923C-ABAE-4975-85A4-08C1BC9DA335";
shapes = (
{
closed = 1;
nodes = (
(775,0,l),
(775,53,l),
(609,249,l),
(406,249,l),
(615,0,l)
);
},
{
ref = P;
}
);
width = 825;
}
);
unicode = 82;
},
{
color = 4;
glyphname = S;
layers = (
{
anchors = (
{
name = bottom;
pos = (414,0);
},
{
name = top;
pos = (414,720);
}
);
layerId = "17A5F7C0-AED1-4270-89BA-BFDC1003B8A5";
shapes = (
{
closed = 1;
nodes = (
(651,0,ls),
(717.667,0,o),
(771,53.333,o),
(771,120,cs),
(771,281,ls),
(771,346.333,o),
(717.667,401,o),
(651,401,cs),
(171,401,ls),
(149.667,401,o),
(132,417.667,o),
(132,439,cs),
(132,600,ls),
(132,621.333,o),
(149.667,639,o),
(171,639,cs),
(651,639,ls),
(672.333,639,o),
(690,621.333,o),
(690,600,cs),
(690,572,l),
(771,572,l),
(771,600,ls),
(771,666.667,o),
(717.667,720,o),
(651,720,cs),
(171,720,ls),
(104.333,720,o),
(51,666.667,o),
(51,600,cs),
(51,439,ls),
(51,373.667,o),
(104.333,319,o),
(171,319,cs),
(651,319,ls),
(672.333,319,o),
(690,302.333,o),
(690,281,cs),
(690,120,ls),
(690,98.667,o),
(672.333,81,o),
(651,81,cs),
(171,81,ls),
(149.667,81,o),
(132,98.667,o),
(132,120,cs),
(132,148,l),
(51,148,l),
(51,120,ls),
(51,53.333,o),
(104.333,0,o),
(171,0,c)
);
}
);
width = 822;
},
{
anchors = (
{
name = bottom;
pos = (414,0);
},
{
name = top;
pos = (414,720);
}
);
layerId = "D465923C-ABAE-4975-85A4-08C1BC9DA335";
shapes = (
{
closed = 1;
nodes = (
(626,0,ls),
(706,0,o),
(774,66.667,o),
(774,148,cs),
(774,290,ls),
(774,371.333,o),
(706,438,o),
(626,438,cs),
(209,438,ls),
(209,438,o),
(209,438,o),
(209,438,cs),
(209,564,ls),
(209,564,o),
(209,564,o),
(209,564,cs),
(617,564,ls),
(617,564,o),
(617,564,o),
(617,564,cs),
(617,505,l),
(774,505,l),
(774,572,ls),
(774,653.333,o),
(706,720,o),
(626,720,cs),
(202,720,ls),
(120.667,720,o),
(54,653.333,o),
(54,572,cs),
(54,430,ls),
(54,348.667,o),
(120.667,282,o),
(202,282,cs),
(617,282,ls),
(617,282,o),
(617,282,o),
(617,282,cs),
(617,156,ls),
(617,156,o),
(617,156,o),
(617,156,cs),
(209,156,ls),
(209,156,o),
(209,156,o),
(209,156,cs),
(209,215,l),
(54,215,l),
(54,148,ls),
(54,66.667,o),
(120.667,0,o),
(202,0,c)
);
}
);
width = 828;
}
);
unicode = 83;
},
{
color = 4;
glyphname = T;
layers = (
{
layerId = "17A5F7C0-AED1-4270-89BA-BFDC1003B8A5";
shapes = (
{
closed = 1;
nodes = (
(421,0,l),
(421,639,l),
(740,639,l),
(740,720,l),
(20,720,l),
(20,639,l),
(340,639,l),
(340,0,l),
(340,0,l)
);
}
);
width = 759;
},
{
layerId = "D465923C-ABAE-4975-85A4-08C1BC9DA335";
shapes = (
{
closed = 1;
nodes = (
(458,0,l),
(458,564,l),
(740,564,l),
(740,720,l),
(20,720,l),
(20,564,l),
(302,564,l),
(302,0,l),
(302,0,l)
);
}
);
width = 759;
}
);
unicode = 84;
},
{
color = 4;
glyphname = U;
layers = (
{
anchors = (
{
name = bottom;
pos = (414,0);
},
{
name = top;
pos = (414,720);
}
);
layerId = "17A5F7C0-AED1-4270-89BA-BFDC1003B8A5";
shapes = (
{
closed = 1;
nodes = (
(174,0,l),
(654,0,ls),
(720.667,0,o),
(774,53.333,o),
(774,120,cs),
(774,720,l),
(693,720,l),
(693,120,ls),
(693,98.667,o),
(675.333,81,o),
(654,81,cs),
(174,81,ls),
(152.667,81,o),
(135,98.667,o),
(135,120,cs),
(135,720,l),
(54,720,l),
(54,120,ls),
(54,53.333,o),
(107.333,0,o),
(174,0,c)
);
}
);
width = 828;
},
{
anchors = (
{
name = bottom;
pos = (414,0);
},
{
name = top;
pos = (414,720);
}
);
layerId = "D465923C-ABAE-4975-85A4-08C1BC9DA335";
shapes = (
{
closed = 1;
nodes = (
(202,0,l),
(626,0,ls),
(706,0,o),
(774,66.667,o),
(774,148,cs),
(774,720,l),
(617,720,l),
(617,156,ls),
(617,156,o),
(617,156,o),
(617,156,cs),
(209,156,ls),
(209,156,o),
(209,156,o),
(209,156,cs),
(209,720,l),
(54,720,l),
(54,148,ls),
(54,66.667,o),
(120.667,0,o),
(202,0,c)
);
}
);
width = 828;
}
);
unicode = 85;
},
{
color = 4;
glyphname = V;
layers = (
{
layerId = "17A5F7C0-AED1-4270-89BA-BFDC1003B8A5";
shapes = (
{
closed = 1;
nodes = (
(546,0,l),
(962,720,l),
(867,720,l),
(499,79,l),
(130,720,l),
(35,720,l),
(452,0,l),
(452,0,l)
);
}
);
width = 1003;
},
{
layerId = "D465923C-ABAE-4975-85A4-08C1BC9DA335";
shapes = (
{
closed = 1;
nodes = (
(581,0,l),
(998,720,l),
(819,720,l),
(517,197,l),
(215,720,l),
(35,720,l),
(452,0,l),
(452,0,l)
);
}
);
width = 1003;
}
);
unicode = 86;
},
{
color = 4;
glyphname = W;
layers = (
{
layerId = "17A5F7C0-AED1-4270-89BA-BFDC1003B8A5";
shapes = (
{
closed = 1;
nodes = (
(367,0,l),
(591,615,l),
(815,0,l),
(886,0,l),
(1148,720,l),
(1060,720,l),
(851,142,l),
(640,720,l),
(542,720,l),
(332,142,l),
(121,720,l),
(35,720,l),
(297,0,l),
(297,0,l)
);
}
);
width = 1179;
},
{
layerId = "D465923C-ABAE-4975-85A4-08C1BC9DA335";
shapes = (
{
closed = 1;
nodes = (
(416,0,l),
(585,463,l),
(755,0,l),
(874,0,l),
(1136,720,l),
(972,720,l),
(815,291,l),
(657,720,l),
(514,720,l),
(357,291,l),
(200,720,l),
(35,720,l),
(297,0,l),
(297,0,l)
);
}
);
width = 1179;
}
);
unicode = 87;
},
{
color = 4;
glyphname = X;
layers = (
{
layerId = "17A5F7C0-AED1-4270-89BA-BFDC1003B8A5";
shapes = (
{
closed = 1;
nodes = (
(150,0,l),
(401,297,l),
(651,0,l),
(756,0,l),
(756,1,l),
(453,360,l),
(755,719,l),
(755,720,l),
(651,720,l),
(401,423,l),
(150,720,l),
(46,720,l),
(46,719,l),
(348,360,l),
(46,1,l),
(46,0,l),
(46,0,l)
);
}
);
width = 812;
},
{
layerId = "D465923C-ABAE-4975-85A4-08C1BC9DA335";
shapes = (
{
closed = 1;
nodes = (
(207,0,l),
(405,236,l),
(605,0,l),
(766,0,l),
(766,54,l),
(508,360,l),
(766,667,l),
(766,720,l),
(605,720,l),
(407,483,l),
(207,720,l),
(46,720,l),
(46,667,l),
(303,360,l),
(46,53,l),
(46,0,l),
(46,0,l)
);
}
);
width = 812;
}
);
unicode = 88;
},
{
color = 4;
glyphname = Y;
layers = (
{
anchors = (
{
name = top;
pos = (402,720);
}
);
layerId = "17A5F7C0-AED1-4270-89BA-BFDC1003B8A5";
shapes = (
{
closed = 1;
nodes = (
(444,0,l),
(444,271,l),
(775,720,l),
(680,720,l),
(404,368,l),
(125,720,l),
(32,720,l),
(363,271,l),
(363,0,l),
(363,0,l)
);
}
);
width = 806;
},
{
anchors = (
{
name = top;
pos = (402,720);
}
);
layerId = "D465923C-ABAE-4975-85A4-08C1BC9DA335";
shapes = (
{
closed = 1;
nodes = (
(480,0,l),
(480,268,l),
(814,720,l),
(627,720,l),
(402,436,l),
(176,720,l),
(-9,720,l),
(324,269,l),
(324,0,l),
(324,0,l)
);
}
);
width = 806;
}
);
unicode = 89;
},
{
color = 4;
glyphname = Z;
layers = (
{
anchors = (
{
name = top;
pos = (411,720);
}
);
layerId = "17A5F7C0-AED1-4270-89BA-BFDC1003B8A5";
shapes = (
{
closed = 1;
nodes = (
(771,0,l),
(771,81,l),
(143,81,l),
(771,609,l),
(771,720,l),
(51,720,l),
(51,639,l),
(679,639,l),
(51,111,l),
(51,0,l),
(51,0,l)
);
}
);
width = 821;
},
{
anchors = (
{
name = top;
pos = (411,720);
}
);
layerId = "D465923C-ABAE-4975-85A4-08C1BC9DA335";
shapes = (
{
closed = 1;
nodes = (
(771,0,l),
(771,156,l),
(289,156,l),
(771,561,l),
(771,720,l),
(51,720,l),
(51,564,l),
(533,564,l),
(51,159,l),
(51,0,l),
(51,0,l)
);
}
);
width = 821;
}
);
unicode = 90;
},
{
color = 4;
glyphname = A.alt;
layers = (
{
layerId = "17A5F7C0-AED1-4270-89BA-BFDC1003B8A5";
shapes = (
{
closed = 1;
nodes = (
(111,0,l),
(281,202,l),
(645,202,l),
(645,0,l),
(728,0,l),
(728,721,l),
(616,721,l),
(4,1,l),
(4,0,l),
(4,0,l)
);
},
{
closed = 1;
nodes = (
(645,629,l),
(645,285,l),
(351,285,l),
(351,285,l)
);
}
);
width = 774;
},
{
layerId = "D465923C-ABAE-4975-85A4-08C1BC9DA335";
shapes = (
{
closed = 1;
nodes = (
(156,0,l),
(302,174,l),
(552,174,l),
(552,0,l),
(706,0,l),
(706,720,l),
(549,720,l),
(0,50,l),
(0,0,l),
(0,0,l)
);
},
{
closed = 1;
nodes = (
(552,471,l),
(552,327,l),
(430,327,l),
(430,327,l)
);
}
);
width = 774;
}
);
},
{
color = 4;
glyphname = C.alt;
layers = (
{
layerId = "17A5F7C0-AED1-4270-89BA-BFDC1003B8A5";
shapes = (
{
closed = 1;
nodes = (
(172,0,l),
(652,0,ls),
(705.732,0,o),
(755.075,49.253,o),
(770,100,c),
(770,194,l),
(692,194,l),
(692,81,l),
(172,81,ls),
(151.104,81,o),
(133,98.667,o),
(133,120,cs),
(133,600,ls),
(133,620.896,o),
(151.104,639,o),
(172,639,cs),
(692,639,l),
(692,526,l),
(773,526,l),
(770,620,l),
(755.075,670.747,o),
(705.732,720,o),
(652,720,cs),
(172,720,ls),
(105.333,720,o),
(52,666.667,o),
(52,600,cs),
(52,120,ls),
(52,53.333,o),
(105.333,0,o),
(172,0,c)
);
}
);
width = 822;
},
{
layerId = "D465923C-ABAE-4975-85A4-08C1BC9DA335";
shapes = (
{
closed = 1;
nodes = (
(200,0,l),
(624,0,ls),
(696.637,0,o),
(758.06,53.343,o),
(770,122,c),
(770,255,l),
(616,255,l),
(616,156,l),
(240,156,ls),
(221.333,156,o),
(207,170.333,o),
(207,189,cs),
(207,531,ls),
(207,549.667,o),
(221.333,564,o),
(240,564,cs),
(616,564,l),
(616,465,l),
(773,465,l),
(773,599,l),
(756.084,666.661,o),
(695.641,720,o),
(624,720,cs),
(200,720,ls),
(118.408,720,o),
(52,653.592,o),
(52,572,cs),
(52,148,ls),
(52,66.408,o),
(118.408,0,o),
(200,0,c)
);
}
);
width = 822;
}
);
},
{
color = 4;
glyphname = I.alt;
layers = (
{
layerId = "17A5F7C0-AED1-4270-89BA-BFDC1003B8A5";
shapes = (
{
closed = 1;
nodes = (
(769,0,l),
(769,81,l),
(450,81,l),
(450,639,l),
(769,639,l),
(769,720,l),
(49,720,l),
(49,639,l),
(368,639,l),
(368,81,l),
(49,81,l),
(49,0,l),
(49,0,l)
);
}
);
width = 818;
},
{
layerId = "D465923C-ABAE-4975-85A4-08C1BC9DA335";
shapes = (
{
closed = 1;
nodes = (
(769,0,l),
(769,156,l),
(487,156,l),
(487,564,l),
(769,564,l),
(769,720,l),
(49,720,l),
(49,564,l),
(331,564,l),
(331,156,l),
(49,156,l),
(49,0,l),
(49,0,l)
);
}
);
width = 818;
}
);
},
{
color = 4;
glyphname = J.alt;
layers = (
{
layerId = "17A5F7C0-AED1-4270-89BA-BFDC1003B8A5";
shapes = (
{
closed = 1;
nodes = (
(468,0,ls),
(533.672,0,o),
(588,53.333,o),
(588,120,cs),
(588,720,l),
(506,720,l),
(506,120,ls),
(506,99.104,o),
(488.896,81,o),
(468,81,cs),
(3,81,l),
(3,0,l),
(3,0,l)
);
}
);
width = 645;
},
{
layerId = "D465923C-ABAE-4975-85A4-08C1BC9DA335";
shapes = (
{
closed = 1;
nodes = (
(455,0,ls),
(535.597,0,o),
(604,66.408,o),
(604,148,cs),
(604,720,l),
(447,720,l),
(447,156,ls),
(447,156,o),
(447,156,o),
(447,156,cs),
(3,156,l),
(3,0,l),
(3,0,l)
);
}
);
width = 645;
}
);
},
{
color = 4;
glyphname = K.alt;
layers = (
{
layerId = "17A5F7C0-AED1-4270-89BA-BFDC1003B8A5";
shapes = (
{
closed = 1;
nodes = (
(135,0,l),
(135,278,ls),
(135,298,o),
(152.667,316,o),
(174,316,cs),
(654,316,ls),
(675.333,316,o),
(693,298,o),
(693,278,cs),
(693,0,l),
(774,0,l),
(774,257,ls),
(774,311.667,o),
(745.333,343.667,o),
(676,357,c),
(746.667,370.333,o),
(775,401,o),
(775,457,cs),
(775,720,l),
(694,720,l),
(694,436,ls),
(694,414.667,o),
(676.333,398,o),
(655,398,cs),
(174,398,ls),
(152.667,398,o),
(135,414.667,o),
(135,436,cs),
(135,720,l),
(54,720,l),
(54,0,l),
(54,0,l)
);
}
);
width = 829;
},
{
layerId = "D465923C-ABAE-4975-85A4-08C1BC9DA335";
shapes = (
{
closed = 1;
nodes = (
(209,0,l),
(209,279,ls),
(209,279,o),
(209,279,o),
(209,279,cs),
(618,279,ls),
(618,279,o),
(618,279,o),
(618,279,cs),
(617,0,l),
(774,0,l),
(774,269,ls),
(774,302.333,o),
(753,335.667,o),
(717,357,c),
(753,378.333,o),
(775,413,o),
(775,445,cs),
(775,720,l),
(618,720,l),
(618,435,ls),
(618,435,o),
(618,435,o),
(618,435,cs),
(209,435,ls),
(209,435,o),
(209,435,o),
(209,435,cs),
(209,720,l),
(54,720,l),
(54,0,l),
(54,0,l)
);
}
);
width = 829;
}
);
},
{
color = 4;
glyphname = M.alt;
layers = (
{
layerId = "17A5F7C0-AED1-4270-89BA-BFDC1003B8A5";
shapes = (
{
closed = 1;
nodes = (
(136,0,l),
(136,639,l),
(494,639,ls),
(514.896,639,o),
(532,620.896,o),
(532,600,cs),
(532,0,l),
(614,0,l),
(614,639,l),
(997,639,ls),
(1017.896,639,o),
(1035,620.896,o),
(1035,600,cs),
(1035,0,l),
(1117,0,l),
(1117,600,ls),
(1117,666.667,o),
(1062.672,720,o),
(997,720,cs),
(54,720,l),
(54,0,l),
(54,0,l)
);
}
);
width = 1155;
},
{
layerId = "D465923C-ABAE-4975-85A4-08C1BC9DA335";
shapes = (
{
closed = 1;
nodes = (
(209,0,l),
(209,564,l),
(476,564,ls),
(476,564,o),
(476,564,o),
(476,564,cs),
(476,0,l),
(632,0,l),
(632,564,l),
(920,564,ls),
(920,564,o),
(920,564,o),
(920,564,cs),
(920,0,l),
(1076,0,l),
(1076,572,ls),
(1076,653.592,o),
(1008.601,720,o),
(929,720,cs),
(54,720,l),
(54,0,l),
(54,0,l)
);
}
);
width = 1155;
}
);
},
{
color = 4;
glyphname = N.alt;
layers = (
{
layerId = "17A5F7C0-AED1-4270-89BA-BFDC1003B8A5";
shapes = (
{
closed = 1;
nodes = (
(135,0,l),
(135,639,l),
(654,639,ls),
(674.896,639,o),
(693,621.333,o),
(693,600,cs),
(693,0,l),
(774,0,l),
(774,600,ls),
(774,666.667,o),
(720.667,720,o),
(654,720,cs),
(54,720,l),
(54,0,l),
(54,0,l)
);
}
);
width = 827;
},
{
layerId = "D465923C-ABAE-4975-85A4-08C1BC9DA335";
shapes = (
{
closed = 1;
nodes = (
(209,0,l),
(209,564,l),
(617,564,ls),
(617,564,o),
(617,564,o),
(617,564,cs),
(617,0,l),
(774,0,l),
(774,572,ls),
(774,653.592,o),
(706.597,720,o),
(626,720,cs),
(54,720,l),
(54,0,l),
(54,0,l)
);
}
);
width = 827;
}
);
},
{
color = 4;
glyphname = O.alt;
layers = (
{
layerId = "17A5F7C0-AED1-4270-89BA-BFDC1003B8A5";
shapes = (
{
closed = 1;
nodes = (
(453,319,l),
(453,401,l),
(371,401,l),
(371,319,l),
(371,319,l)
);
},
{
ref = O;
}
);
width = 824;
},
{
layerId = "D465923C-ABAE-4975-85A4-08C1BC9DA335";
shapes = (
{
closed = 1;
nodes = (
(490,282,l),
(490,438,l),
(334,438,l),
(334,282,l),
(334,282,l)
);
},
{
ref = O;
}
);
width = 824;
}
);
},
{
color = 4;
glyphname = Q.alt;
layers = (
{
layerId = "17A5F7C0-AED1-4270-89BA-BFDC1003B8A5";
shapes = (
{
closed = 1;
nodes = (
(455,-113,l),
(455,16,l),
(373,16,l),
(373,-113,l)
);
},
{
ref = O;
}
);
width = 868;
},
{
layerId = "D465923C-ABAE-4975-85A4-08C1BC9DA335";
shapes = (
{
closed = 1;
nodes = (
(492,-120,l),
(492,16,l),
(335,16,l),
(335,-120,l)
);
},
{
ref = O;
}
);
width = 868;
}
);
},
{
color = 4;
glyphname = R.alt;
layers = (
{
layerId = "17A5F7C0-AED1-4270-89BA-BFDC1003B8A5";
shapes = (
{
closed = 1;
nodes = (
(135,0,l),
(135,230,ls),
(135,249.9,o),
(153.104,268,o),
(174,268,cs),
(654,268,ls),
(674.896,268,o),
(693,249.9,o),
(693,230,cs),
(693,0,l),
(774,0,l),
(774,230,ls),
(774,286.716,o),
(695.856,309,o),
(667,309,cs),
(694.861,309,o),
(774,331.284,o),
(774,388,cs),
(774,599,ls),
(774,664.672,o),
(720.667,719,o),
(654,719,cs),
(54,720,l),
(54,0,l)
);
},
{
closed = 1;
nodes = (
(153.104,350,o),
(135,367.104,o),
(135,388,cs),
(135,599,ls),
(135,619.896,o),
(153.104,638,o),
(174,638,cs),
(654,638,ls),
(674.896,638,o),
(693,619.896,o),
(693,599,cs),
(693,388,ls),
(693,367.104,o),
(674.896,350,o),
(654,350,cs),
(174,350,l)
);
}
);
width = 826;
},
{
layerId = "D465923C-ABAE-4975-85A4-08C1BC9DA335";
shapes = (
{
closed = 1;
nodes = (
(209,0,l),
(209,237,ls),
(209,237,o),
(209,237,o),
(209,237,cs),
(617,237,ls),
(617,237,o),
(617,237,o),
(617,237,cs),
(617,0,l),
(774,0,l),
(774,245,ls),
(774,277.836,o),
(760.896,300.075,o),
(740,315,c),
(759.9,329.925,o),
(774,353.159,o),
(774,385,cs),
(774,571,ls),
(774,651.597,o),
(707,720,o),
(626,720,cs),
(54,721,l),
(54,0,l)
);
},
{
closed = 1;
nodes = (
(209,393,o),
(209,393,o),
(209,393,cs),
(209,564,ls),
(209,564,o),
(209,564,o),
(209,564,cs),
(617,564,ls),
(617,564,o),
(617,564,o),
(617,564,cs),
(617,393,ls),
(617,393,o),
(617,393,o),
(617,393,cs),
(209,393,ls)
);
}
);
width = 826;
}
);
},
{
color = 4;
glyphname = S.alt;
layers = (
{
layerId = "17A5F7C0-AED1-4270-89BA-BFDC1003B8A5";
shapes = (
{
closed = 1;
nodes = (
(646,0,ls),
(712.667,0,o),
(766,53.333,o),
(766,120,cs),
(766,281,ls),
(766,346.672,o),
(712.667,401,o),
(646,401,cs),
(166,401,ls),
(145.104,401,o),
(127,418.104,o),
(127,439,cs),
(127,600,ls),
(127,620.896,o),
(145.104,639,o),
(166,639,cs),
(766,639,l),
(766,720,l),
(166,720,ls),
(99.333,720,o),
(46,666.667,o),
(46,600,cs),
(46,439,ls),
(46,373.328,o),
(99.333,319,o),
(166,319,cs),
(646,319,ls),
(666.896,319,o),
(684,301.896,o),
(684,281,cs),
(684,120,ls),
(684,99.104,o),
(666.896,81,o),
(646,81,cs),
(46,81,l),
(46,0,l)
);
}
);
width = 812;
},
{
layerId = "D465923C-ABAE-4975-85A4-08C1BC9DA335";
shapes = (
{
closed = 1;
nodes = (
(618,0,ls),
(698.597,0,o),
(766,66.408,o),
(766,148,cs),
(766,290,ls),
(766,371.592,o),
(698.597,438,o),
(618,438,cs),
(202,438,ls),
(202,438,o),
(202,438,o),
(202,438,cs),
(202,564,ls),
(202,564,o),
(202,564,o),
(202,564,cs),
(766,564,l),
(766,720,l),
(194,720,ls),
(112.408,720,o),
(46,653.592,o),
(46,572,cs),
(46,430,ls),
(46,348.408,o),
(112.408,282,o),
(194,282,cs),
(610,282,ls),
(610,282,o),
(610,282,o),
(610,282,cs),
(610,156,ls),
(610,156,o),
(610,156,o),
(610,156,cs),
(46,156,l),
(46,0,l)
);
}
);
width = 812;
}
);
},
{
color = 4;
glyphname = V.alt;
layers = (
{
layerId = "17A5F7C0-AED1-4270-89BA-BFDC1003B8A5";
shapes = (
{
closed = 1;
nodes = (
(166,0,l),
(777,719,l),
(777,720,l),
(670,720,l),
(137,93,l),
(137,721,l),
(54,721,l),
(54,0,l),
(54,0,l)
);
}
);
width = 774;
},
{
layerId = "D465923C-ABAE-4975-85A4-08C1BC9DA335";
shapes = (
{
closed = 1;
nodes = (
(211,0,l),
(761,656,l),
(761,720,l),
(605,720,l),
(207,234,l),
(207,720,l),
(54,720,l),
(54,0,l),
(54,0,l)
);
}
);
width = 774;
}
);
},
{
color = 4;
glyphname = W.alt;
layers = (
{
layerId = "17A5F7C0-AED1-4270-89BA-BFDC1003B8A5";
shapes = (
{
closed = 1;
nodes = (
(161,0,l),
(449,343,l),
(449,0,l),
(561,0,l),
(1171,719,l),
(1171,720,l),
(1065,720,l),
(531,93,l),
(531,442,l),
(770,719,l),
(770,720,l),
(665,720,l),
(131,93,l),
(131,720,l),
(49,720,l),
(49,0,l),
(49,0,l)
);
}
);
width = 1171;
},
{
layerId = "D465923C-ABAE-4975-85A4-08C1BC9DA335";
shapes = (
{
closed = 1;
nodes = (
(240,0,l),
(429,225,l),
(429,0,l),
(588,0,l),
(1149,668,l),
(1149,720,l),
(988,720,l),
(585,237,l),
(585,413,l),
(800,667,l),
(800,720,l),
(640,720,l),
(236,237,l),
(236,720,l),
(80,720,l),
(80,0,l),
(80,0,l)
);
}
);
width = 1149;
}
);
},
{
color = 4;
glyphname = X.alt;
layers = (
{
layerId = "17A5F7C0-AED1-4270-89BA-BFDC1003B8A5";
shapes = (
{
closed = 1;
nodes = (
(136,0,l),
(136,278,ls),
(136,297.9,o),
(154.104,316,o),
(175,316,cs),
(654,316,ls),
(674.896,316,o),
(693,297.9,o),
(693,278,cs),
(693,0,l),
(774,0,l),
(774,257,ls),
(774,307.747,o),
(707.641,357,o),
(636,357,c),
(707.641,357,o),
(775,406.253,o),
(775,457,cs),
(775,720,l),
(694,720,l),
(694,436,ls),
(694,415.104,o),
(675.896,398,o),
(655,398,cs),
(174,398,ls),
(153.104,398,o),
(135,415.104,o),
(135,436,cs),
(135,720,l),
(54,720,l),
(54,457,ls),
(54,406.253,o),
(120.363,357,o),
(193,357,c),
(120.363,357,o),
(55,307.747,o),
(55,257,cs),
(55,0,l)
);
}
);
width = 829;
},
{
layerId = "D465923C-ABAE-4975-85A4-08C1BC9DA335";
shapes = (
{
closed = 1;
nodes = (
(210,0,l),
(209,279,ls),
(209,279,o),
(209,279,o),
(209,279,cs),
(620,279,ls),
(620,279,o),
(620,279,o),
(620,279,cs),
(620,0,l),
(775,0,l),
(775,269,ls),
(774,306.811,o),
(754.821,337.1,o),
(719,357,c),
(752.831,376.9,o),
(775,408.184,o),
(775,445,cs),
(775,720,l),
(620,720,l),
(620,435,ls),
(620,435,o),
(620,435,o),
(620,435,cs),
(209,435,ls),
(209,435,o),
(209,435,o),
(209,435,cs),
(209,720,l),
(54,720,l),
(54,445,ls),
(54,411.169,o),
(80.144,376.9,o),
(109,357,c),
(77.159,337.1,o),
(55,304.821,o),
(55,269,cs),
(55,0,l)
);
}
);
width = 829;
}
);
},
{
color = 4;
glyphname = Y.alt;
layers = (
{
layerId = "17A5F7C0-AED1-4270-89BA-BFDC1003B8A5";
shapes = (
{
closed = 1;
nodes = (
(651,0,ls),
(717.667,0,o),
(771,53.333,o),
(771,120,cs),
(771,720,l),
(690,720,l),
(690,401,l),
(171,401,ls),
(150.104,401,o),
(132,418.104,o),
(132,439,cs),
(132,720,l),
(51,720,l),
(51,439,ls),
(51,373.328,o),
(104.333,319,o),
(171,319,cs),
(651,319,ls),
(671.896,319,o),
(690,301.896,o),
(690,281,cs),
(690,120,ls),
(690,99.104,o),
(671.896,81,o),
(651,81,cs),
(51,81,l),
(51,0,l),
(51,0,l)
);
}
);
width = 824;
},
{
layerId = "D465923C-ABAE-4975-85A4-08C1BC9DA335";
shapes = (
{
closed = 1;
nodes = (
(623,0,ls),
(703.597,0,o),
(771,66.408,o),
(771,148,cs),
(771,720,l),
(614,720,l),
(614,438,l),
(206,438,ls),
(206,438,o),
(206,438,o),
(206,438,cs),
(206,720,l),
(51,720,l),
(51,430,ls),
(51,348.408,o),
(117.408,282,o),
(199,282,cs),
(614,282,ls),
(614,282,o),
(614,282,o),
(614,282,cs),
(614,156,ls),
(614,156,o),
(614,156,o),
(614,156,cs),
(51,156,l),
(51,0,l),
(51,0,l)
);
}
);
width = 824;
}
);
},
{
color = 4;
glyphname = Z.alt;
layers = (
{
layerId = "17A5F7C0-AED1-4270-89BA-BFDC1003B8A5";
shapes = (
{
closed = 1;
nodes = (
(769,0,l),
(769,81,l),
(169,81,ls),
(148.104,81,o),
(130,99.104,o),
(130,120,cs),
(130,281,ls),
(130,301.896,o),
(148.104,319,o),
(169,319,cs),
(649,319,ls),
(715.667,319,o),
(769,373.328,o),
(769,439,cs),
(769,600,ls),
(769,666.667,o),
(715.667,720,o),
(649,720,cs),
(49,720,l),
(49,639,l),
(649,639,ls),
(669.896,639,o),
(687,620.896,o),
(687,600,cs),
(687,439,ls),
(687,418.104,o),
(669.896,401,o),
(649,401,cs),
(169,401,ls),
(102.333,401,o),
(49,346.672,o),
(49,281,cs),
(49,120,ls),
(49,53.333,o),
(102.333,0,o),
(169,0,c)
);
}
);
width = 818;
},
{
background = {
shapes = (
{
closed = 1;
nodes = (
(769,156,l),
(205,156,ls),
(205,156,o),
(205,156,o),
(205,156,cs),
(205,282,ls),
(205,282,o),
(205,282,o),
(205,282,cs),
(621,282,ls),
(703,282,o),
(769,348,o),
(769,430,cs),
(769,572,ls),
(769,654,o),
(703,720,o),
(621,720,cs),
(49,720,l),
(49,564,l),
(613,564,ls),
(613,564,o),
(613,564,o),
(613,564,cs),
(613,438,ls),
(613,438,o),
(613,438,o),
(613,438,cs),
(197,438,ls),
(116,438,o),
(49,372,o),
(49,290,cs),
(49,148,ls),
(49,66,o),
(116,0,o),
(197,0,cs),
(769,0,l)
);
}
);
};
layerId = "D465923C-ABAE-4975-85A4-08C1BC9DA335";
shapes = (
{
closed = 1;
nodes = (
(769,0,l),
(769,156,l),
(205,156,ls),
(205,156,o),
(205,156,o),
(205,156,cs),
(205,282,ls),
(205,282,o),
(205,282,o),
(205,282,cs),
(621,282,ls),
(703,282,o),
(769,348,o),
(769,430,cs),
(769,572,ls),
(769,654,o),
(703,720,o),
(621,720,cs),
(49,720,l),
(49,564,l),
(613,564,ls),
(613,564,o),
(613,564,o),
(613,564,cs),
(613,438,ls),
(613,438,o),
(613,438,o),
(613,438,cs),
(197,438,ls),
(116,438,o),
(49,372,o),
(49,290,cs),
(49,148,ls),
(49,66,o),
(116,0,o),
(197,0,cs)
);
}
);
width = 818;
}
);
},
{
color = 4;
glyphname = A.alt2;
layers = (
{
layerId = "17A5F7C0-AED1-4270-89BA-BFDC1003B8A5";
shapes = (
{
closed = 1;
nodes = (
(137,0,l),
(137,202,l),
(499,202,l),
(670,0,l),
(778,0,l),
(778,1,l),
(166,721,l),
(54,721,l),
(54,0,l),
(54,0,l)
);
},
{
closed = 1;
nodes = (
(137,629,l),
(432,285,l),
(137,285,l),
(137,285,l)
);
}
);
width = 774;
},
{
layerId = "D465923C-ABAE-4975-85A4-08C1BC9DA335";
shapes = (
{
closed = 1;
nodes = (
(207,0,l),
(207,174,l),
(457,174,l),
(604,0,l),
(761,0,l),
(761,50,l),
(211,720,l),
(54,720,l),
(54,0,l),
(54,0,l)
);
},
{
closed = 1;
nodes = (
(207,471,l),
(329,327,l),
(207,327,l),
(207,327,l)
);
}
);
width = 774;
}
);
},
{
color = 4;
glyphname = V.alt2;
layers = (
{
layerId = "17A5F7C0-AED1-4270-89BA-BFDC1003B8A5";
shapes = (
{
closed = 1;
nodes = (
(716,0,l),
(716,720,l),
(635,720,l),
(635,92,l),
(107,720,l),
(0,720,l),
(0,719,l),
(605,0,l),
(605,0,l)
);
}
);
width = 774;
},
{
layerId = "D465923C-ABAE-4975-85A4-08C1BC9DA335";
shapes = (
{
closed = 1;
nodes = (
(720,0,l),
(720,720,l),
(563,720,l),
(563,240,l),
(160,720,l),
(0,720,l),
(0,668,l),
(561,0,l),
(561,0,l)
);
}
);
width = 774;
}
);
},
{
color = 4;
glyphname = W.alt2;
layers = (
{
layerId = "17A5F7C0-AED1-4270-89BA-BFDC1003B8A5";
shapes = (
{
closed = 1;
nodes = (
(724,0,l),
(724,343,l),
(1012,0,l),
(1123,0,l),
(1123,720,l),
(1041,720,l),
(1041,93,l),
(507,720,l),
(401,720,l),
(401,719,l),
(641,442,l),
(641,93,l),
(108,720,l),
(0,720,l),
(0,719,l),
(612,0,l),
(612,0,l)
);
}
);
width = 1168;
},
{
layerId = "D465923C-ABAE-4975-85A4-08C1BC9DA335";
shapes = (
{
closed = 1;
nodes = (
(719,0,l),
(719,225,l),
(909,0,l),
(1068,0,l),
(1068,720,l),
(912,720,l),
(912,238,l),
(507,720,l),
(348,720,l),
(348,667,l),
(563,413,l),
(563,240,l),
(159,720,l),
(-1,720,l),
(-1,668,l),
(560,0,l),
(560,0,l)
);
}
);
width = 1131;
}
);
},
{
color = 4;
glyphname = A.alt3;
layers = (
{
layerId = "17A5F7C0-AED1-4270-89BA-BFDC1003B8A5";
shapes = (
{
closed = 1;
nodes = (
(67,0,l),
(173,183,l),
(637,183,l),
(742,0,l),
(837,0,l),
(452,720,l),
(358,720,l),
(-28,0,l),
(-28,0,l)
);
},
{
closed = 1;
nodes = (
(405,644,l),
(588,264,l),
(220,264,l),
(220,264,l)
);
}
);
width = 827;
},
{
layerId = "D465923C-ABAE-4975-85A4-08C1BC9DA335";
shapes = (
{
closed = 1;
nodes = (
(150,0,l),
(244,161,l),
(606,161,l),
(698,0,l),
(876,0,l),
(491,720,l),
(358,720,l),
(-28,0,l),
(-28,0,l)
);
},
{
closed = 1;
nodes = (
(424,512,l),
(519,317,l),
(330,317,l),
(330,317,l)
);
}
);
width = 827;
}
);
},
{
color = 4;
glyphname = V.alt3;
layers = (
{
layerId = "17A5F7C0-AED1-4270-89BA-BFDC1003B8A5";
shapes = (
{
closed = 1;
nodes = (
(173,0,l),
(773,0,l),
(773,720,l),
(692,720,l),
(692,81,l),
(173,81,ls),
(152.104,81,o),
(134,99.104,o),
(134,120,cs),
(134,720,l),
(53,720,l),
(53,120,ls),
(53,53.333,o),
(106.333,0,o),
(173,0,c)
);
}
);
width = 827;
},
{
layerId = "D465923C-ABAE-4975-85A4-08C1BC9DA335";
shapes = (
{
closed = 1;
nodes = (
(201,0,l),
(773,0,l),
(773,720,l),
(616,720,l),
(616,156,l),
(208,156,ls),
(208,156,o),
(208,156,o),
(208,156,cs),
(208,720,l),
(53,720,l),
(53,148,ls),
(53,66.408,o),
(119.408,0,o),
(201,0,c)
);
}
);
width = 827;
}
);
},
{
color = 4;
glyphname = W.alt3;
layers = (
{
layerId = "17A5F7C0-AED1-4270-89BA-BFDC1003B8A5";
shapes = (
{
closed = 1;
nodes = (
(164,0,l),
(518,421,l),
(872,0,l),
(983,0,l),
(983,720,l),
(901,720,l),
(901,92,l),
(518,549,l),
(135,92,l),
(135,720,l),
(54,720,l),
(54,0,l),
(54,0,l)
);
}
);
width = 1028;
},
{
layerId = "D465923C-ABAE-4975-85A4-08C1BC9DA335";
shapes = (
{
closed = 1;
nodes = (
(213,0,l),
(506,349,l),
(799,0,l),
(958,0,l),
(958,720,l),
(802,720,l),
(802,240,l),
(507,591,l),
(209,239,l),
(209,720,l),
(54,720,l),
(54,0,l),
(54,0,l)
);
}
);
width = 1028;
}
);
},
{
color = 4;
glyphname = W.alt4;
layers = (
{
layerId = "17A5F7C0-AED1-4270-89BA-BFDC1003B8A5";
shapes = (
{
closed = 1;
nodes = (
(173,0,l),
(1116,0,l),
(1116,720,l),
(1034,720,l),
(1034,81,l),
(676,81,ls),
(655.104,81,o),
(638,99.104,o),
(638,120,cs),
(638,720,l),
(556,720,l),
(556,81,l),
(173,81,ls),
(153.1,81,o),
(135,99.104,o),
(135,120,cs),
(135,720,l),
(53,720,l),
(53,120,ls),
(53,53.333,o),
(107.328,0,o),
(173,0,c)
);
}
);
width = 1155;
},
{
layerId = "D465923C-ABAE-4975-85A4-08C1BC9DA335";
shapes = (
{
closed = 1;
nodes = (
(201,0,l),
(1075,0,l),
(1075,720,l),
(919,720,l),
(919,156,l),
(653,156,ls),
(653,156,o),
(653,156,o),
(653,156,cs),
(653,720,l),
(497,720,l),
(497,156,l),
(208,156,ls),
(208,156,o),
(208,156,o),
(208,156,cs),
(208,720,l),
(53,720,l),
(53,148,ls),
(53,66.408,o),
(119.408,0,o),
(201,0,c)
);
}
);
width = 1155;
}
);
},
{
color = 4;
export = 0;
glyphname = Eth;
layers = (
{
layerId = "17A5F7C0-AED1-4270-89BA-BFDC1003B8A5";
shapes = (
{
closed = 1;
nodes = (
(239,320,l),
(239,400,l),
(0,400,l),
(0,320,l)
);
},
{
ref = D;
}
);
width = 834;
},
{
layerId = "D465923C-ABAE-4975-85A4-08C1BC9DA335";
shapes = (
{
closed = 1;
nodes = (
(320,300,l),
(320,420,l),
(0,420,l),
(0,300,l)
);
},
{
ref = D;
}
);
width = 834;
}
);
unicode = 208;
},
{
color = 4;
export = 0;
glyphname = Oslash;
layers = (
{
layerId = "17A5F7C0-AED1-4270-89BA-BFDC1003B8A5";
shapes = (
{
closed = 1;
nodes = (
(737,629,l),
(689,682,l),
(79,77,l),
(126,24,l)
);
},
{
closed = 1;
nodes = (
(101,0,l),
(193,0,l),
(54,159,l),
(54,54,l),
(0,0,l),
(50,-50,l)
);
},
{
closed = 1;
nodes = (
(774,667,l),
(828,720,l),
(777,770,l),
(727,720,l),
(603,720,l),
(774,554,l)
);
},
{
ref = O;
}
);
width = 828;
},
{
layerId = "D465923C-ABAE-4975-85A4-08C1BC9DA335";
shapes = (
{
closed = 1;
nodes = (
(729,550,l),
(631,654,l),
(118,174,l),
(214,69,l)
);
},
{
closed = 1;
nodes = (
(141,1,l),
(219,1,l),
(54,186,l),
(54,113,l),
(-24,40,l),
(76,-60,l)
);
},
{
closed = 1;
nodes = (
(774,594,l),
(854,670,l),
(753,770,l),
(701,720,l),
(603,720,l),
(774,534,l)
);
},
{
ref = O;
}
);
width = 828;
}
);
unicode = 216;
},
{
color = 4;
export = 0;
glyphname = Thorn;
layers = (
{
layerId = "17A5F7C0-AED1-4270-89BA-BFDC1003B8A5";
shapes = (
{
closed = 1;
nodes = (
(138,0,l),
(139,140,l),
(658,140,ls),
(724.667,140,o),
(778,193.333,o),
(778,260,cs),
(778,460,ls),
(778,526.667,o),
(724.667,580,o),
(658,580,cs),
(139,580,l),
(139,720,l),
(58,720,l),
(58,0,l)
);
},
{
closed = 1;
nodes = (
(156.667,221,o),
(139,238.667,o),
(139,260,cs),
(139,460,ls),
(139,481.333,o),
(156.667,499,o),
(178,499,cs),
(658,499,ls),
(679.333,499,o),
(697,481.333,o),
(697,460,cs),
(697,260,ls),
(697,238.667,o),
(679.333,221,o),
(658,221,cs),
(178,221,l)
);
}
);
width = 834;
},
{
layerId = "D465923C-ABAE-4975-85A4-08C1BC9DA335";
shapes = (
{
closed = 1;
nodes = (
(213,0,l),
(213,130,l),
(629,130,ls),
(710.333,130,o),
(778,196.667,o),
(778,278,cs),
(778,432,ls),
(778,513.333,o),
(710.333,580,o),
(629,580,cs),
(213,580,l),
(213,720,l),
(58,720,l),
(58,0,l)
);
},
{
closed = 1;
nodes = (
(213,286,o),
(213,286,o),
(213,286,cs),
(213,424,ls),
(213,424,o),
(213,424,o),
(213,424,cs),
(621,424,ls),
(621,424,o),
(621,424,o),
(621,424,cs),
(621,286,ls),
(621,286,o),
(621,286,o),
(621,286,cs),
(213,286,ls)
);
}
);
width = 834;
}
);
unicode = 222;
},
{
color = 4;
glyphname = a;
layers = (
{
anchors = (
{
name = bottom;
pos = (364,0);
},
{
name = ogonek;
pos = (619,0);
},
{
name = top;
pos = (367,580);
}
);
layerId = "17A5F7C0-AED1-4270-89BA-BFDC1003B8A5";
shapes = (
{
closed = 1;
nodes = (
(643,0,l),
(643,459,ls),
(643,525.667,o),
(589,580,o),
(521,580,cs),
(52,580,l),
(52,498,l),
(521,498,ls),
(542.333,498,o),
(560,480.333,o),
(560,459,cs),
(560,331,l),
(52,331,l),
(52,121,ls),
(52,54.333,o),
(106.333,0,o),
(173,0,c)
);
},
{
closed = 1;
nodes = (
(151.667,82,o),
(134,99.667,o),
(134,121,cs),
(134,249,l),
(560,249,l),
(560,82,l),
(173,82,l)
);
}
);
width = 694;
},
{
anchors = (
{
name = bottom;
pos = (364,0);
},
{
name = ogonek;
pos = (619,0);
},
{
name = top;
pos = (367,580);
}
);
layerId = "D465923C-ABAE-4975-85A4-08C1BC9DA335";
shapes = (
{
closed = 1;
nodes = (
(640,0,l),
(640,435,ls),
(640,513.667,o),
(575,580,o),
(495,580,cs),
(52,580,l),
(52,427,l),
(487,427,ls),
(487,427,o),
(487,427,o),
(487,427,cs),
(487,367,l),
(52,367,l),
(52,145,ls),
(52,66.333,o),
(117,0,o),
(197,0,c)
);
},
{
closed = 1;
nodes = (
(205,153,o),
(205,153,o),
(205,153,cs),
(205,233,l),
(487,233,l),
(487,153,l),
(205,153,ls)
);
}
);
width = 694;
}
);
unicode = 97;
},
{
color = 4;
glyphname = ae;
layers = (
{
layerId = "17A5F7C0-AED1-4270-89BA-BFDC1003B8A5";
shapes = (
{
closed = 1;
nodes = (
(1151,0,l),
(1151,82,l),
(682,82,ls),
(662.1,82,o),
(644.991,97.1,o),
(643,117,c),
(643,249,l),
(1151,249,l),
(1151,459,ls),
(1151,525.667,o),
(1097.661,580,o),
(1030,580,cs),
(53,580,l),
(53,498,l),
(522,498,ls),
(542.896,498,o),
(561,479.896,o),
(561,459,cs),
(561,331,l),
(53,331,l),
(53,121,ls),
(53,54.333,o),
(106.339,0,o),
(174,0,c)
);
},
{
closed = 1;
nodes = (
(153.104,82,o),
(135,100.104,o),
(135,121,cs),
(135,249,l),
(561,249,l),
(561,82,l),
(174,82,l)
);
},
{
closed = 1;
nodes = (
(643,459,ls),
(643,479.896,o),
(661.104,498,o),
(682,498,cs),
(1030,498,ls),
(1050.896,498,o),
(1069,479.896,o),
(1069,459,cs),
(1069,331,l),
(643,331,l)
);
}
);
width = 1178;
},
{
background = {
shapes = (
{
closed = 1;
nodes = (
(1077,514,o),
(1012,580,o),
(932,580,c),
(52,580,l),
(52,427,l),
(487,427,l),
(487,367,l),
(52,367,l),
(52,145,ls),
(52,66,o),
(117,0,o),
(197,0,cs),
(1077,0,l),
(1077,153,l),
(642,153,l),
(642,213,l),
(1077,213,l),
(1077,435,ls)
);
},
{
closed = 1;
nodes = (
(924,347,l),
(642,347,l),
(642,427,l),
(924,427,l)
);
},
{
closed = 1;
nodes = (
(205,233,l),
(487,233,l),
(487,153,l),
(205,153,l)
);
}
);
};
layerId = "D465923C-ABAE-4975-85A4-08C1BC9DA335";
shapes = (
{
closed = 1;
nodes = (
(1077,0,l),
(1077,153,l),
(642,153,l),
(642,153,o),
(642,153,o),
(642,153,c),
(642,213,l),
(1077,213,l),
(1077,435,ls),
(1077,514,o),
(1012,580,o),
(932,580,c),
(52,580,l),
(52,427,l),
(487,427,l),
(487,427,o),
(487,427,o),
(487,427,c),
(487,367,l),
(52,367,l),
(52,145,ls),
(52,66,o),
(117,0,o),
(197,0,cs)
);
},
{
closed = 1;
nodes = (
(205,153,o),
(205,153,o),
(205,153,c),
(205,233,l),
(487,233,l),
(487,153,l),
(205,153,l)
);
},
{
closed = 1;
nodes = (
(642,427,l),
(642,427,o),
(642,427,o),
(642,427,c),
(924,427,l),
(924,427,o),
(924,427,o),
(924,427,c),
(924,347,l),
(642,347,l)
);
}
);
width = 1178;
}
);
unicode = 230;
},
{
color = 4;
glyphname = b;
layers = (
{
layerId = "17A5F7C0-AED1-4270-89BA-BFDC1003B8A5";
shapes = (
{
closed = 1;
nodes = (
(524,0,ls),
(590.667,0,o),
(645,54.333,o),
(645,121,cs),
(645,459,ls),
(645,525.667,o),
(590.667,580,o),
(524,580,cs),
(136,580,l),
(136,770,l),
(54,770,l),
(54,0,l),
(54,0,l)
);
},
{
closed = 1;
nodes = (
(154.667,82,o),
(136,99.667,o),
(136,121,cs),
(136,459,ls),
(136,480.333,o),
(154.667,498,o),
(176,498,cs),
(524,498,ls),
(545.333,498,o),
(563,480.333,o),
(563,459,cs),
(563,121,ls),
(563,99.667,o),
(545.333,82,o),
(524,82,cs),
(176,82,ls)
);
}
);
width = 667;
},
{
layerId = "D465923C-ABAE-4975-85A4-08C1BC9DA335";
shapes = (
{
closed = 1;
nodes = (
(497,0,ls),
(577,0,o),
(642,66.333,o),
(642,145,cs),
(642,435,ls),
(642,513.667,o),
(577,580,o),
(497,580,cs),
(207,580,l),
(207,770,l),
(54,770,l),
(54,0,l),
(54,0,l)
);
},
{
closed = 1;
nodes = (
(207,153,o),
(207,153,o),
(207,153,cs),
(207,427,ls),
(207,427,o),
(207,427,o),
(207,427,cs),
(489,427,ls),
(489,427,o),
(489,427,o),
(489,427,cs),
(489,153,ls),
(489,153,o),
(489,153,o),
(489,153,cs),
(207,153,ls)
);
}
);
width = 667;
}
);
unicode = 98;
},
{
color = 4;
glyphname = c;
layers = (
{
anchors = (
{
name = bottom;
pos = (364,0);
},
{
name = top;
pos = (367,580);
}
);
layerId = "17A5F7C0-AED1-4270-89BA-BFDC1003B8A5";
shapes = (
{
closed = 1;
nodes = (
(172,0,l),
(642,0,l),
(642,82,l),
(172,82,ls),
(151.104,82,o),
(133,100.104,o),
(133,121,cs),
(133,459,ls),
(133,479.896,o),
(151.104,498,o),
(172,498,cs),
(640,498,l),
(640,580,l),
(172,580,ls),
(105.333,580,o),
(51,525.667,o),
(51,459,cs),
(51,121,ls),
(51,54.333,o),
(105.333,0,o),
(172,0,c)
);
}
);
width = 695;
},
{
anchors = (
{
name = bottom;
pos = (364,0);
},
{
name = top;
pos = (367,580);
}
);
layerId = "D465923C-ABAE-4975-85A4-08C1BC9DA335";
shapes = (
{
closed = 1;
nodes = (
(196,0,l),
(639,0,l),
(639,153,l),
(204,153,ls),
(204,153,o),
(204,153,o),
(204,153,cs),
(204,427,ls),
(204,427,o),
(204,427,o),
(204,427,cs),
(638,427,l),
(638,580,l),
(196,580,ls),
(117.393,580,o),
(51,513.607,o),
(51,435,cs),
(51,145,ls),
(51,66.393,o),
(117.393,0,o),
(196,0,c)
);
}
);
width = 695;
}
);
unicode = 99;
},
{
color = 4;
glyphname = d;
layers = (
{
layerId = "17A5F7C0-AED1-4270-89BA-BFDC1003B8A5";
shapes = (
{
closed = 1;
nodes = (
(145,0,l),
(614,0,l),
(614,770,l),
(532,770,l),
(532,580,l),
(145,580,ls),
(77.339,580,o),
(23,525.667,o),
(23,459,cs),
(23,121,ls),
(23,54.333,o),
(77.339,0,o),
(145,0,c)
);
},
{
closed = 1;
nodes = (
(124.104,82,o),
(106,100.104,o),
(106,121,cs),
(106,459,ls),
(106,479.896,o),
(124.104,498,o),
(145,498,cs),
(493,498,ls),
(513.896,498,o),
(532,479.896,o),
(532,459,cs),
(532,121,ls),
(532,100.104,o),
(513.896,82,o),
(493,82,cs),
(145,82,ls)
);
}
);
width = 667;
},
{
layerId = "D465923C-ABAE-4975-85A4-08C1BC9DA335";
shapes = (
{
closed = 1;
nodes = (
(168,0,l),
(612,0,l),
(612,770,l),
(459,770,l),
(459,580,l),
(168,580,ls),
(88.399,580,o),
(23,513.607,o),
(23,435,cs),
(23,145,ls),
(23,66.393,o),
(88.399,0,o),
(168,0,c)
);
},
{
closed = 1;
nodes = (
(177,153,o),
(177,153,o),
(177,153,cs),
(177,427,ls),
(177,427,o),
(177,427,o),
(177,427,cs),
(459,427,ls),
(459,427,o),
(459,427,o),
(459,427,cs),
(459,153,ls),
(459,153,o),
(459,153,o),
(459,153,cs),
(177,153,ls)
);
}
);
width = 667;
}
);
unicode = 100;
},
{
color = 4;
glyphname = e;
layers = (
{
anchors = (
{
name = bottom;
pos = (347,0);
},
{
name = top;
pos = (347,580);
}
);
layerId = "17A5F7C0-AED1-4270-89BA-BFDC1003B8A5";
shapes = (
{
closed = 1;
nodes = (
(172,0,l),
(642,0,l),
(642,82,l),
(172,82,ls),
(150.667,82,o),
(133,99.667,o),
(133,121,cs),
(133,249,l),
(642,249,l),
(642,459,ls),
(642,525.667,o),
(588,580,o),
(520,580,cs),
(172,580,ls),
(105.333,580,o),
(51,525.667,o),
(51,459,cs),
(51,121,ls),
(51,54.333,o),
(105.333,0,o),
(172,0,c)
);
},
{
closed = 1;
nodes = (
(133,459,ls),
(133,480.333,o),
(150.667,498,o),
(172,498,cs),
(520,498,ls),
(541.333,498,o),
(559,480.333,o),
(559,459,cs),
(559,331,l),
(133,331,l)
);
}
);
width = 692;
},
{
anchors = (
{
name = bottom;
pos = (345,0);
},
{
name = top;
pos = (345,580);
}
);
layerId = "D465923C-ABAE-4975-85A4-08C1BC9DA335";
shapes = (
{
closed = 1;
nodes = (
(196,0,l),
(639,0,l),
(639,153,l),
(204,153,ls),
(204,153,o),
(204,153,o),
(204,153,cs),
(204,213,l),
(639,213,l),
(639,435,ls),
(639,513.667,o),
(574,580,o),
(494,580,cs),
(196,580,ls),
(117.333,580,o),
(51,513.667,o),
(51,435,cs),
(51,145,ls),
(51,66.333,o),
(117.333,0,o),
(196,0,c)
);
},
{
closed = 1;
nodes = (
(204,427,l),
(204,427,o),
(204,427,o),
(204,427,cs),
(486,427,l),
(486,427,o),
(486,427,o),
(486,427,cs),
(486,347,l),
(204,347,l)
);
}
);
width = 692;
}
);
unicode = 101;
},
{
color = 4;
glyphname = f;
layers = (
{
layerId = "17A5F7C0-AED1-4270-89BA-BFDC1003B8A5";
shapes = (
{
closed = 1;
nodes = (
(135,0,l),
(135,498,l),
(386,498,l),
(386,580,l),
(135,580,l),
(135,649,ls),
(135,670.333,o),
(152.667,688,o),
(174,688,cs),
(386,688,l),
(386,770,l),
(174,770,ls),
(106,770,o),
(53,717,o),
(53,649,cs),
(53,0,l),
(53,0,l)
);
}
);
width = 407;
},
{
layerId = "D465923C-ABAE-4975-85A4-08C1BC9DA335";
shapes = (
{
closed = 1;
nodes = (
(206,0,l),
(206,427,l),
(421,427,l),
(421,580,l),
(206,580,l),
(206,616,l),
(206,616,o),
(206,616,o),
(206,616,cs),
(421,616,l),
(421,770,l),
(199,770,ls),
(119,770,o),
(53,703.667,o),
(53,625,cs),
(53,0,l),
(53,0,l)
);
}
);
width = 440;
}
);
unicode = 102;
},
{
color = 4;
glyphname = g;
layers = (
{
layerId = "17A5F7C0-AED1-4270-89BA-BFDC1003B8A5";
shapes = (
{
closed = 1;
nodes = (
(510,-229,ls),
(578,-229,o),
(631,-175,o),
(631,-107,cs),
(631,459,ls),
(631,525.667,o),
(578,580,o),
(510,580,cs),
(162,580,ls),
(95.333,580,o),
(41,525.667,o),
(41,459,cs),
(41,121,ls),
(41,54.333,o),
(95.333,0,o),
(162,0,cs),
(549,0,l),
(549,-107,ls),
(549,-128.333,o),
(531.333,-146,o),
(510,-146,cs),
(148,-146,l),
(148,-229,l),
(148,-229,l)
);
},
{
closed = 1;
nodes = (
(140.667,82,o),
(123,99.667,o),
(123,121,cs),
(123,459,ls),
(123,480.333,o),
(140.667,498,o),
(162,498,cs),
(510,498,ls),
(531.333,498,o),
(549,480.333,o),
(549,459,cs),
(549,121,ls),
(549,99.667,o),
(531.333,82,o),
(510,82,cs),
(162,82,ls)
);
}
);
width = 683;
},
{
layerId = "D465923C-ABAE-4975-85A4-08C1BC9DA335";
shapes = (
{
closed = 1;
nodes = (
(485,-229,ls),
(565,-229,o),
(630,-164,o),
(630,-84,cs),
(630,435,ls),
(630,513.667,o),
(565,580,o),
(485,580,cs),
(187,580,ls),
(107,580,o),
(41,513.667,o),
(41,435,cs),
(41,145,ls),
(41,66.333,o),
(107,0,o),
(187,0,cs),
(477,0,l),
(477,-75,l),
(477,-75,o),
(477,-75,o),
(477,-75,cs),
(133,-75,l),
(133,-229,l),
(133,-229,l)
);
},
{
closed = 1;
nodes = (
(194,153,o),
(194,153,o),
(194,153,cs),
(194,427,l),
(194,427,o),
(194,427,o),
(194,427,cs),
(477,427,l),
(477,427,o),
(477,427,o),
(477,427,c),
(477,153,l),
(477,153,o),
(477,153,o),
(477,153,cs),
(194,153,l)
);
}
);
width = 683;
}
);
unicode = 103;
},
{
color = 4;
glyphname = h;
layers = (
{
layerId = "17A5F7C0-AED1-4270-89BA-BFDC1003B8A5";
shapes = (
{
closed = 1;
nodes = (
(136,0,l),
(136,459,ls),
(136,479.896,o),
(154.109,498,o),
(176,498,cs),
(524,498,ls),
(544.896,498,o),
(563,479.896,o),
(563,459,cs),
(563,0,l),
(645,0,l),
(645,459,ls),
(645,525.667,o),
(589.672,580,o),
(524,580,cs),
(136,580,l),
(136,770,l),
(54,770,l),
(54,0,l),
(54,0,l)
);
}
);
width = 668;
},
{
layerId = "D465923C-ABAE-4975-85A4-08C1BC9DA335";
shapes = (
{
closed = 1;
nodes = (
(207,0,l),
(207,427,l),
(207,427,o),
(207,427,o),
(207,427,cs),
(489,427,l),
(489,427,o),
(489,427,o),
(489,427,cs),
(489,0,l),
(642,0,l),
(642,435,ls),
(642,513.667,o),
(575.667,580,o),
(497,580,cs),
(207,580,l),
(207,770,l),
(54,770,l),
(54,0,l),
(54,0,l)
);
}
);
width = 668;
}
);
unicode = 104;
},
{
color = 4;
glyphname = i;
layers = (
{
layerId = "17A5F7C0-AED1-4270-89BA-BFDC1003B8A5";
shapes = (
{
closed = 1;
nodes = (
(134,0,l),
(134,580,l),
(52,580,l),
(52,0,l),
(52,0,l)
);
},
{
closed = 1;
nodes = (
(134,688,l),
(134,770,l),
(52,770,l),
(52,688,l),
(52,688,l)
);
}
);
width = 208;
},
{
layerId = "D465923C-ABAE-4975-85A4-08C1BC9DA335";
shapes = (
{
closed = 1;
nodes = (
(205,0,l),
(205,580,l),
(52,580,l),
(52,0,l),
(52,0,l)
);
},
{
closed = 1;
nodes = (
(205,616,l),
(205,770,l),
(52,770,l),
(52,616,l),
(52,616,l)
);
}
);
width = 229;
}
);
unicode = 105;
},
{
color = 4;
glyphname = idotless;
layers = (
{
anchors = (
{
name = top;
pos = (107,580);
}
);
layerId = "17A5F7C0-AED1-4270-89BA-BFDC1003B8A5";
shapes = (
{
closed = 1;
nodes = (
(148,0,l),
(148,580,l),
(66,580,l),
(66,0,l),
(66,0,l)
);
}
);
width = 214;
},
{
anchors = (
{
name = top;
pos = (107,580);
}
);
layerId = "D465923C-ABAE-4975-85A4-08C1BC9DA335";
shapes = (
{
closed = 1;
nodes = (
(184,0,l),
(184,580,l),
(31,580,l),
(31,0,l),
(31,0,l)
);
}
);
width = 214;
}
);
unicode = 305;
},
{
color = 4;
glyphname = j;
layers = (
{
layerId = "17A5F7C0-AED1-4270-89BA-BFDC1003B8A5";
shapes = (
{
closed = 1;
nodes = (
(58,-243,ls),
(126,-243,o),
(180,-189,o),
(180,-121,cs),
(180,580,l),
(97,580,l),
(97,-121,ls),
(97,-142.333,o),
(79.333,-160,o),
(58,-160,cs),
(-187,-160,l),
(-187,-243,l),
(-187,-243,l)
);
},
{
closed = 1;
nodes = (
(180,688,l),
(180,770,l),
(97,770,l),
(97,688,l),
(97,688,l)
);
}
);
width = 239;
},
{
layerId = "D465923C-ABAE-4975-85A4-08C1BC9DA335";
shapes = (
{
closed = 1;
nodes = (
(65,-208,ls),
(145,-208,o),
(211,-143,o),
(211,-63,cs),
(211,580,l),
(58,580,l),
(58,-54,l),
(58,-54,o),
(58,-54,o),
(58,-54,cs),
(-187,-54,l),
(-187,-208,l),
(-187,-208,l)
);
},
{
closed = 1;
nodes = (
(211,616,l),
(211,770,l),
(58,770,l),
(58,616,l),
(58,616,l)
);
}
);
width = 239;
}
);
unicode = 106;
},
{
color = 4;
glyphname = k;
layers = (
{
layerId = "17A5F7C0-AED1-4270-89BA-BFDC1003B8A5";
shapes = (
{
closed = 1;
nodes = (
(136,0,l),
(136,249,l),
(296,249,l),
(524,0,l),
(631,0,l),
(631,1,l),
(369,290,l),
(632,579,l),
(632,580,l),
(524,580,l),
(296,331,l),
(136,331,l),
(136,770,l),
(54,770,l),
(54,0,l),
(54,0,l)
);
}
);
width = 646;
},
{
layerId = "D465923C-ABAE-4975-85A4-08C1BC9DA335";
shapes = (
{
closed = 1;
nodes = (
(207,0,l),
(207,213,l),
(285,213,l),
(482,0,l),
(636,0,l),
(636,52,l),
(420,290,l),
(636,528,l),
(636,580,l),
(482,580,l),
(285,367,l),
(207,367,l),
(207,770,l),
(54,770,l),
(54,0,l),
(54,0,l)
);
}
);
width = 646;
}
);
unicode = 107;
},
{
color = 4;
glyphname = l;
layers = (
{
layerId = "17A5F7C0-AED1-4270-89BA-BFDC1003B8A5";
shapes = (
{
closed = 1;
nodes = (
(173,0,l),
(271,0,l),
(271,82,l),
(173,82,ls),
(151.667,82,o),
(134,99.667,o),
(134,121,cs),
(134,770,l),
(52,770,l),
(52,121,ls),
(52,54.333,o),
(106.333,0,o),
(173,0,c)
);
}
);
width = 302;
},
{
layerId = "D465923C-ABAE-4975-85A4-08C1BC9DA335";
shapes = (
{
closed = 1;
nodes = (
(197,0,l),
(323,0,l),
(323,153,l),
(206,153,l),
(206,153,o),
(206,153,o),
(206,153,cs),
(206,771,l),
(52,771,l),
(52,145,ls),
(52,66.333,o),
(118.333,0,o),
(197,0,c)
);
}
);
width = 337;
}
);
unicode = 108;
},
{
color = 4;
glyphname = m;
layers = (
{
layerId = "17A5F7C0-AED1-4270-89BA-BFDC1003B8A5";
shapes = (
{
closed = 1;
nodes = (
(137,0,l),
(137,459,ls),
(137,480.333,o),
(154.667,498,o),
(176,498,cs),
(418,498,ls),
(439.333,498,o),
(457,480.333,o),
(457,459,cs),
(457,0,l),
(540,0,l),
(540,459,ls),
(540,480.333,o),
(557.667,498,o),
(579,498,cs),
(820,498,ls),
(841.333,498,o),
(860,480.333,o),
(860,459,cs),
(860,0,l),
(941,0,l),
(941,459,ls),
(941,525.667,o),
(888,580,o),
(820,580,cs),
(54,580,l),
(54,0,l),
(54,0,l)
);
}
);
width = 978;
},
{
layerId = "D465923C-ABAE-4975-85A4-08C1BC9DA335";
shapes = (
{
closed = 1;
nodes = (
(207,0,l),
(207,427,l),
(207,427,o),
(207,427,o),
(207,427,cs),
(399,427,l),
(399,427,o),
(399,427,o),
(399,427,cs),
(399,0,l),
(553,0,l),
(553,427,l),
(553,427,o),
(553,427,o),
(553,427,cs),
(745,427,l),
(745,427,o),
(745,427,o),
(745,427,cs),
(745,0,l),
(897,0,l),
(897,435,ls),
(897,513.667,o),
(832,580,o),
(752,580,cs),
(54,580,l),
(54,0,l),
(54,0,l)
);
}
);
width = 978;
}
);
unicode = 109;
},
{
color = 4;
glyphname = n;
layers = (
{
anchors = (
{
name = bottom;
pos = (346,0);
},
{
name = top;
pos = (346,580);
}
);
layerId = "17A5F7C0-AED1-4270-89BA-BFDC1003B8A5";
shapes = (
{
closed = 1;
nodes = (
(136,0,l),
(136,459,ls),
(136,480.333,o),
(154.667,498,o),
(176,498,cs),
(524,498,ls),
(545.333,498,o),
(563,480.333,o),
(563,459,cs),
(563,0,l),
(645,0,l),
(645,459,ls),
(645,525.667,o),
(590.667,580,o),
(524,580,cs),
(54,580,l),
(54,0,l),
(54,0,l)
);
}
);
width = 696;
},
{
anchors = (
{
name = bottom;
pos = (348,0);
},
{
name = top;
pos = (336,580);
}
);
layerId = "D465923C-ABAE-4975-85A4-08C1BC9DA335";
shapes = (
{
closed = 1;
nodes = (
(207,0,l),
(207,427,l),
(207,427,o),
(207,427,o),
(207,427,cs),
(489,427,l),
(489,427,o),
(489,427,o),
(489,427,cs),
(489,0,l),
(642,0,l),
(642,435,ls),
(642,513.667,o),
(577,580,o),
(497,580,cs),
(54,580,l),
(54,0,l),
(54,0,l)
);
}
);
width = 696;
}
);
unicode = 110;
},
{
color = 4;
glyphname = o;
layers = (
{
anchors = (
{
name = bottom;
pos = (345,-2);
},
{
name = top;
pos = (345,578);
}
);
layerId = "17A5F7C0-AED1-4270-89BA-BFDC1003B8A5";
shapes = (
{
closed = 1;
nodes = (
(172,0,l),
(520,0,ls),
(588,0,o),
(642,54.333,o),
(642,121,cs),
(642,459,ls),
(642,525.667,o),
(588,580,o),
(520,580,cs),
(172,580,ls),
(105.333,580,o),
(51,525.667,o),
(51,459,cs),
(51,121,ls),
(51,54.333,o),
(105.333,0,o),
(172,0,c)
);
},
{
closed = 1;
nodes = (
(150.667,82,o),
(133,99.667,o),
(133,121,cs),
(133,459,ls),
(133,480.333,o),
(150.667,498,o),
(172,498,cs),
(520,498,ls),
(541.333,498,o),
(559,480.333,o),
(559,459,cs),
(559,121,ls),
(559,99.667,o),
(541.333,82,o),
(520,82,cs),
(172,82,l)
);
}
);
width = 692;
},
{
anchors = (
{
name = bottom;
pos = (345,-2);
},
{
name = top;
pos = (345,578);
}
);
layerId = "D465923C-ABAE-4975-85A4-08C1BC9DA335";
shapes = (
{
closed = 1;
nodes = (
(196,0,l),
(494,0,ls),
(574,0,o),
(639,66.333,o),
(639,145,cs),
(639,435,ls),
(639,513.667,o),
(574,580,o),
(494,580,cs),
(196,580,ls),
(117.333,580,o),
(51,513.667,o),
(51,435,cs),
(51,145,ls),
(51,66.333,o),
(117.333,0,o),
(196,0,c)
);
},
{
closed = 1;
nodes = (
(204,153,o),
(204,153,o),
(204,153,cs),
(204,427,l),
(204,427,o),
(204,427,o),
(204,427,cs),
(486,427,l),
(486,427,o),
(486,427,o),
(486,427,cs),
(486,153,l),
(486,153,o),
(486,153,o),
(486,153,cs),
(204,153,l)
);
}
);
width = 692;
}
);
unicode = 111;
},
{
color = 4;
glyphname = oe;
layers = (
{
layerId = "17A5F7C0-AED1-4270-89BA-BFDC1003B8A5";
shapes = (
{
closed = 1;
nodes = (
(173,0,l),
(1150,0,l),
(1150,82,l),
(681,82,ls),
(660.104,82,o),
(642,100.104,o),
(642,121,cs),
(642,249,l),
(1150,249,l),
(1150,459,ls),
(1150,525.667,o),
(1096.661,580,o),
(1029,580,cs),
(173,580,ls),
(105.339,580,o),
(52,525.667,o),
(52,459,cs),
(52,121,ls),
(52,54.333,o),
(105.339,0,o),
(173,0,c)
);
},
{
closed = 1;
nodes = (
(152.104,82,o),
(134,100.104,o),
(134,121,cs),
(134,459,ls),
(134,479.896,o),
(152.104,498,o),
(173,498,cs),
(521,498,ls),
(541.896,498,o),
(560,479.896,o),
(560,459,cs),
(560,121,ls),
(560,100.104,o),
(541.896,82,o),
(521,82,cs),
(173,82,l),
(173,82,l)
);
},
{
closed = 1;
nodes = (
(642,459,ls),
(642,479.896,o),
(660.104,498,o),
(681,498,cs),
(1029,498,ls),
(1049.896,498,o),
(1068,479.896,o),
(1068,459,cs),
(1068,331,l),
(642,331,l),
(642,331,l)
);
}
);
width = 1177;
},
{
layerId = "D465923C-ABAE-4975-85A4-08C1BC9DA335";
shapes = (
{
closed = 1;
nodes = (
(198,0,l),
(1076,0,l),
(1076,153,l),
(641,153,l),
(641,153,o),
(641,153,o),
(641,153,cs),
(641,213,l),
(1076,213,l),
(1076,435,ls),
(1076,513.607,o),
(1011.601,580,o),
(932,580,cs),
(198,580,ls),
(117.403,580,o),
(52,513.607,o),
(52,435,cs),
(52,145,ls),
(52,66.393,o),
(117.403,0,o),
(198,0,c)
);
},
{
closed = 1;
nodes = (
(205,153,o),
(205,153,o),
(205,153,cs),
(205,427,l),
(205,427,o),
(205,427,o),
(205,427,cs),
(488,427,l),
(488,427,o),
(488,427,o),
(488,427,cs),
(488,153,l),
(488,153,o),
(488,153,o),
(488,153,cs),
(205,153,l),
(205,153,l)
);
},
{
closed = 1;
nodes = (
(641,427,l),
(641,427,o),
(641,427,o),
(641,427,cs),
(923,427,l),
(923,427,o),
(923,427,o),
(923,427,cs),
(923,347,l),
(641,347,l),
(641,347,l)
);
}
);
width = 1177;
}
);
unicode = 339;
},
{
color = 4;
glyphname = p;
layers = (
{
layerId = "17A5F7C0-AED1-4270-89BA-BFDC1003B8A5";
shapes = (
{
closed = 1;
nodes = (
(136,-230,l),
(136,0,l),
(524,0,ls),
(590.667,0,o),
(645,54.333,o),
(645,121,cs),
(645,459,ls),
(645,525.667,o),
(590.667,580,o),
(524,580,cs),
(54,580,l),
(54,-230,l),
(54,-230,l)
);
},
{
closed = 1;
nodes = (
(154.667,82,o),
(136,99.667,o),
(136,121,cs),
(136,459,ls),
(136,480.333,o),
(154.667,498,o),
(176,498,cs),
(524,498,ls),
(545.333,498,o),
(563,480.333,o),
(563,459,cs),
(563,121,ls),
(563,99.667,o),
(545.333,82,o),
(524,82,cs),
(176,82,l)
);
}
);
width = 664;
},
{
layerId = "D465923C-ABAE-4975-85A4-08C1BC9DA335";
shapes = (
{
closed = 1;
nodes = (
(207,-230,l),
(207,0,l),
(497,0,ls),
(577,0,o),
(642,66.333,o),
(642,145,cs),
(642,435,ls),
(642,513.667,o),
(577,580,o),
(497,580,cs),
(54,580,l),
(54,-230,l),
(54,-230,l)
);
},
{
closed = 1;
nodes = (
(207,153,o),
(207,153,o),
(207,153,cs),
(207,427,l),
(207,427,o),
(207,427,o),
(207,427,cs),
(489,427,l),
(489,427,o),
(489,427,o),
(489,427,cs),
(489,153,l),
(489,153,o),
(489,153,o),
(489,153,cs),
(207,153,l)
);
}
);
width = 664;
}
);
unicode = 112;
},
{
color = 4;
glyphname = q;
layers = (
{
layerId = "17A5F7C0-AED1-4270-89BA-BFDC1003B8A5";
shapes = (
{
closed = 1;
nodes = (
(611,-230,l),
(611,580,l),
(142,580,ls),
(74,580,o),
(20,525.667,o),
(20,459,cs),
(20,121,ls),
(20,54.333,o),
(74,0,o),
(142,0,cs),
(529,0,l),
(529,-230,l),
(529,-230,l)
);
},
{
closed = 1;
nodes = (
(120.667,82,o),
(103,99.667,o),
(103,121,cs),
(103,459,ls),
(103,480.333,o),
(120.667,498,o),
(142,498,cs),
(490,498,ls),
(511.333,498,o),
(529,480.333,o),
(529,459,cs),
(529,121,ls),
(529,99.667,o),
(511.333,82,o),
(490,82,cs),
(142,82,l)
);
}
);
width = 664;
},
{
layerId = "D465923C-ABAE-4975-85A4-08C1BC9DA335";
shapes = (
{
closed = 1;
nodes = (
(609,-230,l),
(609,580,l),
(165,580,ls),
(85,580,o),
(20,513.667,o),
(20,435,cs),
(20,145,ls),
(20,66.333,o),
(85,0,o),
(165,0,cs),
(456,0,l),
(456,-230,l),
(456,-230,l)
);
},
{
closed = 1;
nodes = (
(174,153,o),
(174,153,o),
(174,153,cs),
(174,427,l),
(174,427,o),
(174,427,o),
(174,427,cs),
(456,427,l),
(456,427,o),
(456,427,o),
(456,427,cs),
(456,153,l),
(456,153,o),
(456,153,o),
(456,153,cs),
(174,153,l)
);
}
);
width = 664;
}
);
unicode = 113;
},
{
color = 4;
glyphname = r;
layers = (
{
layerId = "17A5F7C0-AED1-4270-89BA-BFDC1003B8A5";
shapes = (
{
closed = 1;
nodes = (
(134,0,l),
(134,459,ls),
(134,480.333,o),
(151.667,498,o),
(173,498,cs),
(499,498,l),
(499,580,l),
(173,580,ls),
(106.333,580,o),
(52,525.667,o),
(52,459,cs),
(52,0,l),
(52,0,l)
);
}
);
width = 512;
},
{
layerId = "D465923C-ABAE-4975-85A4-08C1BC9DA335";
shapes = (
{
closed = 1;
nodes = (
(205,0,l),
(205,427,l),
(205,427,o),
(205,427,o),
(205,427,cs),
(518,427,l),
(518,580,l),
(198,580,ls),
(118,580,o),
(52,513.667,o),
(52,435,cs),
(52,0,l),
(52,0,l)
);
}
);
width = 526;
}
);
unicode = 114;
},
{
color = 4;
glyphname = s;
layers = (
{
anchors = (
{
name = bottom;
pos = (354,0);
},
{
name = top;
pos = (341,579);
}
);
layerId = "17A5F7C0-AED1-4270-89BA-BFDC1003B8A5";
shapes = (
{
closed = 1;
nodes = (
(169,0,l),
(517,0,ls),
(584.661,0,o),
(639,54.333,o),
(639,121,cs),
(639,210,ls),
(639,276.667,o),
(584.661,331,o),
(517,331,cs),
(169,331,ls),
(148.104,331,o),
(130,349.104,o),
(130,370,cs),
(130,459,ls),
(130,479.896,o),
(148.104,498,o),
(169,498,cs),
(517,498,ls),
(537.896,498,o),
(556,479.896,o),
(556,459,cs),
(556,451,l),
(639,451,l),
(639,459,ls),
(639,525.667,o),
(584.661,580,o),
(517,580,cs),
(169,580,ls),
(102.333,580,o),
(48,525.667,o),
(48,459,cs),
(48,370,ls),
(48,303.333,o),
(102.333,249,o),
(169,249,cs),
(517,249,ls),
(537.896,249,o),
(556,230.896,o),
(556,210,cs),
(556,121,ls),
(556,100.104,o),
(537.896,82,o),
(517,82,cs),
(169,82,ls),
(148.104,82,o),
(130,100.104,o),
(130,121,cs),
(130,129,l),
(48,129,l),
(48,121,ls),
(48,54.333,o),
(102.333,0,o),
(169,0,c)
);
}
);
width = 686;
},
{
anchors = (
{
name = bottom;
pos = (345,0);
},
{
name = top;
pos = (340,580);
}
);
layerId = "D465923C-ABAE-4975-85A4-08C1BC9DA335";
shapes = (
{
closed = 1;
nodes = (
(193,0,l),
(491,0,ls),
(571,0,o),
(637,66.333,o),
(637,145,cs),
(637,222,ls),
(637,300.667,o),
(571,367,o),
(491,367,cs),
(201,367,l),
(201,367,o),
(201,367,o),
(201,367,cs),
(201,427,l),
(201,427,o),
(201,427,o),
(201,427,cs),
(483,427,l),
(483,427,o),
(483,427,o),
(483,427,cs),
(483,406,l),
(637,406,l),
(637,435,ls),
(637,513.667,o),
(571,580,o),
(491,580,cs),
(193,580,ls),
(114.333,580,o),
(48,513.667,o),
(48,435,cs),
(48,358,ls),
(48,279.333,o),
(114.333,213,o),
(193,213,cs),
(483,213,l),
(483,213,o),
(483,213,o),
(483,213,cs),
(483,153,l),
(483,153,o),
(483,153,o),
(483,153,cs),
(201,153,l),
(201,153,o),
(201,153,o),
(201,153,cs),
(201,174,l),
(48,174,l),
(48,145,ls),
(48,66.333,o),
(114.333,0,o),
(193,0,c)
);
}
);
width = 686;
}
);
unicode = 115;
},
{
color = 4;
glyphname = germandbls;
layers = (
{
layerId = "17A5F7C0-AED1-4270-89BA-BFDC1003B8A5";
shapes = (
{
closed = 1;
nodes = (
(139,0,l),
(139,597,ls),
(139,618.333,o),
(156.667,636,o),
(178,636,cs),
(663,636,ls),
(684.333,636,o),
(702,618.333,o),
(702,597,cs),
(702,443,ls),
(702,422.104,o),
(683.896,404,o),
(663,404,cs),
(284,404,l),
(284,333,l),
(663,333,ls),
(683.896,333,o),
(702,314.896,o),
(702,294,cs),
(702,121,ls),
(702,100.104,o),
(683.896,82,o),
(663,82,cs),
(284,82,l),
(284,0,l),
(663,0,ls),
(729.667,0,o),
(784,54.333,o),
(784,121,cs),
(784,294,ls),
(784,320.865,o),
(772.905,349.124,o),
(754,374,c),
(772.905,399.871,o),
(784,428.135,o),
(784,455,cs),
(784,618,l),
(769.333,670,o),
(719,720,o),
(663,720,cs),
(178,720,ls),
(110,720,o),
(57,666,o),
(57,598,cs),
(57,0,l),
(57,0,l)
);
}
);
width = 833;
},
{
layerId = "D465923C-ABAE-4975-85A4-08C1BC9DA335";
shapes = (
{
closed = 1;
nodes = (
(210,0,l),
(210,566,l),
(210,566,o),
(210,566,o),
(210,566,cs),
(611,566,l),
(611,566,o),
(611,566,o),
(611,566,cs),
(611,429,l),
(611,429,o),
(611,429,o),
(611,429,cs),
(273,429,l),
(273,285,l),
(611,285,l),
(611,285,o),
(611,285,o),
(611,285,cs),
(611,153,l),
(611,153,o),
(611,153,o),
(611,153,cs),
(273,153,l),
(273,0,l),
(618,0,ls),
(697.601,0,o),
(764,66.393,o),
(764,145,cs),
(764,294,ls),
(764,317.88,o),
(758.94,340.109,o),
(747,362,c),
(757.945,382.896,o),
(764,409.109,o),
(764,431,cs),
(764,601,l),
(752,669,o),
(690,720,o),
(618,720,cs),
(203,720,ls),
(123,720,o),
(57,655,o),
(57,575,cs),
(57,0,l),
(57,0,l)
);
}
);
width = 833;
}
);
unicode = 223;
},
{
color = 4;
glyphname = t;
layers = (
{
layerId = "17A5F7C0-AED1-4270-89BA-BFDC1003B8A5";
shapes = (
{
closed = 1;
nodes = (
(174,0,l),
(386,0,l),
(386,82,l),
(174,82,ls),
(152.667,82,o),
(135,99.667,o),
(135,121,cs),
(135,498,l),
(386,498,l),
(386,580,l),
(135,580,l),
(135,770,l),
(53,770,l),
(53,121,ls),
(53,54.333,o),
(106,0,o),
(174,0,c)
);
}
);
width = 410;
},
{
layerId = "D465923C-ABAE-4975-85A4-08C1BC9DA335";
shapes = (
{
closed = 1;
nodes = (
(199,0,l),
(421,0,l),
(421,153,l),
(206,153,l),
(206,153,o),
(206,153,o),
(206,153,cs),
(206,427,l),
(421,427,l),
(421,580,l),
(206,580,l),
(206,752,l),
(53,752,l),
(53,145,ls),
(53,66.333,o),
(119,0,o),
(199,0,c)
);
}
);
width = 451;
}
);
unicode = 116;
},
{
color = 4;
glyphname = u;
layers = (
{
anchors = (
{
name = top;
pos = (349,580);
}
);
layerId = "17A5F7C0-AED1-4270-89BA-BFDC1003B8A5";
shapes = (
{
closed = 1;
nodes = (
(174,0,l),
(522,0,ls),
(590,0,o),
(644,54.333,o),
(644,121,cs),
(644,580,l),
(562,580,l),
(562,121,ls),
(562,99.667,o),
(543.333,82,o),
(522,82,cs),
(174,82,ls),
(152.667,82,o),
(135,99.667,o),
(135,121,cs),
(135,580,l),
(53,580,l),
(53,121,ls),
(53,54.333,o),
(107.333,0,o),
(174,0,c)
);
}
);
width = 695;
},
{
anchors = (
{
name = top;
pos = (347,579);
}
);
layerId = "D465923C-ABAE-4975-85A4-08C1BC9DA335";
shapes = (
{
closed = 1;
nodes = (
(198,0,l),
(496,0,ls),
(576,0,o),
(641,66.333,o),
(641,145,cs),
(641,580,l),
(488,580,l),
(488,153,l),
(488,153,o),
(488,153,o),
(488,153,cs),
(206,153,l),
(206,153,o),
(206,153,o),
(206,153,cs),
(206,580,l),
(53,580,l),
(53,145,ls),
(53,66.333,o),
(118,0,o),
(198,0,c)
);
}
);
width = 695;
}
);
unicode = 117;
},
{
color = 4;
glyphname = v;
layers = (
{
layerId = "17A5F7C0-AED1-4270-89BA-BFDC1003B8A5";
shapes = (
{
closed = 1;
nodes = (
(436,0,l),
(757,580,l),
(661,580,l),
(389,80,l),
(117,580,l),
(21,580,l),
(341,0,l),
(341,0,l)
);
}
);
width = 790;
},
{
layerId = "D465923C-ABAE-4975-85A4-08C1BC9DA335";
shapes = (
{
closed = 1;
nodes = (
(471,0,l),
(791,580,l),
(615,580,l),
(406,195,l),
(197,580,l),
(21,580,l),
(340,0,l),
(340,0,l)
);
}
);
width = 790;
}
);
unicode = 118;
},
{
color = 4;
glyphname = w;
layers = (
{
layerId = "17A5F7C0-AED1-4270-89BA-BFDC1003B8A5";
shapes = (
{
closed = 1;
nodes = (
(335,0,l),
(540,479,l),
(756,0,l),
(827,0,l),
(1046,580,l),
(957,580,l),
(793,149,l),
(594,580,l),
(486,580,l),
(299,148,l),
(123,580,l),
(35,580,l),
(263,0,l),
(263,0,l)
);
}
);
width = 1071;
},
{
layerId = "D465923C-ABAE-4975-85A4-08C1BC9DA335";
shapes = (
{
closed = 1;
nodes = (
(378,0,l),
(528,346,l),
(685,0,l),
(801,0,l),
(1019,580,l),
(857,580,l),
(741,275,l),
(601,580,l),
(453,580,l),
(322,279,l),
(197,580,l),
(35,580,l),
(263,0,l),
(263,0,l)
);
}
);
width = 1053;
}
);
unicode = 119;
},
{
color = 4;
glyphname = x;
layers = (
{
layerId = "17A5F7C0-AED1-4270-89BA-BFDC1003B8A5";
shapes = (
{
closed = 1;
nodes = (
(154,0,l),
(342,232,l),
(531,0,l),
(639,0,l),
(639,1,l),
(396,295,l),
(638,579,l),
(638,580,l),
(531,580,l),
(342,360,l),
(154,580,l),
(46,580,l),
(46,579,l),
(288,295,l),
(46,1,l),
(46,0,l),
(46,0,l)
);
}
);
width = 692;
},
{
layerId = "D465923C-ABAE-4975-85A4-08C1BC9DA335";
shapes = (
{
closed = 1;
nodes = (
(203,0,l),
(345,174,l),
(487,0,l),
(644,0,l),
(644,50,l),
(444,295,l),
(644,530,l),
(644,580,l),
(486,580,l),
(345,412,l),
(203,580,l),
(46,580,l),
(46,530,l),
(246,295,l),
(46,50,l),
(46,0,l),
(46,0,l)
);
}
);
width = 692;
}
);
unicode = 120;
},
{
color = 4;
glyphname = y;
layers = (
{
anchors = (
{
name = top;
pos = (337,580);
}
);
layerId = "17A5F7C0-AED1-4270-89BA-BFDC1003B8A5";
shapes = (
{
closed = 1;
nodes = (
(511,-230,ls),
(579,-230,o),
(632,-176,o),
(632,-108,cs),
(632,578,l),
(550,578,l),
(550,121,ls),
(550,99.667,o),
(532.333,82,o),
(511,82,cs),
(163,82,ls),
(141.667,82,o),
(124,99.667,o),
(124,121,cs),
(124,578,l),
(42,578,l),
(42,121,ls),
(42,54.333,o),
(96.333,0,o),
(163,0,cs),
(550,0,l),
(550,-108,ls),
(550,-129.333,o),
(532.333,-147,o),
(511,-147,cs),
(149,-147,l),
(149,-230,l),
(149,-230,l)
);
}
);
width = 685;
},
{
anchors = (
{
name = top;
pos = (336,580);
}
);
layerId = "D465923C-ABAE-4975-85A4-08C1BC9DA335";
shapes = (
{
closed = 1;
nodes = (
(486,-208,ls),
(566,-208,o),
(631,-143,o),
(631,-63,cs),
(631,578,l),
(478,578,l),
(478,153,l),
(478,153,o),
(478,153,o),
(478,153,cs),
(195,153,l),
(195,153,o),
(195,153,o),
(195,153,cs),
(195,578,l),
(42,578,l),
(42,145,ls),
(42,66.333,o),
(108,0,o),
(188,0,cs),
(478,0,l),
(478,-54,l),
(478,-54,o),
(478,-54,o),
(478,-54,cs),
(134,-54,l),
(134,-208,l),
(134,-208,l)
);
}
);
width = 685;
}
);
unicode = 121;
},
{
color = 4;
glyphname = z;
layers = (
{
anchors = (
{
name = top;
pos = (342,580);
}
);
layerId = "17A5F7C0-AED1-4270-89BA-BFDC1003B8A5";
shapes = (
{
closed = 1;
nodes = (
(645,0,l),
(645,82,l),
(144,82,l),
(645,468,l),
(645,580,l),
(54,580,l),
(54,498,l),
(555,498,l),
(54,112,l),
(54,0,l),
(54,0,l)
);
}
);
width = 698;
},
{
anchors = (
{
name = top;
pos = (348,580);
}
);
layerId = "D465923C-ABAE-4975-85A4-08C1BC9DA335";
shapes = (
{
closed = 1;
nodes = (
(642,0,l),
(642,153,l),
(293,153,l),
(642,423,l),
(642,580,l),
(54,580,l),
(54,427,l),
(403,427,l),
(54,157,l),
(54,0,l),
(54,0,l)
);
}
);
width = 698;
}
);
unicode = 122;
},
{
color = 4;
glyphname = a.alt;
layers = (
{
layerId = "17A5F7C0-AED1-4270-89BA-BFDC1003B8A5";
shapes = (
{
closed = 1;
nodes = (
(172,0,l),
(642,0,l),
(642,459,ls),
(642,525.667,o),
(587.661,580,o),
(520,580,cs),
(172,580,ls),
(105.333,580,o),
(51,525.667,o),
(51,459,cs),
(51,121,ls),
(51,54.333,o),
(105.333,0,o),
(172,0,c)
);
},
{
closed = 1;
nodes = (
(151.104,82,o),
(133,100.104,o),
(133,121,cs),
(133,459,ls),
(133,479.896,o),
(151.104,498,o),
(172,498,cs),
(520,498,ls),
(541.891,498,o),
(559,479.896,o),
(559,459,cs),
(559,82,l),
(172,82,l)
);
}
);
width = 693;
},
{
layerId = "D465923C-ABAE-4975-85A4-08C1BC9DA335";
shapes = (
{
closed = 1;
nodes = (
(196,0,l),
(639,0,l),
(639,435,ls),
(639,513.607,o),
(574,580,o),
(494,580,cs),
(196,580,ls),
(117.333,580,o),
(51,513.607,o),
(51,435,cs),
(51,145,ls),
(51,66.393,o),
(117.393,0,o),
(196,0,c)
);
},
{
closed = 1;
nodes = (
(204,153,o),
(204,153,o),
(204,153,cs),
(204,427,l),
(204,427,o),
(204,427,o),
(204,427,cs),
(486,427,l),
(486,427,o),
(486,427,o),
(486,427,cs),
(486,153,l),
(204,153,l)
);
}
);
width = 693;
}
);
},
{
color = 4;
glyphname = k.alt;
layers = (
{
layerId = "17A5F7C0-AED1-4270-89BA-BFDC1003B8A5";
shapes = (
{
closed = 1;
nodes = (
(136,0,l),
(136,249,l),
(524,249,ls),
(544.896,249,o),
(563,230.896,o),
(563,210,cs),
(563,0,l),
(645,0,l),
(645,210,ls),
(645,235.871,o),
(633.911,265.124,o),
(616,290,c),
(633.911,314.876,o),
(645,344.129,o),
(645,370,cs),
(645,580,l),
(563,580,l),
(563,370,ls),
(563,349.104,o),
(544.896,331,o),
(524,331,cs),
(136,331,l),
(136,770,l),
(54,770,l),
(54,0,l),
(54,0,l)
);
}
);
width = 669;
},
{
layerId = "D465923C-ABAE-4975-85A4-08C1BC9DA335";
shapes = (
{
closed = 1;
nodes = (
(207,0,l),
(207,213,l),
(489,213,l),
(489,213,o),
(489,213,o),
(489,213,cs),
(489,0,l),
(642,0,l),
(642,222,ls),
(642,243.891,o),
(625.945,269.104,o),
(615,290,c),
(630,313,o),
(642,336,o),
(642,358,cs),
(642,580,l),
(489,580,l),
(489,367,l),
(489,367,o),
(489,367,o),
(489,367,cs),
(207,367,l),
(207,752,l),
(54,752,l),
(54,0,l),
(54,0,l)
);
}
);
width = 669;
}
);
},
{
color = 4;
glyphname = v.alt;
layers = (
{
layerId = "17A5F7C0-AED1-4270-89BA-BFDC1003B8A5";
shapes = (
{
closed = 1;
nodes = (
(174,0,l),
(644,0,l),
(644,580,l),
(562,580,l),
(562,82,l),
(174,82,ls),
(153.104,82,o),
(135,100.104,o),
(135,121,cs),
(135,580,l),
(53,580,l),
(53,121,ls),
(53,54.333,o),
(107.333,0,o),
(174,0,c)
);
}
);
width = 697;
},
{
layerId = "D465923C-ABAE-4975-85A4-08C1BC9DA335";
shapes = (
{
closed = 1;
nodes = (
(198,0,l),
(641,0,l),
(641,580,l),
(488,580,l),
(488,153,l),
(206,153,l),
(206,153,o),
(206,153,o),
(206,153,cs),
(206,580,l),
(53,580,l),
(53,145,ls),
(53,66.393,o),
(118.399,0,o),
(198,0,c)
);
}
);
width = 697;
}
);
},
{
color = 4;
glyphname = w.alt;
layers = (
{
layerId = "17A5F7C0-AED1-4270-89BA-BFDC1003B8A5";
shapes = (
{
closed = 1;
nodes = (
(175,0,l),
(940,0,l),
(940,580,l),
(858,580,l),
(858,121,ls),
(858,100.104,o),
(839.896,82,o),
(819,82,cs),
(576,82,ls),
(555.104,82,o),
(537,100.104,o),
(537,121,cs),
(537,580,l),
(455,580,l),
(455,121,ls),
(455,100.104,o),
(436.896,82,o),
(416,82,cs),
(175,82,ls),
(153.109,82,o),
(135,100.104,o),
(135,121,cs),
(135,580,l),
(53,580,l),
(53,121,ls),
(53,54.333,o),
(107.339,0,o),
(175,0,c)
);
}
);
width = 978;
},
{
layerId = "D465923C-ABAE-4975-85A4-08C1BC9DA335";
shapes = (
{
closed = 1;
nodes = (
(199,0,l),
(896,0,l),
(896,580,l),
(743,580,l),
(743,153,l),
(743,153,o),
(743,153,o),
(743,153,cs),
(551,153,l),
(551,153,o),
(551,153,o),
(551,153,cs),
(551,580,l),
(397,580,l),
(397,153,l),
(397,153,o),
(397,153,o),
(397,153,cs),
(205,153,l),
(205,153,o),
(205,153,o),
(205,153,cs),
(205,580,l),
(53,580,l),
(53,145,ls),
(53,66.393,o),
(119.399,0,o),
(199,0,c)
);
}
);
width = 978;
}
);
},
{
color = 4;
glyphname = x.alt;
layers = (
{
layerId = "17A5F7C0-AED1-4270-89BA-BFDC1003B8A5";
shapes = (
{
closed = 1;
nodes = (
(136,0,l),
(136,210,ls),
(136,230.896,o),
(154.109,249,o),
(176,249,cs),
(524,249,ls),
(544.896,249,o),
(563,230.896,o),
(563,210,cs),
(563,0,l),
(645,0,l),
(645,210,ls),
(645,235.871,o),
(633.911,265.124,o),
(616,290,c),
(633.911,314.876,o),
(645,344.129,o),
(645,370,cs),
(645,580,l),
(563,580,l),
(563,370,ls),
(563,349.104,o),
(544.896,331,o),
(524,331,cs),
(176,331,ls),
(154.109,331,o),
(136,349.104,o),
(136,370,cs),
(136,580,l),
(54,580,l),
(54,370,ls),
(54,344.129,o),
(65.089,314.876,o),
(83,290,c),
(65.089,265.124,o),
(54,235.871,o),
(54,210,cs),
(54,0,l),
(54,0,l)
);
}
);
width = 698;
},
{
layerId = "D465923C-ABAE-4975-85A4-08C1BC9DA335";
shapes = (
{
closed = 1;
nodes = (
(207,0,l),
(207,213,l),
(207,213,o),
(207,213,o),
(207,213,cs),
(489,213,l),
(489,213,o),
(489,213,o),
(489,213,cs),
(489,0,l),
(642,0,l),
(642,222,ls),
(642,243.891,o),
(625.945,269.104,o),
(615,290,c),
(630,318,o),
(642,336,o),
(642,358,cs),
(642,580,l),
(489,580,l),
(489,367,l),
(489,367,o),
(489,367,o),
(489,367,cs),
(207,367,l),
(207,367,o),
(207,367,o),
(207,367,cs),
(207,580,l),
(54,580,l),
(54,358,ls),
(54,337,o),
(64,322,o),
(81,290,c),
(70.055,269.104,o),
(54,243.891,o),
(54,222,cs),
(54,0,l),
(54,0,l)
);
}
);
width = 698;
}
);
},
{
color = 4;
glyphname = z.alt;
layers = (
{
layerId = "17A5F7C0-AED1-4270-89BA-BFDC1003B8A5";
shapes = (
{
closed = 1;
nodes = (
(172,0,l),
(642,0,l),
(642,82,l),
(172,82,ls),
(151.104,82,o),
(133,100.104,o),
(133,121,cs),
(133,210,ls),
(133,230.896,o),
(151.104,249,o),
(172,249,cs),
(520,249,ls),
(587.661,249,o),
(642,303.333,o),
(642,370,cs),
(642,459,ls),
(642,525.667,o),
(587.661,580,o),
(520,580,cs),
(51,580,l),
(51,498,l),
(520,498,ls),
(541.891,498,o),
(559,479.896,o),
(559,459,cs),
(559,370,ls),
(559,349.104,o),
(541.891,331,o),
(520,331,cs),
(172,331,ls),
(105.333,331,o),
(51,276.667,o),
(51,210,cs),
(51,121,ls),
(51,54.333,o),
(105.333,0,o),
(172,0,c)
);
}
);
width = 692;
},
{
layerId = "D465923C-ABAE-4975-85A4-08C1BC9DA335";
shapes = (
{
closed = 1;
nodes = (
(196,0,l),
(639,0,l),
(639,153,l),
(204,153,l),
(204,153,o),
(204,153,o),
(204,153,cs),
(204,213,l),
(204,213,o),
(204,213,o),
(204,213,cs),
(494,213,ls),
(573.601,213,o),
(639,279.393,o),
(639,358,cs),
(639,435,ls),
(639,513.607,o),
(573.601,580,o),
(494,580,cs),
(51,580,l),
(51,427,l),
(486,427,l),
(486,427,o),
(486,427,o),
(486,427,cs),
(486,367,l),
(486,367,o),
(486,367,o),
(486,367,cs),
(196,367,ls),
(117.393,367,o),
(51,300.607,o),
(51,222,cs),
(51,145,ls),
(51,66.393,o),
(117.393,0,o),
(196,0,c)
);
}
);
width = 692;
}
);
},
{
color = 4;
export = 0;
glyphname = eth;
layers = (
{
layerId = "17A5F7C0-AED1-4270-89BA-BFDC1003B8A5";
shapes = (
{
closed = 1;
nodes = (
(145,0,l),
(614,0,l),
(614,647,l),
(667,647,l),
(667,710,l),
(614,710,l),
(614,770,l),
(532,770,l),
(532,710,l),
(382,710,l),
(382,647,l),
(532,647,l),
(532,580,l),
(145,580,ls),
(79.667,580,o),
(23,532.333,o),
(23,459,cs),
(23,121,ls),
(23,47.667,o),
(79.667,0,o),
(145,0,c)
);
},
{
closed = 1;
nodes = (
(122.333,82,o),
(106,91.667,o),
(106,121,cs),
(106,459,ls),
(106,488.333,o),
(122.333,498,o),
(145,498,cs),
(493,498,ls),
(519.667,498,o),
(532,475,o),
(532,459,cs),
(532,121,ls),
(532,105,o),
(519.667,82,o),
(493,82,cs),
(145,82,l)
);
}
);
width = 667;
},
{
layerId = "D465923C-ABAE-4975-85A4-08C1BC9DA335";
shapes = (
{
closed = 1;
nodes = (
(168,0,l),
(612,0,l),
(612,647,l),
(667,647,l),
(667,710,l),
(612,710,l),
(612,770,l),
(459,770,l),
(459,710,l),
(322,710,l),
(322,647,l),
(459,647,l),
(459,580,l),
(168,580,ls),
(76,580,o),
(23,513.667,o),
(23,435,cs),
(23,145,ls),
(23,53,o),
(89.333,0,o),
(168,0,c)
);
},
{
closed = 1;
nodes = (
(177,153,o),
(177,153,o),
(177,153,cs),
(177,427,l),
(177,427,o),
(177,427,o),
(177,427,cs),
(459,427,l),
(459,427,o),
(459,427,o),
(459,427,cs),
(459,153,l),
(459,153,o),
(459,153,o),
(459,153,cs),
(177,153,l)
);
}
);
width = 667;
}
);
unicode = 240;
},
{
color = 4;
export = 0;
glyphname = oslash;
layers = (
{
anchors = (
{
name = bottom;
pos = (345,0);
},
{
name = top;
pos = (345,580);
}
);
layerId = "17A5F7C0-AED1-4270-89BA-BFDC1003B8A5";
shapes = (
{
closed = 1;
nodes = (
(124,0,l),
(517,0,ls),
(585,0,o),
(639,54.333,o),
(639,121,cs),
(639,515,l),
(692,568,l),
(634,626,l),
(588,580,l),
(169,580,ls),
(102.333,580,o),
(48,525.667,o),
(48,459,cs),
(48,40,l),
(0,-8,l),
(0,-8,l),
(58,-66,l)
);
},
{
closed = 1;
nodes = (
(130,122,l),
(130,459,ls),
(130,480.333,o),
(147.667,498,o),
(169,498,cs),
(506,498,l),
(130,122,l)
);
},
{
closed = 1;
nodes = (
(206,82,l),
(556,432,l),
(556,121,ls),
(556,99.667,o),
(538.333,82,o),
(517,82,cs),
(206,82,l)
);
}
);
width = 692;
},
{
anchors = (
{
name = bottom;
pos = (342,-2);
},
{
name = top;
pos = (342,578);
}
);
layerId = "D465923C-ABAE-4975-85A4-08C1BC9DA335";
shapes = (
{
closed = 1;
nodes = (
(163,0,l),
(491,0,ls),
(583,0,o),
(636,53,o),
(636,145,cs),
(636,473,l),
(715,552,l),
(606,662,l),
(524,580,l),
(193,580,ls),
(101,580,o),
(48,527,o),
(48,435,cs),
(48,104,l),
(-36,20,l),
(-36,20,l),
(73,-90,l)
);
},
{
closed = 1;
nodes = (
(201,257,l),
(201,427,l),
(201,427,o),
(201,427,o),
(201,427,cs),
(371,427,l),
(201,257,l)
);
},
{
closed = 1;
nodes = (
(316,153,l),
(483,320,l),
(483,153,l),
(483,153,o),
(483,153,o),
(483,153,cs),
(316,153,l)
);
}
);
width = 692;
}
);
unicode = 248;
},
{
color = 4;
export = 0;
glyphname = thorn;
layers = (
{
layerId = "17A5F7C0-AED1-4270-89BA-BFDC1003B8A5";
shapes = (
{
closed = 1;
nodes = (
(136,-230,l),
(136,0,l),
(524,0,ls),
(590.667,0,o),
(645,54.333,o),
(645,121,cs),
(645,349,ls),
(645,415.667,o),
(590.667,470,o),
(524,470,cs),
(136,470,l),
(136,720,l),
(54,720,l),
(54,-230,l),
(54,-230,l)
);
},
{
closed = 1;
nodes = (
(154.109,82,o),
(136,100.104,o),
(136,121,cs),
(136,349,ls),
(136,370.333,o),
(154.667,388,o),
(176,388,cs),
(524,388,ls),
(545.333,388,o),
(563,370.333,o),
(563,349,cs),
(563,121,ls),
(563,100.104,o),
(544.896,82,o),
(524,82,cs),
(176,82,l)
);
}
);
width = 664;
},
{
layerId = "D465923C-ABAE-4975-85A4-08C1BC9DA335";
shapes = (
{
closed = 1;
nodes = (
(207,-230,l),
(207,0,l),
(497,0,ls),
(576.601,0,o),
(642,66.393,o),
(642,145,cs),
(642,365,ls),
(642,443.667,o),
(577,510,o),
(497,510,cs),
(212,510,l),
(212,720,l),
(54,720,l),
(54,-230,l),
(54,-230,l)
);
},
{
closed = 1;
nodes = (
(207,153,o),
(207,153,o),
(207,153,cs),
(207,357,l),
(207,357,o),
(207,357,o),
(207,357,cs),
(489,357,l),
(489,357,o),
(489,357,o),
(489,357,cs),
(489,153,l),
(489,153,o),
(489,153,o),
(489,153,cs),
(207,153,l)
);
}
);
width = 664;
}
);
unicode = 254;
},
{
color = 4;
glyphname = a.sc;
layers = (
{
layerId = "17A5F7C0-AED1-4270-89BA-BFDC1003B8A5";
shapes = (
{
closed = 1;
nodes = (
(135,0,l),
(135,160,l),
(593,160,l),
(593,0,l),
(675,0,l),
(675,459,ls),
(675,525.667,o),
(620.667,580,o),
(554,580,cs),
(174,580,ls),
(107.333,580,o),
(53,525.667,o),
(53,459,cs),
(53,0,l),
(53,0,l)
);
},
{
closed = 1;
nodes = (
(135,459,ls),
(135,479.896,o),
(153.104,498,o),
(174,498,cs),
(554,498,ls),
(574.896,498,o),
(593,479.896,o),
(593,459,cs),
(593,243,l),
(135,243,l),
(135,243,l)
);
}
);
width = 725;
},
{
layerId = "D465923C-ABAE-4975-85A4-08C1BC9DA335";
shapes = (
{
closed = 1;
nodes = (
(206,0,l),
(206,138,l),
(516,138,l),
(516,0,l),
(669,0,l),
(669,435,ls),
(669,513.607,o),
(603.601,580,o),
(524,580,cs),
(199,580,ls),
(119.399,580,o),
(53,513.607,o),
(53,435,cs),
(53,0,l),
(53,0,l)
);
},
{
closed = 1;
nodes = (
(206,427,l),
(206,427,o),
(206,427,o),
(206,427,cs),
(516,427,l),
(516,427,o),
(516,427,o),
(516,427,cs),
(516,291,l),
(206,291,l),
(206,291,l)
);
}
);
width = 725;
}
);
},
{
color = 4;
glyphname = b.sc;
layers = (
{
layerId = "17A5F7C0-AED1-4270-89BA-BFDC1003B8A5";
shapes = (
{
closed = 1;
nodes = (
(534,0,ls),
(600.667,0,o),
(655,54.333,o),
(655,121,cs),
(655,207,ls),
(655,240.831,o),
(640.213,268.109,o),
(611,314,c),
(617.965,329.92,o),
(624,348.095,o),
(624,367,cs),
(624,460,ls),
(624,526.667,o),
(569.661,581,o),
(502,581,cs),
(54,581,l),
(54,0,l),
(54,0,l)
);
},
{
closed = 1;
nodes = (
(154.104,82,o),
(136,100.104,o),
(136,121,cs),
(136,207,ls),
(136,227.896,o),
(154.104,246,o),
(175,246,cs),
(534,246,ls),
(554.896,246,o),
(573,227.896,o),
(573,207,cs),
(573,121,ls),
(573,100.104,o),
(554.896,82,o),
(534,82,cs),
(175,82,l)
);
},
{
closed = 1;
nodes = (
(154.104,328,o),
(136,346.104,o),
(136,367,cs),
(136,460,ls),
(136,480.896,o),
(154.104,499,o),
(175,499,cs),
(502,499,ls),
(522.896,499,o),
(541,480.896,o),
(541,460,cs),
(541,367,ls),
(541,346.104,o),
(522.896,328,o),
(502,328,cs),
(175,328,l)
);
}
);
width = 700;
},
{
layerId = "D465923C-ABAE-4975-85A4-08C1BC9DA335";
shapes = (
{
closed = 1;
nodes = (
(507,0,ls),
(585.607,0,o),
(652,66.393,o),
(652,145,cs),
(652,219,ls),
(652,253.825,o),
(639.896,286.124,o),
(619,311,c),
(622.98,324.931,o),
(624,339.084,o),
(624,356,cs),
(624,435,ls),
(624,514.603,o),
(558.601,581,o),
(479,581,cs),
(54,581,l),
(54,0,l),
(54,0,l)
);
},
{
closed = 1;
nodes = (
(207,153,o),
(207,153,o),
(207,153,cs),
(207,221,l),
(207,221,o),
(207,221,o),
(207,221,cs),
(499,221,l),
(499,221,o),
(499,221,o),
(499,221,cs),
(499,153,l),
(499,153,o),
(499,153,o),
(499,153,cs),
(207,153,l)
);
},
{
closed = 1;
nodes = (
(207,364,o),
(207,364,o),
(207,364,cs),
(207,438,l),
(207,438,o),
(207,438,o),
(207,438,cs),
(471,438,l),
(471,438,o),
(471,438,o),
(471,438,cs),
(471,364,l),
(471,364,o),
(471,364,o),
(471,364,cs),
(207,364,l)
);
}
);
width = 700;
}
);
},
{
color = 4;
glyphname = c.sc;
layers = (
{
layerId = "17A5F7C0-AED1-4270-89BA-BFDC1003B8A5";
shapes = (
{
closed = 1;
nodes = (
(172,0,l),
(640,0,l),
(640,82,l),
(172,82,ls),
(151.104,82,o),
(133,100.104,o),
(133,121,cs),
(133,460,ls),
(133,480.896,o),
(151.104,499,o),
(172,499,cs),
(640,499,l),
(640,581,l),
(172,581,ls),
(105.333,581,o),
(51,526.667,o),
(51,460,cs),
(51,121,ls),
(51,54.333,o),
(105.333,0,o),
(172,0,c)
);
}
);
width = 693;
},
{
layerId = "D465923C-ABAE-4975-85A4-08C1BC9DA335";
shapes = (
{
closed = 1;
nodes = (
(196,0,l),
(638,0,l),
(638,153,l),
(204,153,l),
(204,153,o),
(204,153,o),
(204,153,cs),
(204,428,l),
(204,428,o),
(204,428,o),
(204,428,cs),
(638,428,l),
(638,581,l),
(196,581,ls),
(116.399,581,o),
(51,514.603,o),
(51,435,cs),
(51,145,ls),
(51,66.393,o),
(116.399,0,o),
(196,0,c)
);
}
);
width = 693;
}
);
},
{
color = 4;
glyphname = d.sc;
layers = (
{
layerId = "17A5F7C0-AED1-4270-89BA-BFDC1003B8A5";
shapes = (
{
closed = 1;
nodes = (
(534,0,ls),
(600.667,0,o),
(655,54.333,o),
(655,121,cs),
(655,460,ls),
(655,526.667,o),
(600.667,581,o),
(534,581,cs),
(54,581,l),
(54,0,l),
(54,0,l)
);
},
{
closed = 1;
nodes = (
(154.104,82,o),
(136,100.104,o),
(136,121,cs),
(136,460,ls),
(136,480.896,o),
(154.104,499,o),
(175,499,cs),
(534,499,ls),
(554.896,499,o),
(573,480.896,o),
(573,460,cs),
(573,121,ls),
(573,100.104,o),
(554.896,82,o),
(534,82,cs),
(175,82,l)
);
}
);
width = 705;
},
{
layerId = "D465923C-ABAE-4975-85A4-08C1BC9DA335";
shapes = (
{
closed = 1;
nodes = (
(507,0,ls),
(585.607,0,o),
(652,66.393,o),
(652,145,cs),
(652,435,ls),
(652,514.603,o),
(585.607,581,o),
(507,581,cs),
(54,581,l),
(54,0,l),
(54,0,l)
);
},
{
closed = 1;
nodes = (
(207,153,o),
(207,153,o),
(207,153,cs),
(207,428,l),
(207,428,o),
(207,428,o),
(207,428,cs),
(499,428,l),
(499,428,o),
(499,428,o),
(499,428,cs),
(499,153,l),
(499,153,o),
(499,153,o),
(499,153,cs),
(207,153,l)
);
}
);
width = 705;
}
);
},
{
color = 4;
glyphname = e.sc;
layers = (
{
layerId = "17A5F7C0-AED1-4270-89BA-BFDC1003B8A5";
shapes = (
{
closed = 1;
nodes = (
(581,0,l),
(581,82,l),
(136,82,l),
(136,249,l),
(467,249,l),
(467,331,l),
(136,331,l),
(136,499,l),
(581,499,l),
(581,581,l),
(54,581,l),
(54,0,l),
(54,0,l)
);
}
);
width = 638;
},
{
layerId = "D465923C-ABAE-4975-85A4-08C1BC9DA335";
shapes = (
{
closed = 1;
nodes = (
(589,0,l),
(589,153,l),
(207,153,l),
(207,213,l),
(492,213,l),
(492,367,l),
(207,367,l),
(207,428,l),
(589,428,l),
(589,581,l),
(54,581,l),
(54,0,l),
(54,0,l)
);
}
);
width = 638;
}
);
},
{
color = 4;
glyphname = f.sc;
layers = (
{
layerId = "17A5F7C0-AED1-4270-89BA-BFDC1003B8A5";
shapes = (
{
closed = 1;
nodes = (
(136,0,l),
(136,249,l),
(467,249,l),
(467,331,l),
(136,331,l),
(136,499,l),
(581,499,l),
(581,581,l),
(54,581,l),
(54,0,l),
(54,0,l)
);
}
);
width = 591;
},
{
layerId = "D465923C-ABAE-4975-85A4-08C1BC9DA335";
shapes = (
{
closed = 1;
nodes = (
(207,0,l),
(207,213,l),
(492,213,l),
(492,367,l),
(207,367,l),
(207,428,l),
(589,428,l),
(589,581,l),
(54,581,l),
(54,0,l),
(54,0,l)
);
}
);
width = 591;
}
);
},
{
color = 4;
glyphname = g.sc;
layers = (
{
layerId = "17A5F7C0-AED1-4270-89BA-BFDC1003B8A5";
shapes = (
{
closed = 1;
nodes = (
(172,0,l),
(520,0,ls),
(587.661,0,o),
(642,54.333,o),
(642,121,cs),
(642,299,l),
(380,299,l),
(380,217,l),
(559,217,l),
(559,121,ls),
(559,100.104,o),
(541.891,82,o),
(520,82,cs),
(172,82,ls),
(151.104,82,o),
(133,100.104,o),
(133,121,cs),
(133,460,ls),
(133,480.896,o),
(151.104,499,o),
(172,499,cs),
(520,499,ls),
(541.891,499,o),
(559,480.896,o),
(559,460,cs),
(559,446,l),
(642,446,l),
(642,460,ls),
(642,526.667,o),
(587.661,581,o),
(520,581,cs),
(172,581,ls),
(105.333,581,o),
(51,526.667,o),
(51,460,cs),
(51,121,ls),
(51,54.333,o),
(105.333,0,o),
(172,0,c)
);
}
);
width = 690;
},
{
layerId = "D465923C-ABAE-4975-85A4-08C1BC9DA335";
shapes = (
{
closed = 1;
nodes = (
(196,0,l),
(494,0,ls),
(573.601,0,o),
(639,66.393,o),
(639,145,cs),
(639,339,l),
(342,339,l),
(342,196,l),
(486,196,l),
(486,153,l),
(486,153,o),
(486,153,o),
(486,153,cs),
(204,153,l),
(204,153,o),
(204,153,o),
(204,153,cs),
(204,428,l),
(204,428,o),
(204,428,o),
(204,428,cs),
(486,428,l),
(486,428,o),
(486,428,o),
(486,428,cs),
(486,402,l),
(639,402,l),
(639,435,ls),
(639,514.603,o),
(573.601,581,o),
(494,581,cs),
(196,581,ls),
(117.393,581,o),
(51,514.603,o),
(51,435,cs),
(51,145,ls),
(51,66.393,o),
(117.393,0,o),
(196,0,c)
);
}
);
width = 690;
}
);
},
{
color = 4;
glyphname = h.sc;
layers = (
{
layerId = "17A5F7C0-AED1-4270-89BA-BFDC1003B8A5";
shapes = (
{
closed = 1;
nodes = (
(136,0,l),
(136,249,l),
(580,249,l),
(580,0,l),
(662,0,l),
(662,580,l),
(580,580,l),
(580,331,l),
(136,331,l),
(136,580,l),
(54,580,l),
(54,0,l),
(54,0,l)
);
}
);
width = 715;
},
{
layerId = "D465923C-ABAE-4975-85A4-08C1BC9DA335";
shapes = (
{
closed = 1;
nodes = (
(209,0,l),
(209,213,l),
(507,213,l),
(507,0,l),
(661,0,l),
(661,580,l),
(507,580,l),
(507,367,l),
(209,367,l),
(209,580,l),
(56,580,l),
(56,0,l),
(56,0,l)
);
}
);
width = 717;
}
);
},
{
color = 4;
glyphname = i.sc;
layers = (
{
layerId = "17A5F7C0-AED1-4270-89BA-BFDC1003B8A5";
shapes = (
{
closed = 1;
nodes = (
(136,0,l),
(136,580,l),
(54,580,l),
(54,0,l),
(54,0,l)
);
}
);
width = 214;
},
{
layerId = "D465923C-ABAE-4975-85A4-08C1BC9DA335";
shapes = (
{
closed = 1;
nodes = (
(207,0,l),
(207,580,l),
(54,580,l),
(54,0,l),
(54,0,l)
);
}
);
width = 214;
}
);
},
{
color = 4;
glyphname = j.sc;
layers = (
{
layerId = "17A5F7C0-AED1-4270-89BA-BFDC1003B8A5";
shapes = (
{
closed = 1;
nodes = (
(126,0,l),
(485,0,ls),
(551.667,0,o),
(606,54.333,o),
(606,121,cs),
(606,580,l),
(524,580,l),
(524,121,ls),
(524,100.104,o),
(505.896,82,o),
(485,82,cs),
(126,82,ls),
(105.104,82,o),
(87,100.104,o),
(87,121,cs),
(87,169,l),
(5,169,l),
(5,121,ls),
(5,54.333,o),
(59.333,0,o),
(126,0,c)
);
}
);
width = 657;
},
{
layerId = "D465923C-ABAE-4975-85A4-08C1BC9DA335";
shapes = (
{
closed = 1;
nodes = (
(151,0,l),
(458,0,ls),
(537.601,0,o),
(603,66.393,o),
(603,145,cs),
(603,580,l),
(450,580,l),
(450,153,l),
(450,153,o),
(450,153,o),
(450,153,cs),
(158,153,l),
(158,153,o),
(158,153,o),
(158,153,cs),
(158,227,l),
(5,227,l),
(5,145,ls),
(5,66.393,o),
(71.399,0,o),
(151,0,c)
);
}
);
width = 657;
}
);
},
{
color = 4;
glyphname = k.sc;
layers = (
{
layerId = "17A5F7C0-AED1-4270-89BA-BFDC1003B8A5";
shapes = (
{
closed = 1;
nodes = (
(136,0,l),
(136,249,l),
(296,249,l),
(524,0,l),
(631,0,l),
(631,1,l),
(369,290,l),
(632,579,l),
(632,580,l),
(524,580,l),
(296,331,l),
(136,331,l),
(136,580,l),
(54,580,l),
(54,0,l),
(54,0,l)
);
}
);
width = 682;
},
{
layerId = "D465923C-ABAE-4975-85A4-08C1BC9DA335";
shapes = (
{
closed = 1;
nodes = (
(207,0,l),
(207,213,l),
(285,213,l),
(482,0,l),
(636,0,l),
(636,52,l),
(420,290,l),
(636,528,l),
(636,580,l),
(482,580,l),
(285,367,l),
(207,367,l),
(207,580,l),
(54,580,l),
(54,0,l),
(54,0,l)
);
}
);
width = 682;
}
);
},
{
color = 4;
glyphname = l.sc;
layers = (
{
layerId = "17A5F7C0-AED1-4270-89BA-BFDC1003B8A5";
shapes = (
{
closed = 1;
nodes = (
(655,0,l),
(655,82,l),
(136,82,l),
(136,580,l),
(54,580,l),
(54,0,l),
(54,0,l)
);
}
);
width = 659;
},
{
layerId = "D465923C-ABAE-4975-85A4-08C1BC9DA335";
shapes = (
{
closed = 1;
nodes = (
(652,0,l),
(652,153,l),
(207,153,l),
(207,580,l),
(54,580,l),
(54,0,l),
(54,0,l)
);
}
);
width = 659;
}
);
},
{
color = 4;
glyphname = m.sc;
layers = (
{
layerId = "17A5F7C0-AED1-4270-89BA-BFDC1003B8A5";
shapes = (
{
closed = 1;
nodes = (
(136,0,l),
(136,505,l),
(415,107,l),
(695,505,l),
(695,0,l),
(777,0,l),
(777,581,l),
(664,581,l),
(415,223,l),
(164,581,l),
(54,581,l),
(54,0,l),
(54,0,l)
);
}
);
width = 824;
},
{
layerId = "D465923C-ABAE-4975-85A4-08C1BC9DA335";
shapes = (
{
closed = 1;
nodes = (
(207,0,l),
(207,341,l),
(406,60,l),
(604,341,l),
(604,0,l),
(758,0,l),
(758,581,l),
(598,581,l),
(406,304,l),
(213,581,l),
(54,581,l),
(54,0,l),
(54,0,l)
);
}
);
width = 824;
}
);
},
{
color = 4;
glyphname = n.sc;
layers = (
{
layerId = "17A5F7C0-AED1-4270-89BA-BFDC1003B8A5";
shapes = (
{
closed = 1;
nodes = (
(136,0,l),
(136,489,l),
(544,0,l),
(655,0,l),
(655,580,l),
(573,580,l),
(573,92,l),
(165,580,l),
(54,580,l),
(54,0,l),
(54,0,l)
);
}
);
width = 709;
},
{
layerId = "D465923C-ABAE-4975-85A4-08C1BC9DA335";
shapes = (
{
closed = 1;
nodes = (
(207,0,l),
(207,344,l),
(493,0,l),
(652,0,l),
(652,580,l),
(499,580,l),
(499,238,l),
(212,580,l),
(54,580,l),
(54,0,l),
(54,0,l)
);
}
);
width = 708;
}
);
},
{
color = 4;
glyphname = o.sc;
layers = (
{
layerId = "17A5F7C0-AED1-4270-89BA-BFDC1003B8A5";
shapes = (
{
closed = 1;
nodes = (
(172,0,l),
(520,0,ls),
(587.661,0,o),
(642,54.333,o),
(642,121,cs),
(642,459,ls),
(642,525.667,o),
(587.661,580,o),
(520,580,cs),
(172,580,ls),
(105.333,580,o),
(51,525.667,o),
(51,459,cs),
(51,121,ls),
(51,54.333,o),
(105.333,0,o),
(172,0,c)
);
},
{
closed = 1;
nodes = (
(151.104,82,o),
(133,100.104,o),
(133,121,cs),
(133,459,ls),
(133,479.896,o),
(151.104,498,o),
(172,498,cs),
(520,498,ls),
(541.891,498,o),
(559,479.896,o),
(559,459,cs),
(559,121,ls),
(559,100.104,o),
(541.891,82,o),
(520,82,cs),
(172,82,l)
);
}
);
width = 692;
},
{
layerId = "D465923C-ABAE-4975-85A4-08C1BC9DA335";
shapes = (
{
closed = 1;
nodes = (
(196,0,l),
(494,0,ls),
(573.601,0,o),
(639,66.393,o),
(639,145,cs),
(639,435,ls),
(639,513.607,o),
(573.601,580,o),
(494,580,cs),
(196,580,ls),
(117.393,580,o),
(51,513.607,o),
(51,435,cs),
(51,145,ls),
(51,66.393,o),
(117.393,0,o),
(196,0,c)
);
},
{
closed = 1;
nodes = (
(204,153,o),
(204,153,o),
(204,153,cs),
(204,427,l),
(204,427,o),
(204,427,o),
(204,427,cs),
(486,427,l),
(486,427,o),
(486,427,o),
(486,427,cs),
(486,153,l),
(486,153,o),
(486,153,o),
(486,153,cs),
(204,153,l)
);
}
);
width = 692;
}
);
},
{
color = 4;
glyphname = p.sc;
layers = (
{
layerId = "17A5F7C0-AED1-4270-89BA-BFDC1003B8A5";
shapes = (
{
closed = 1;
nodes = (
(136,0,l),
(136,208,l),
(524,208,ls),
(590.667,208,o),
(645,263.667,o),
(645,329,cs),
(645,459,ls),
(645,524.333,o),
(590.667,580,o),
(524,580,cs),
(54,580,l),
(54,0,l),
(54,0,l)
);
},
{
closed = 1;
nodes = (
(154,290,o),
(136,308,o),
(136,329,cs),
(136,459,ls),
(136,479.896,o),
(154.109,498,o),
(176,498,cs),
(524,498,ls),
(544.896,498,o),
(563,479.896,o),
(563,459,cs),
(563,329,ls),
(563,308.104,o),
(544.896,290,o),
(524,290,cs),
(176,290,ls)
);
}
);
width = 660;
},
{
layerId = "D465923C-ABAE-4975-85A4-08C1BC9DA335";
shapes = (
{
closed = 1;
nodes = (
(207,0,l),
(207,177,l),
(497,178,ls),
(576.601,178,o),
(642,244.393,o),
(642,323,cs),
(642,435,ls),
(642,512.612,o),
(576.601,580,o),
(497,580,cs),
(54,580,l),
(54,0,l),
(54,0,l)
);
},
{
closed = 1;
nodes = (
(207,332,o),
(207,332,o),
(207,332,cs),
(207,427,l),
(207,427,o),
(207,427,o),
(207,427,cs),
(489,427,ls),
(489,427,o),
(489,427,o),
(489,427,c),
(489,332,l),
(489,332,o),
(489,332,o),
(489,332,cs),
(207,332,l)
);
}
);
width = 660;
}
);
},
{
color = 4;
glyphname = q.sc;
layers = (
{
layerId = "17A5F7C0-AED1-4270-89BA-BFDC1003B8A5";
shapes = (
{
closed = 1;
nodes = (
(737,0,l),
(737,82,l),
(605,82,l),
(498,0,l)
);
},
{
ref = o.sc;
}
);
width = 770;
},
{
layerId = "D465923C-ABAE-4975-85A4-08C1BC9DA335";
shapes = (
{
closed = 1;
nodes = (
(722,0,l),
(722,153,l),
(585,153,l),
(460,0,l)
);
},
{
ref = o.sc;
}
);
width = 770;
}
);
},
{
color = 4;
glyphname = r.sc;
layers = (
{
layerId = "17A5F7C0-AED1-4270-89BA-BFDC1003B8A5";
shapes = (
{
closed = 1;
nodes = (
(136,0,l),
(136,208,l),
(314,208,l),
(542,0,l),
(647,0,l),
(647,1,l),
(416,208,l),
(523,208,ls),
(591,208,o),
(644,262.333,o),
(644,329,cs),
(644,459,ls),
(644,525.667,o),
(591,580,o),
(523,580,cs),
(54,580,l),
(54,0,l),
(54,0,l)
);
},
{
closed = 1;
nodes = (
(153.667,290,o),
(136,307.667,o),
(136,329,cs),
(136,459,ls),
(136,480.333,o),
(153.667,498,o),
(175,498,cs),
(523,498,ls),
(544.333,498,o),
(562,480.333,o),
(562,459,cs),
(562,329,ls),
(562,307.667,o),
(544.333,290,o),
(523,290,cs),
(175,290,l)
);
}
);
width = 700;
},
{
layerId = "D465923C-ABAE-4975-85A4-08C1BC9DA335";
shapes = (
{
closed = 1;
nodes = (
(207,0,l),
(207,178,l),
(302,178,l),
(497,0,l),
(652,0,l),
(652,54,l),
(508,178,l),
(511,178,ls),
(584.632,184.965,o),
(643,249.368,o),
(643,323,cs),
(643,435,ls),
(643,512.612,o),
(576.601,580,o),
(497,580,cs),
(54,580,l),
(54,0,l),
(54,0,l)
);
},
{
closed = 1;
nodes = (
(207,332,o),
(207,332,o),
(207,332,cs),
(207,427,l),
(207,427,o),
(207,427,o),
(207,427,cs),
(489,427,l),
(489,427,o),
(489,427,o),
(489,427,cs),
(489,332,l),
(489,332,o),
(489,332,o),
(489,332,cs),
(207,332,l)
);
}
);
width = 700;
}
);
},
{
color = 4;
glyphname = s.sc;
layers = (
{
layerId = "17A5F7C0-AED1-4270-89BA-BFDC1003B8A5";
shapes = (
{
closed = 1;
nodes = (
(170,0,l),
(518,0,ls),
(585.661,0,o),
(640,54.333,o),
(640,121,cs),
(640,210,ls),
(640,276.667,o),
(585.661,331,o),
(518,331,cs),
(170,331,ls),
(149.104,331,o),
(131,349.104,o),
(131,370,cs),
(131,459,ls),
(131,479.896,o),
(149.104,498,o),
(170,498,cs),
(518,498,ls),
(538.896,498,o),
(557,479.896,o),
(557,459,cs),
(557,441,l),
(640,441,l),
(640,459,ls),
(640,525.667,o),
(585.661,580,o),
(518,580,cs),
(170,580,ls),
(103.333,580,o),
(49,525.667,o),
(49,459,cs),
(49,370,ls),
(49,303.333,o),
(103.333,249,o),
(170,249,cs),
(518,249,ls),
(538.896,249,o),
(557,230.896,o),
(557,210,cs),
(557,121,ls),
(557,100.104,o),
(538.896,82,o),
(518,82,cs),
(170,82,ls),
(149.104,82,o),
(131,100.104,o),
(131,121,cs),
(131,139,l),
(49,139,l),
(49,121,ls),
(49,54.333,o),
(103.333,0,o),
(170,0,c)
);
}
);
width = 687;
},
{
layerId = "D465923C-ABAE-4975-85A4-08C1BC9DA335";
shapes = (
{
closed = 1;
nodes = (
(194,0,l),
(492,0,ls),
(571.601,0,o),
(638,66.393,o),
(638,145,cs),
(638,222,ls),
(638,300.607,o),
(571.601,367,o),
(492,367,cs),
(202,367,l),
(202,367,o),
(202,367,o),
(202,367,cs),
(202,427,l),
(202,427,o),
(202,427,o),
(202,427,cs),
(484,427,l),
(484,427,o),
(484,427,o),
(484,427,cs),
(484,407,l),
(638,407,l),
(638,435,ls),
(638,513.607,o),
(571.601,580,o),
(492,580,cs),
(194,580,ls),
(115.393,580,o),
(49,513.607,o),
(49,435,cs),
(49,358,ls),
(49,279.393,o),
(115.393,213,o),
(194,213,cs),
(484,213,l),
(484,213,o),
(484,213,o),
(484,213,cs),
(484,153,l),
(484,153,o),
(484,153,o),
(484,153,cs),
(202,153,l),
(202,153,o),
(202,153,o),
(202,153,cs),
(202,173,l),
(49,173,l),
(49,145,ls),
(49,66.393,o),
(115.393,0,o),
(194,0,c)
);
}
);
width = 687;
}
);
},
{
color = 4;
glyphname = t.sc;
layers = (
{
layerId = "17A5F7C0-AED1-4270-89BA-BFDC1003B8A5";
shapes = (
{
closed = 1;
nodes = (
(364,0,l),
(364,498,l),
(623,498,l),
(623,580,l),
(22,580,l),
(22,498,l),
(282,498,l),
(282,0,l),
(282,0,l)
);
}
);
width = 644;
},
{
layerId = "D465923C-ABAE-4975-85A4-08C1BC9DA335";
shapes = (
{
closed = 1;
nodes = (
(397,0,l),
(397,427,l),
(620,427,l),
(620,580,l),
(22,580,l),
(22,427,l),
(243,427,l),
(243,0,l),
(243,0,l)
);
}
);
width = 644;
}
);
},
{
color = 4;
glyphname = u.sc;
layers = (
{
layerId = "17A5F7C0-AED1-4270-89BA-BFDC1003B8A5";
shapes = (
{
closed = 1;
nodes = (
(174,0,l),
(522,0,ls),
(589.661,0,o),
(644,54.333,o),
(644,121,cs),
(644,580,l),
(562,580,l),
(562,121,ls),
(562,100.104,o),
(543.891,82,o),
(522,82,cs),
(174,82,ls),
(153.104,82,o),
(135,100.104,o),
(135,121,cs),
(135,580,l),
(53,580,l),
(53,121,ls),
(53,54.333,o),
(107.333,0,o),
(174,0,c)
);
}
);
width = 695;
},
{
layerId = "D465923C-ABAE-4975-85A4-08C1BC9DA335";
shapes = (
{
closed = 1;
nodes = (
(198,0,l),
(496,0,ls),
(575.601,0,o),
(641,66.393,o),
(641,145,cs),
(641,580,l),
(488,580,l),
(488,153,l),
(488,153,o),
(488,153,o),
(488,153,cs),
(206,153,l),
(206,153,o),
(206,153,o),
(206,153,cs),
(206,580,l),
(53,580,l),
(53,145,ls),
(53,66.393,o),
(118.399,0,o),
(198,0,c)
);
}
);
width = 695;
}
);
},
{
color = 4;
glyphname = v.sc;
layers = (
{
layerId = "17A5F7C0-AED1-4270-89BA-BFDC1003B8A5";
shapes = (
{
closed = 1;
nodes = (
(442,0,l),
(768,580,l),
(672,580,l),
(395,81,l),
(118,580,l),
(21,580,l),
(348,0,l),
(348,0,l)
);
}
);
width = 801;
},
{
layerId = "D465923C-ABAE-4975-85A4-08C1BC9DA335";
shapes = (
{
closed = 1;
nodes = (
(477,0,l),
(799,580,l),
(625,580,l),
(411,194,l),
(197,580,l),
(21,580,l),
(346,0,l),
(346,0,l)
);
}
);
width = 801;
}
);
},
{
color = 4;
glyphname = w.sc;
layers = (
{
layerId = "17A5F7C0-AED1-4270-89BA-BFDC1003B8A5";
shapes = (
{
closed = 1;
nodes = (
(338,0,l),
(543,467,l),
(759,0,l),
(831,0,l),
(1052,580,l),
(964,580,l),
(796,150,l),
(593,580,l),
(493,580,l),
(301,149,l),
(122,580,l),
(34,580,l),
(266,0,l),
(266,0,l)
);
}
);
width = 1078;
},
{
layerId = "D465923C-ABAE-4975-85A4-08C1BC9DA335";
shapes = (
{
closed = 1;
nodes = (
(381,0,l),
(531,339,l),
(688,0,l),
(804,0,l),
(1028,580,l),
(864,580,l),
(744,275,l),
(600,580,l),
(460,580,l),
(325,276,l),
(196,580,l),
(34,580,l),
(266,0,l),
(266,0,l)
);
}
);
width = 1079;
}
);
},
{
color = 4;
glyphname = x.sc;
layers = (
{
layerId = "17A5F7C0-AED1-4270-89BA-BFDC1003B8A5";
shapes = (
{
closed = 1;
nodes = (
(154,0,l),
(342,233,l),
(531,0,l),
(639,0,l),
(639,1,l),
(396,296,l),
(638,579,l),
(638,580,l),
(530,580,l),
(342,361,l),
(154,580,l),
(46,580,l),
(46,579,l),
(288,296,l),
(46,1,l),
(46,0,l),
(46,0,l)
);
}
);
width = 692;
},
{
layerId = "D465923C-ABAE-4975-85A4-08C1BC9DA335";
shapes = (
{
closed = 1;
nodes = (
(203,0,l),
(345,175,l),
(487,0,l),
(644,0,l),
(644,50,l),
(444,296,l),
(644,530,l),
(644,580,l),
(487,580,l),
(345,412,l),
(203,580,l),
(46,580,l),
(46,530,l),
(244,296,l),
(46,50,l),
(46,0,l),
(46,0,l)
);
}
);
width = 692;
}
);
},
{
color = 4;
glyphname = y.sc;
layers = (
{
layerId = "17A5F7C0-AED1-4270-89BA-BFDC1003B8A5";
shapes = (
{
closed = 1;
nodes = (
(373,0,l),
(373,200,l),
(645,580,l),
(548,580,l),
(331,297,l),
(114,580,l),
(18,580,l),
(290,200,l),
(290,0,l),
(290,0,l)
);
}
);
width = 688;
},
{
layerId = "D465923C-ABAE-4975-85A4-08C1BC9DA335";
shapes = (
{
closed = 1;
nodes = (
(443,0,l),
(443,200,l),
(715,580,l),
(532,580,l),
(367,364,l),
(199,580,l),
(18,580,l),
(290,200,l),
(290,0,l),
(290,0,l)
);
}
);
width = 688;
}
);
},
{
color = 4;
glyphname = z.sc;
layers = (
{
layerId = "17A5F7C0-AED1-4270-89BA-BFDC1003B8A5";
shapes = (
{
closed = 1;
nodes = (
(645,0,l),
(645,82,l),
(144,82,l),
(645,468,l),
(645,580,l),
(54,580,l),
(54,498,l),
(555,498,l),
(54,112,l),
(54,0,l),
(54,0,l)
);
}
);
width = 698;
},
{
layerId = "D465923C-ABAE-4975-85A4-08C1BC9DA335";
shapes = (
{
closed = 1;
nodes = (
(642,0,l),
(642,153,l),
(293,153,l),
(642,423,l),
(642,580,l),
(54,580,l),
(54,427,l),
(403,427,l),
(54,157,l),
(54,0,l),
(54,0,l)
);
}
);
width = 698;
}
);
},
{
color = 4;
export = 0;
glyphname = ordfeminine;
layers = (
{
layerId = "17A5F7C0-AED1-4270-89BA-BFDC1003B8A5";
shapes = (
{
closed = 1;
nodes = (
(186,327,l),
(500,327,l),
(500,633,ls),
(500,677,o),
(463.333,713,o),
(418,713,cs),
(106,713,l),
(106,659,l),
(418,659,ls),
(432.667,659,o),
(444,646.333,o),
(444,633,cs),
(444,547,l),
(106,547,l),
(106,407,ls),
(106,363,o),
(142,327,o),
(186,327,c)
);
},
{
closed = 1;
nodes = (
(172.667,381,o),
(160,393.667,o),
(160,407,cs),
(160,493,l),
(444,493,l),
(444,381,l),
(186,381,l)
);
}
);
width = 500;
},
{
layerId = "D465923C-ABAE-4975-85A4-08C1BC9DA335";
shapes = (
{
closed = 1;
nodes = (
(224,360,l),
(500,360,l),
(500,630,ls),
(500,679.333,o),
(459.333,720,o),
(410,720,cs),
(134,720,l),
(134,625,l),
(405,625,l),
(405,625,o),
(405,625,o),
(405,625,cs),
(405,588,l),
(134,588,l),
(134,450,ls),
(134,400.667,o),
(174.667,360,o),
(224,360,c)
);
},
{
closed = 1;
nodes = (
(229,455,o),
(229,455,o),
(229,455,cs),
(229,505,l),
(405,505,l),
(405,455,l),
(229,455,l)
);
}
);
width = 500;
}
);
unicode = 170;
},
{
color = 4;
export = 0;
glyphname = ordmasculine;
layers = (
{
layerId = "17A5F7C0-AED1-4270-89BA-BFDC1003B8A5";
shapes = (
{
closed = 1;
nodes = (
(186,334,l),
(418,334,ls),
(463.333,334,o),
(500,370,o),
(500,414,cs),
(500,640,ls),
(500,684,o),
(463.333,720,o),
(418,720,cs),
(186,720,ls),
(142,720,o),
(106,684,o),
(106,640,cs),
(106,414,ls),
(106,370,o),
(142,334,o),
(186,334,c)
);
},
{
closed = 1;
nodes = (
(172.667,388,o),
(160,400.667,o),
(160,414,cs),
(160,640,ls),
(160,653.333,o),
(172.667,666,o),
(186,666,cs),
(418,666,ls),
(432.667,666,o),
(444,653.333,o),
(444,640,cs),
(444,414,ls),
(444,400.667,o),
(432.667,388,o),
(418,388,cs),
(186,388,l)
);
}
);
width = 500;
},
{
layerId = "D465923C-ABAE-4975-85A4-08C1BC9DA335";
shapes = (
{
closed = 1;
nodes = (
(224,360,l),
(410,360,ls),
(459.333,360,o),
(500,400.667,o),
(500,450,cs),
(500,630,ls),
(500,679.333,o),
(459.333,720,o),
(410,720,cs),
(224,720,ls),
(176,720,o),
(134,679.333,o),
(134,630,cs),
(134,450,ls),
(134,400.667,o),
(176,360,o),
(224,360,c)
);
},
{
closed = 1;
nodes = (
(229,455,o),
(229,455,o),
(229,455,cs),
(229,625,l),
(229,625,o),
(229,625,o),
(229,625,cs),
(405,625,l),
(405,625,o),
(405,625,o),
(405,625,cs),
(405,455,l),
(405,455,o),
(405,455,o),
(405,455,cs),
(229,455,l)
);
}
);
width = 500;
}
);
unicode = 186;
},
{
color = 4;
export = 0;
glyphname = mu;
layers = (
{
layerId = "17A5F7C0-AED1-4270-89BA-BFDC1003B8A5";
shapes = (
{
closed = 1;
nodes = (
(130,-250,l),
(130,0,l),
(517,0,ls),
(590.333,0,o),
(639,49,o),
(639,121,cs),
(639,580,l),
(557,580,l),
(557,121,ls),
(557,94.333,o),
(543.667,82,o),
(517,82,cs),
(169,82,ls),
(142.333,82,o),
(130,93,o),
(130,121,cs),
(130,580,l),
(48,580,l),
(48,-250,l),
(48,-250,l)
);
}
);
width = 695;
},
{
layerId = "D465923C-ABAE-4975-85A4-08C1BC9DA335";
shapes = (
{
closed = 1;
nodes = (
(201,-250,l),
(201,0,l),
(491,0,ls),
(569.667,0,o),
(636,53,o),
(636,145,cs),
(636,580,l),
(483,580,l),
(483,153,ls),
(483,153,o),
(483,153,o),
(483,153,cs),
(201,153,ls),
(201,153,o),
(201,153,o),
(201,153,cs),
(201,580,l),
(48,580,l),
(48,-250,l),
(48,-250,l)
);
}
);
width = 695;
}
);
unicode = 956;
},
{
color = 4;
glyphname = zero;
layers = (
{
layerId = "17A5F7C0-AED1-4270-89BA-BFDC1003B8A5";
shapes = (
{
closed = 1;
nodes = (
(178,0,l),
(663,0,ls),
(729.667,0,o),
(784,54.333,o),
(784,121,cs),
(784,598,ls),
(784,665.661,o),
(729.667,720,o),
(663,720,cs),
(178,720,ls),
(110.339,720,o),
(57,665.661,o),
(57,598,cs),
(57,121,ls),
(57,54.333,o),
(110.339,0,o),
(178,0,c)
);
},
{
closed = 1;
nodes = (
(702,538,l),
(702,121,ls),
(702,100.104,o),
(683.896,82,o),
(663,82,cs),
(149,82,l),
(149,82,l)
);
},
{
closed = 1;
nodes = (
(139,598,ls),
(139,618.896,o),
(157.104,637,o),
(178,637,cs),
(691,637,l),
(139,181,l),
(139,181,l)
);
}
);
width = 834;
},
{
layerId = "D465923C-ABAE-4975-85A4-08C1BC9DA335";
shapes = (
{
closed = 1;
nodes = (
(203,0,l),
(618,0,ls),
(698,0,o),
(764,76.333,o),
(764,155,cs),
(764,571,ls),
(764,651,o),
(698,720,o),
(618,720,cs),
(203,720,ls),
(123,720,o),
(57,651,o),
(57,571,cs),
(57,155,ls),
(57,76.333,o),
(123,0,o),
(203,0,c)
);
},
{
closed = 1;
nodes = (
(611,431,l),
(611,163,l),
(611,163,o),
(611,163,o),
(611,163,cs),
(292,163,l),
(292,163,l)
);
},
{
closed = 1;
nodes = (
(210,563,l),
(210,563,o),
(210,563,o),
(210,563,cs),
(529,563,l),
(210,295,l),
(210,295,l)
);
}
);
width = 834;
}
);
unicode = 48;
},
{
color = 4;
glyphname = one;
layers = (
{
layerId = "17A5F7C0-AED1-4270-89BA-BFDC1003B8A5";
shapes = (
{
closed = 1;
nodes = (
(302,0,l),
(302,720,l),
(190,720,l),
(1,495,l),
(108,495,l),
(219,628,l),
(219,0,l),
(219,0,l)
);
}
);
width = 391;
},
{
layerId = "D465923C-ABAE-4975-85A4-08C1BC9DA335";
shapes = (
{
closed = 1;
nodes = (
(390,0,l),
(390,720,l),
(231,720,l),
(1,446,l),
(204,446,l),
(237,487,l),
(237,0,l),
(237,0,l)
);
}
);
width = 391;
}
);
unicode = 49;
},
{
color = 4;
glyphname = two;
layers = (
{
layerId = "17A5F7C0-AED1-4270-89BA-BFDC1003B8A5";
shapes = (
{
closed = 1;
nodes = (
(784,0,l),
(784,82,l),
(178,82,ls),
(157.104,82,o),
(139,100.104,o),
(139,121,cs),
(139,270,ls),
(139,290.896,o),
(157.104,309,o),
(178,309,cs),
(663,309,ls),
(729.667,309,o),
(784,363.333,o),
(784,430,cs),
(784,599,ls),
(784,666.661,o),
(729.667,721,o),
(663,721,cs),
(178,721,ls),
(110.339,721,o),
(57,666.661,o),
(57,599,cs),
(57,571,l),
(139,571,l),
(139,599,ls),
(139,619.896,o),
(157.104,638,o),
(178,638,cs),
(663,638,ls),
(683.896,638,o),
(702,619.896,o),
(702,599,cs),
(702,430,ls),
(702,409.104,o),
(683.896,391,o),
(663,391,cs),
(178,391,ls),
(110.339,391,o),
(57,337.661,o),
(57,270,cs),
(57,0,l),
(57,0,l)
);
}
);
width = 830;
},
{
layerId = "D465923C-ABAE-4975-85A4-08C1BC9DA335";
shapes = (
{
closed = 1;
nodes = (
(764,0,l),
(764,153,l),
(210,153,l),
(210,153,o),
(210,153,o),
(210,153,cs),
(210,270,l),
(210,270,o),
(210,270,o),
(210,270,cs),
(618,270,ls),
(698,270,o),
(764,336,o),
(764,416,cs),
(764,575,ls),
(764,655,o),
(698,720,o),
(618,720,cs),
(203,720,ls),
(123,720,o),
(57,655,o),
(57,575,cs),
(57,509,l),
(210,509,l),
(210,567,l),
(210,567,o),
(210,567,o),
(210,567,cs),
(611,567,l),
(611,567,o),
(611,567,o),
(611,567,cs),
(611,424,l),
(611,424,o),
(611,424,o),
(611,424,cs),
(203,424,ls),
(123,424,o),
(57,359,o),
(57,279,cs),
(57,0,l),
(57,0,l)
);
}
);
width = 830;
}
);
unicode = 50;
},
{
color = 4;
glyphname = three;
layers = (
{
layerId = "17A5F7C0-AED1-4270-89BA-BFDC1003B8A5";
shapes = (
{
closed = 1;
nodes = (
(175,0,l),
(660,0,ls),
(726.667,0,o),
(781,54.333,o),
(781,121,cs),
(781,288,ls),
(781,322.825,o),
(770.333,364,o),
(737,396,c),
(743.965,410.925,o),
(749,429.095,o),
(749,448,cs),
(749,599,ls),
(749,666.661,o),
(695.661,721,o),
(628,721,cs),
(175,721,ls),
(107.339,721,o),
(53,666.661,o),
(53,599,cs),
(53,573,l),
(136,573,l),
(136,599,ls),
(136,619.896,o),
(154.104,638,o),
(175,638,cs),
(628,638,ls),
(648.896,638,o),
(667,619.896,o),
(667,599,cs),
(667,448,ls),
(667,427.104,o),
(648.896,409,o),
(628,409,cs),
(191,409,l),
(191,327,l),
(660,327,ls),
(680.896,327,o),
(699,308.896,o),
(699,288,cs),
(699,121,ls),
(699,100.104,o),
(680.896,82,o),
(660,82,cs),
(175,82,ls),
(154.104,82,o),
(136,100.104,o),
(136,121,cs),
(136,137,l),
(53,137,l),
(53,121,ls),
(53,54.333,o),
(107.339,0,o),
(175,0,c)
);
}
);
width = 826;
},
{
layerId = "D465923C-ABAE-4975-85A4-08C1BC9DA335";
shapes = (
{
closed = 1;
nodes = (
(199,0,l),
(615,0,ls),
(695,0,o),
(760,66.333,o),
(760,145,cs),
(760,294,ls),
(760,328.667,o),
(747,361,o),
(727,385,c),
(731,398.333,o),
(733,416.333,o),
(733,431,cs),
(733,575,ls),
(733,655,o),
(668,720,o),
(588,720,cs),
(199,720,ls),
(119,720,o),
(53,655,o),
(53,575,cs),
(53,511,l),
(206,511,l),
(206,567,l),
(206,567,o),
(206,567,o),
(206,567,cs),
(580,567,l),
(580,567,o),
(580,567,o),
(580,567,cs),
(580,439,l),
(580,439,o),
(580,439,o),
(580,439,cs),
(171,439,l),
(171,286,l),
(607,286,l),
(607,286,o),
(607,286,o),
(607,286,cs),
(607,153,l),
(607,153,o),
(607,153,o),
(607,153,cs),
(206,153,l),
(206,153,o),
(206,153,o),
(206,153,cs),
(206,201,l),
(53,201,l),
(53,145,ls),
(53,66.333,o),
(119,0,o),
(199,0,c)
);
}
);
width = 826;
}
);
unicode = 51;
},
{
color = 4;
glyphname = four;
layers = (
{
layerId = "17A5F7C0-AED1-4270-89BA-BFDC1003B8A5";
shapes = (
{
closed = 1;
nodes = (
(590,0,l),
(590,186,l),
(702,186,l),
(702,268,l),
(590,268,l),
(590,721,l),
(498,721,l),
(6,278,l),
(6,186,l),
(508,186,l),
(508,0,l),
(508,0,l)
);
},
{
closed = 1;
nodes = (
(508,610,l),
(508,268,l),
(111,268,l),
(111,268,l)
);
}
);
width = 730;
},
{
layerId = "D465923C-ABAE-4975-85A4-08C1BC9DA335";
shapes = (
{
closed = 1;
nodes = (
(590,0,l),
(590,179,l),
(686,179,l),
(686,333,l),
(590,333,l),
(590,720,l),
(453,720,l),
(6,316,l),
(6,179,l),
(437,179,l),
(437,0,l),
(437,0,l)
);
},
{
closed = 1;
nodes = (
(437,481,l),
(437,333,l),
(255,333,l),
(255,333,l)
);
}
);
width = 730;
}
);
unicode = 52;
},
{
color = 4;
glyphname = five;
layers = (
{
layerId = "17A5F7C0-AED1-4270-89BA-BFDC1003B8A5";
shapes = (
{
closed = 1;
nodes = (
(178,0,l),
(663,0,ls),
(729.667,0,o),
(784,54.333,o),
(784,121,cs),
(784,291,ls),
(784,358.661,o),
(729.667,412,o),
(663,412,cs),
(178,412,ls),
(157.104,412,o),
(139,430.109,o),
(139,452,cs),
(139,599,ls),
(139,619.896,o),
(157.104,638,o),
(178,638,cs),
(784,638,l),
(784,721,l),
(57,721,l),
(57,330,l),
(663,330,ls),
(683.896,330,o),
(702,311.896,o),
(702,291,cs),
(702,121,ls),
(702,100.104,o),
(683.896,82,o),
(663,82,cs),
(178,82,ls),
(157.104,82,o),
(139,100.104,o),
(139,121,cs),
(139,150,l),
(57,150,l),
(57,121,ls),
(57,54.333,o),
(110.339,0,o),
(178,0,c)
);
}
);
width = 830;
},
{
layerId = "D465923C-ABAE-4975-85A4-08C1BC9DA335";
shapes = (
{
closed = 1;
nodes = (
(203,0,l),
(618,0,ls),
(698,0,o),
(764,66.333,o),
(764,145,cs),
(764,297,ls),
(764,377,o),
(698,442,o),
(618,442,cs),
(210,442,l),
(210,442,o),
(210,442,o),
(210,442,cs),
(210,567,l),
(210,567,o),
(210,567,o),
(210,567,cs),
(764,567,l),
(764,720,l),
(57,720,l),
(57,288,l),
(611,288,l),
(611,288,o),
(611,288,o),
(611,288,cs),
(611,153,l),
(611,153,o),
(611,153,o),
(611,153,cs),
(210,153,l),
(210,153,o),
(210,153,o),
(210,153,cs),
(210,201,l),
(57,201,l),
(57,145,ls),
(57,66.333,o),
(123,0,o),
(203,0,c)
);
}
);
width = 830;
}
);
unicode = 53;
},
{
color = 4;
glyphname = six;
layers = (
{
layerId = "17A5F7C0-AED1-4270-89BA-BFDC1003B8A5";
shapes = (
{
closed = 1;
nodes = (
(178,0,l),
(663,0,ls),
(729.667,0,o),
(784,54.333,o),
(784,121,cs),
(784,294,ls),
(784,361.661,o),
(729.667,415,o),
(663,415,cs),
(178,415,ls),
(157.104,415,o),
(139,433.109,o),
(139,455,cs),
(139,599,ls),
(139,619.896,o),
(157.104,638,o),
(178,638,cs),
(658,638,l),
(658,721,l),
(178,721,ls),
(110.339,721,o),
(57,666.661,o),
(57,599,cs),
(57,121,ls),
(57,54.333,o),
(110.339,0,o),
(178,0,c)
);
},
{
closed = 1;
nodes = (
(157.104,82,o),
(139,100.104,o),
(139,121,cs),
(139,333,l),
(663,333,ls),
(683.896,333,o),
(702,314.896,o),
(702,294,cs),
(702,121,ls),
(702,100.104,o),
(683.896,82,o),
(663,82,cs),
(178,82,l)
);
}
);
width = 820;
},
{
layerId = "D465923C-ABAE-4975-85A4-08C1BC9DA335";
shapes = (
{
closed = 1;
nodes = (
(203,0,l),
(618,0,ls),
(698,0,o),
(764,66.333,o),
(764,145,cs),
(764,297,ls),
(764,377,o),
(698,442,o),
(618,442,cs),
(210,442,l),
(210,442,o),
(210,442,o),
(210,442,cs),
(210,567,l),
(210,567,o),
(210,567,o),
(210,567,cs),
(655,567,l),
(655,720,l),
(203,720,ls),
(123,720,o),
(57,655,o),
(57,575,cs),
(57,145,ls),
(57,66.333,o),
(123,0,o),
(203,0,c)
);
},
{
closed = 1;
nodes = (
(210,153,o),
(210,153,o),
(210,153,cs),
(210,288,l),
(611,288,l),
(611,288,o),
(611,288,o),
(611,288,cs),
(611,153,l),
(611,153,o),
(611,153,o),
(611,153,cs),
(210,153,l)
);
}
);
width = 820;
}
);
unicode = 54;
},
{
color = 4;
glyphname = seven;
layers = (
{
layerId = "17A5F7C0-AED1-4270-89BA-BFDC1003B8A5";
shapes = (
{
closed = 1;
nodes = (
(604,0,l),
(604,599,ls),
(604,667,o),
(549.667,721,o),
(483,721,cs),
(3,721,l),
(3,638,l),
(483,638,ls),
(504.333,638,o),
(522,620.333,o),
(522,599,cs),
(522,0,l),
(522,0,l)
);
}
);
width = 660;
},
{
layerId = "D465923C-ABAE-4975-85A4-08C1BC9DA335";
shapes = (
{
closed = 1;
nodes = (
(601,0,l),
(601,576,ls),
(601,656,o),
(536,721,o),
(456,721,cs),
(3,721,l),
(3,568,l),
(448,568,l),
(448,568,o),
(448,568,o),
(448,568,cs),
(448,0,l),
(448,0,l)
);
}
);
width = 660;
}
);
unicode = 55;
},
{
color = 4;
glyphname = eight;
layers = (
{
layerId = "17A5F7C0-AED1-4270-89BA-BFDC1003B8A5";
shapes = (
{
closed = 1;
nodes = (
(178,0,l),
(663,0,ls),
(729.667,0,o),
(784,54.333,o),
(784,121,cs),
(784,291,ls),
(784,317.865,o),
(772.905,346.124,o),
(754,371,c),
(772.905,396.871,o),
(784,425.135,o),
(784,452,cs),
(784,619,l),
(769.075,670.741,o),
(718.721,721,o),
(663,721,cs),
(178,721,ls),
(110.339,721,o),
(57,666.661,o),
(57,599,cs),
(57,452,ls),
(57,425.135,o),
(68.095,396.871,o),
(87,371,c),
(68.095,346.124,o),
(57,317.865,o),
(57,291,cs),
(57,121,ls),
(57,54.333,o),
(110.339,0,o),
(178,0,c)
);
},
{
closed = 1;
nodes = (
(157.104,82,o),
(139,100.104,o),
(139,121,cs),
(139,291,ls),
(139,311.896,o),
(157.104,330,o),
(178,330,cs),
(663,330,ls),
(683.896,330,o),
(702,311.896,o),
(702,291,cs),
(702,121,ls),
(702,100.104,o),
(683.896,82,o),
(663,82,cs),
(178,82,l),
(178,82,l)
);
},
{
closed = 1;
nodes = (
(157.104,401,o),
(139,419.104,o),
(139,440,cs),
(139,598,ls),
(139,618.896,o),
(157.104,637,o),
(178,637,cs),
(663,637,ls),
(683.896,637,o),
(702,618.896,o),
(702,598,cs),
(702,440,ls),
(702,419.104,o),
(683.896,401,o),
(663,401,cs),
(178,401,l),
(178,401,l)
);
}
);
width = 834;
},
{
layerId = "D465923C-ABAE-4975-85A4-08C1BC9DA335";
shapes = (
{
closed = 1;
nodes = (
(203,0,l),
(618,0,ls),
(698,0,o),
(764,66.333,o),
(764,145,cs),
(764,297,ls),
(764,321,o),
(759,343.667,o),
(747,365,c),
(757.667,386.333,o),
(764,412.667,o),
(764,434,cs),
(764,601,l),
(752,669,o),
(690,720,o),
(618,720,cs),
(203,720,ls),
(123,720,o),
(57,655,o),
(57,575,cs),
(57,434,ls),
(57,410,o),
(64.667,386.333,o),
(74,365,c),
(64.667,343.667,o),
(57,319.667,o),
(57,297,cs),
(57,145,ls),
(57,66.333,o),
(123,0,o),
(203,0,c)
);
},
{
closed = 1;
nodes = (
(210,153,o),
(210,153,o),
(210,153,cs),
(210,288,l),
(210,288,o),
(210,288,o),
(210,288,cs),
(611,288,l),
(611,288,o),
(611,288,o),
(611,288,cs),
(611,153,l),
(611,153,o),
(611,153,o),
(611,153,cs),
(210,153,l),
(210,153,l)
);
},
{
closed = 1;
nodes = (
(210,432,o),
(210,432,o),
(210,432,cs),
(210,566,l),
(210,566,o),
(210,566,o),
(210,566,cs),
(611,566,l),
(611,566,o),
(611,566,o),
(611,566,cs),
(611,432,l),
(611,432,o),
(611,432,o),
(611,432,cs),
(210,432,l),
(210,432,l)
);
}
);
width = 834;
}
);
unicode = 56;
},
{
color = 4;
glyphname = nine;
layers = (
{
layerId = "17A5F7C0-AED1-4270-89BA-BFDC1003B8A5";
shapes = (
{
closed = 1;
nodes = (
(173,0,l),
(658,0,ls),
(724.667,0,o),
(779,54.333,o),
(779,121,cs),
(779,599,ls),
(779,666.661,o),
(724.667,721,o),
(658,721,cs),
(173,721,ls),
(105.339,721,o),
(51,666.661,o),
(51,599,cs),
(51,426,ls),
(51,359.333,o),
(105.339,305,o),
(173,305,cs),
(658,305,ls),
(678.896,305,o),
(697,286.896,o),
(697,266,cs),
(697,121,ls),
(697,100.104,o),
(678.896,82,o),
(658,82,cs),
(58,82,l),
(73.92,34.239,o),
(120.264,0,o),
(173,0,c)
);
},
{
closed = 1;
nodes = (
(152.104,387,o),
(134,405.104,o),
(134,426,cs),
(134,599,ls),
(134,619.896,o),
(152.104,638,o),
(173,638,cs),
(658,638,ls),
(678.896,638,o),
(697,619.896,o),
(697,599,cs),
(697,387,l),
(173,387,l),
(173,387,l)
);
}
);
width = 828;
},
{
layerId = "D465923C-ABAE-4975-85A4-08C1BC9DA335";
shapes = (
{
closed = 1;
nodes = (
(200,0,l),
(616,0,ls),
(696,0,o),
(761,66.333,o),
(761,145,cs),
(761,575,ls),
(761,655,o),
(696,720,o),
(616,720,cs),
(200,720,ls),
(120,720,o),
(54,655,o),
(54,575,cs),
(54,427,ls),
(54,347,o),
(120,281,o),
(200,281,cs),
(608,281,l),
(608,281,o),
(608,281,o),
(608,281,cs),
(608,153,l),
(608,153,o),
(608,153,o),
(608,153,cs),
(51,153,l),
(65.667,67.667,o),
(128,0,o),
(200,0,c)
);
},
{
closed = 1;
nodes = (
(208,435,o),
(208,435,o),
(208,435,cs),
(208,567,l),
(208,567,o),
(208,567,o),
(208,567,cs),
(608,567,l),
(608,567,o),
(608,567,o),
(608,567,cs),
(608,435,l),
(208,435,l),
(208,435,l)
);
}
);
width = 828;
}
);
unicode = 57;
},
{
color = 4;
glyphname = two.alt;
layers = (
{
layerId = "17A5F7C0-AED1-4270-89BA-BFDC1003B8A5";
shapes = (
{
closed = 1;
nodes = (
(169,0,l),
(775,0,l),
(775,82,l),
(132,82,l),
(132,160,l),
(775,488,l),
(775,619,l),
(760.075,670.741,o),
(710.727,721,o),
(656,721,cs),
(171,721,ls),
(103.339,721,o),
(49,666.661,o),
(49,599,cs),
(49,557,l),
(132,557,l),
(132,599,ls),
(132,619.896,o),
(150.104,638,o),
(171,638,cs),
(693,638,l),
(693,538,l),
(49,211,l),
(50,95,l),
(62.935,43.259,o),
(112.284,0,o),
(169,0,c)
);
}
);
width = 815;
},
{
layerId = "D465923C-ABAE-4975-85A4-08C1BC9DA335";
shapes = (
{
closed = 1;
nodes = (
(193,0,l),
(755,0,l),
(755,153,l),
(203,153,l),
(203,154,l),
(755,453,l),
(755,600,l),
(743,668,o),
(682.641,719,o),
(611,719,cs),
(195,719,ls),
(115.399,719,o),
(49,653.601,o),
(49,574,cs),
(49,497,l),
(203,497,l),
(203,566,ls),
(203,566,o),
(203,566,o),
(203,566,c),
(601,566,l),
(601,546,l),
(49,247,l),
(50,113,l),
(65.92,49.319,o),
(124.343,0,o),
(193,0,c)
);
}
);
width = 815;
}
);
},
{
color = 4;
glyphname = four.alt;
layers = (
{
layerId = "17A5F7C0-AED1-4270-89BA-BFDC1003B8A5";
shapes = (
{
closed = 1;
nodes = (
(593,0,l),
(593,186,l),
(705,186,l),
(705,268,l),
(593,268,l),
(593,425,l),
(511,425,l),
(511,268,l),
(95,268,l),
(477,690,l),
(477,721,l),
(386,721,l),
(9,279,l),
(9,186,l),
(511,186,l),
(511,0,l),
(511,0,l)
);
}
);
width = 723;
},
{
layerId = "D465923C-ABAE-4975-85A4-08C1BC9DA335";
shapes = (
{
closed = 1;
nodes = (
(593,0,l),
(593,177,l),
(689,177,l),
(689,331,l),
(593,331,l),
(593,466,l),
(440,466,l),
(440,331,l),
(217,331,l),
(493,635,l),
(493,718,l),
(355,718,l),
(9,312,l),
(9,177,l),
(440,177,l),
(440,0,l),
(440,0,l)
);
}
);
width = 723;
}
);
},
{
color = 4;
glyphname = seven.alt;
layers = (
{
layerId = "17A5F7C0-AED1-4270-89BA-BFDC1003B8A5";
shapes = (
{
closed = 1;
nodes = (
(158,0,l),
(769,718,l),
(769,720,l),
(46,720,l),
(46,638,l),
(593,638,l),
(50,1,l),
(50,0,l),
(50,0,l)
);
}
);
width = 771;
},
{
layerId = "D465923C-ABAE-4975-85A4-08C1BC9DA335";
shapes = (
{
closed = 1;
nodes = (
(202,0,l),
(753,670,l),
(753,720,l),
(46,720,l),
(46,567,l),
(468,567,l),
(46,51,l),
(46,0,l),
(46,0,l)
);
}
);
width = 771;
}
);
},
{
color = 4;
glyphname = nine.alt;
layers = (
{
layerId = "17A5F7C0-AED1-4270-89BA-BFDC1003B8A5";
shapes = (
{
closed = 1;
nodes = (
(740,0,l),
(740,597,ls),
(740,664.661,o),
(685.667,719,o),
(619,719,cs),
(134,719,ls),
(66.339,719,o),
(12,664.661,o),
(12,597,cs),
(12,424,ls),
(12,357.333,o),
(66.339,303,o),
(134,303,cs),
(619,303,ls),
(639.896,303,o),
(658,284.896,o),
(658,264,cs),
(658,0,l),
(658,0,l)
);
},
{
closed = 1;
nodes = (
(113.104,385,o),
(95,403.104,o),
(95,424,cs),
(95,597,ls),
(95,617.896,o),
(113.104,636,o),
(134,636,cs),
(619,636,ls),
(639.896,636,o),
(658,617.896,o),
(658,597,cs),
(658,385,l),
(134,385,l),
(134,385,l)
);
}
);
width = 784;
},
{
layerId = "D465923C-ABAE-4975-85A4-08C1BC9DA335";
shapes = (
{
closed = 1;
nodes = (
(719,0,l),
(719,573,ls),
(719,652.601,o),
(653.601,719,o),
(574,719,cs),
(158,719,ls),
(78.399,719,o),
(12,652.601,o),
(12,573,cs),
(12,425,ls),
(12,345.397,o),
(78.399,280,o),
(158,280,cs),
(566,280,l),
(566,280,o),
(566,280,o),
(566,280,cs),
(566,0,l),
(566,0,l)
);
},
{
closed = 1;
nodes = (
(166,433,o),
(166,433,o),
(166,433,cs),
(166,565,l),
(166,565,o),
(166,565,o),
(166,565,cs),
(566,565,l),
(566,565,o),
(566,565,o),
(566,565,cs),
(566,433,l),
(166,433,l),
(166,433,l)
);
}
);
width = 784;
}
);
},
{
color = 4;
export = 0;
glyphname = onesuperior;
layers = (
{
layerId = "17A5F7C0-AED1-4270-89BA-BFDC1003B8A5";
shapes = (
{
closed = 1;
nodes = (
(182,325,l),
(182,737,l),
(118,737,l),
(10,608,l),
(71,608,l),
(134,684,l),
(134,325,l),
(134,325,l)
);
}
);
width = 232;
},
{
layerId = "D465923C-ABAE-4975-85A4-08C1BC9DA335";
shapes = (
{
closed = 1;
nodes = (
(233,325,l),
(233,737,l),
(142,737,l),
(10,580,l),
(126,580,l),
(145,604,l),
(145,325,l),
(145,325,l)
);
}
);
width = 263;
}
);
unicode = 185;
},
{
color = 4;
export = 0;
glyphname = twosuperior;
layers = (
{
layerId = "17A5F7C0-AED1-4270-89BA-BFDC1003B8A5";
shapes = (
{
closed = 1;
nodes = (
(435,325,l),
(435,371,l),
(89,371,ls),
(77,371,o),
(67,382,o),
(67,394,cs),
(67,479,ls),
(67,491,o),
(77,501,o),
(89,501,cs),
(366,501,ls),
(404.667,501,o),
(435,532.667,o),
(435,570,cs),
(435,667,ls),
(435,705.667,o),
(404.667,737,o),
(366,737,cs),
(89,737,ls),
(50.333,737,o),
(20,705.667,o),
(20,667,cs),
(20,651,l),
(67,651,l),
(67,667,ls),
(67,679,o),
(77,689,o),
(89,689,cs),
(366,689,ls),
(378,689,o),
(388,679,o),
(388,667,cs),
(388,570,ls),
(388,558,o),
(378,548,o),
(366,548,cs),
(89,548,ls),
(50.333,548,o),
(20,517.667,o),
(20,479,cs),
(20,325,l),
(20,325,l)
);
}
);
width = 455;
},
{
layerId = "D465923C-ABAE-4975-85A4-08C1BC9DA335";
shapes = (
{
closed = 1;
nodes = (
(424,325,l),
(424,413,l),
(107,413,l),
(107,413,o),
(107,413,o),
(107,413,cs),
(107,480,l),
(107,480,o),
(107,480,o),
(107,480,cs),
(340,480,ls),
(385.333,480,o),
(424,517.667,o),
(424,563,cs),
(424,654,ls),
(424,699.333,o),
(385.333,737,o),
(340,737,cs),
(103,737,ls),
(57.667,737,o),
(20,699.333,o),
(20,654,cs),
(20,616,l),
(107,616,l),
(107,649,l),
(107,649,o),
(107,649,o),
(107,649,cs),
(336,649,l),
(336,649,o),
(336,649,o),
(336,649,cs),
(336,568,l),
(336,568,o),
(336,568,o),
(336,568,cs),
(103,568,ls),
(57.667,568,o),
(20,530.333,o),
(20,485,cs),
(20,325,l),
(20,325,l)
);
}
);
width = 444;
}
);
unicode = 178;
},
{
color = 4;
export = 0;
glyphname = threesuperior;
layers = (
{
layerId = "17A5F7C0-AED1-4270-89BA-BFDC1003B8A5";
shapes = (
{
closed = 1;
nodes = (
(90,325,l),
(367,325,ls),
(404.333,325,o),
(436,355.333,o),
(436,394,cs),
(436,489,ls),
(436,509,o),
(429.667,532.333,o),
(411,551,c),
(415,559,o),
(418,569,o),
(418,581,cs),
(418,667,ls),
(418,705.667,o),
(387.667,737,o),
(349,737,cs),
(90,737,ls),
(51.333,737,o),
(20,705.667,o),
(20,667,cs),
(20,652,l),
(67,652,l),
(67,667,ls),
(67,679,o),
(78,689,o),
(90,689,cs),
(349,689,ls),
(361,689,o),
(371,679,o),
(371,667,cs),
(371,581,ls),
(371,569,o),
(361,558,o),
(349,558,cs),
(99,558,l),
(99,511,l),
(367,511,ls),
(379,511,o),
(389,501,o),
(389,489,cs),
(389,394,ls),
(389,382,o),
(379,371,o),
(367,371,cs),
(90,371,ls),
(78,371,o),
(67,382,o),
(67,394,cs),
(67,403,l),
(20,403,l),
(20,394,ls),
(20,355.333,o),
(51.333,325,o),
(90,325,c)
);
}
);
width = 456;
},
{
layerId = "D465923C-ABAE-4975-85A4-08C1BC9DA335";
shapes = (
{
closed = 1;
nodes = (
(103,325,l),
(341,325,ls),
(386.333,325,o),
(424,362.667,o),
(424,408,cs),
(424,493,ls),
(424,513,o),
(415.667,531.667,o),
(405,545,c),
(406.333,553,o),
(408,562.667,o),
(408,572,cs),
(408,654,ls),
(408,699.333,o),
(370.333,737,o),
(325,737,cs),
(103,737,ls),
(57.667,737,o),
(20,699.333,o),
(20,654,cs),
(20,617,l),
(107,617,l),
(107,649,l),
(107,649,o),
(107,649,o),
(107,649,cs),
(321,649,l),
(321,649,o),
(321,649,o),
(321,649,cs),
(321,576,l),
(321,576,o),
(321,576,o),
(321,576,cs),
(87,576,l),
(87,489,l),
(336,489,l),
(336,489,o),
(336,489,o),
(336,489,cs),
(336,413,l),
(336,413,o),
(336,413,o),
(336,413,cs),
(107,413,l),
(107,413,o),
(107,413,o),
(107,413,cs),
(107,440,l),
(20,440,l),
(20,408,ls),
(20,362.667,o),
(57.667,325,o),
(103,325,c)
);
}
);
width = 444;
}
);
unicode = 179;
},
{
color = 4;
export = 0;
glyphname = onehalf;
layers = (
{
layerId = "17A5F7C0-AED1-4270-89BA-BFDC1003B8A5";
shapes = (
{
closed = 1;
nodes = (
(108,0,l),
(504,720,l),
(463,720,l),
(66,0,l),
(66,0,l)
);
},
{
pos = (20,0);
ref = onesuperior;
},
{
pos = (330,-325);
ref = twosuperior;
}
);
width = 795;
},
{
layerId = "D465923C-ABAE-4975-85A4-08C1BC9DA335";
shapes = (
{
closed = 1;
nodes = (
(188,0,l),
(584,720,l),
(473,720,l),
(76,0,l),
(76,0,l)
);
},
{
pos = (-10,0);
ref = onesuperior;
},
{
pos = (390,-325);
ref = twosuperior;
}
);
width = 854;
}
);
unicode = 189;
},
{
color = 4;
export = 0;
glyphname = onequarter;
layers = (
{
layerId = "17A5F7C0-AED1-4270-89BA-BFDC1003B8A5";
shapes = (
{
closed = 1;
nodes = (
(108,0,l),
(504,720,l),
(463,720,l),
(66,0,l),
(66,0,l)
);
},
{
closed = 1;
nodes = (
(202,325,l),
(202,737,l),
(138,737,l),
(30,608,l),
(91,608,l),
(154,684,l),
(154,325,l),
(154,325,l)
);
},
{
closed = 1;
nodes = (
(589,0,l),
(589,106,l),
(653,106,l),
(653,153,l),
(589,153,l),
(589,412,l),
(536,412,l),
(255,158,l),
(255,106,l),
(542,106,l),
(542,0,l),
(542,0,l)
);
},
{
closed = 1;
nodes = (
(542,355,l),
(542,153,l),
(315,153,l),
(315,153,l)
);
}
);
width = 683;
},
{
layerId = "D465923C-ABAE-4975-85A4-08C1BC9DA335";
shapes = (
{
closed = 1;
nodes = (
(188,0,l),
(584,720,l),
(473,720,l),
(76,0,l),
(76,0,l)
);
},
{
closed = 1;
nodes = (
(223,325,l),
(223,737,l),
(132,737,l),
(0,580,l),
(116,580,l),
(135,604,l),
(135,325,l),
(135,325,l)
);
},
{
closed = 1;
nodes = (
(675,0,l),
(675,103,l),
(730,103,l),
(730,191,l),
(675,191,l),
(675,412,l),
(597,412,l),
(342,181,l),
(342,103,l),
(588,103,l),
(588,0,l),
(588,0,l)
);
},
{
closed = 1;
nodes = (
(588,275,l),
(588,191,l),
(484,191,l),
(484,191,l)
);
}
);
width = 683;
}
);
unicode = 188;
},
{
color = 4;
export = 0;
glyphname = threequarters;
layers = (
{
layerId = "17A5F7C0-AED1-4270-89BA-BFDC1003B8A5";
shapes = (
{
closed = 1;
nodes = (
(318,0,l),
(714,720,l),
(673,720,l),
(276,0,l),
(276,0,l)
);
},
{
closed = 1;
nodes = (
(799,0,l),
(799,106,l),
(863,106,l),
(863,153,l),
(799,153,l),
(799,412,l),
(746,412,l),
(465,158,l),
(465,106,l),
(752,106,l),
(752,0,l),
(752,0,l)
);
},
{
closed = 1;
nodes = (
(752,355,l),
(752,153,l),
(525,153,l),
(525,153,l)
);
},
{
pos = (10,0);
ref = threesuperior;
}
);
width = 893;
},
{
layerId = "D465923C-ABAE-4975-85A4-08C1BC9DA335";
shapes = (
{
closed = 1;
nodes = (
(363,0,l),
(759,720,l),
(648,720,l),
(251,0,l),
(251,0,l)
);
},
{
closed = 1;
nodes = (
(850,0,l),
(850,103,l),
(905,103,l),
(905,191,l),
(850,191,l),
(850,412,l),
(772,412,l),
(517,181,l),
(517,103,l),
(763,103,l),
(763,0,l),
(763,0,l)
);
},
{
closed = 1;
nodes = (
(763,275,l),
(763,191,l),
(659,191,l),
(659,191,l)
);
},
{
ref = threesuperior;
}
);
width = 925;
}
);
unicode = 190;
},
{
color = 4;
glyphname = period;
layers = (
{
layerId = "17A5F7C0-AED1-4270-89BA-BFDC1003B8A5";
shapes = (
{
closed = 1;
nodes = (
(136,0,l),
(136,82,l),
(54,82,l),
(54,0,l),
(54,0,l)
);
}
);
width = 214;
},
{
layerId = "D465923C-ABAE-4975-85A4-08C1BC9DA335";
shapes = (
{
closed = 1;
nodes = (
(207,0,l),
(207,153,l),
(54,153,l),
(54,0,l),
(54,0,l)
);
}
);
width = 233;
}
);
unicode = 46;
},
{
color = 4;
glyphname = comma;
layers = (
{
layerId = "17A5F7C0-AED1-4270-89BA-BFDC1003B8A5";
shapes = (
{
closed = 1;
nodes = (
(102,-115,o),
(136,-69.333,o),
(136,-16,cs),
(136,82,l),
(54,82,l),
(54,-131,l),
(54,-131,l)
);
}
);
width = 193;
},
{
layerId = "D465923C-ABAE-4975-85A4-08C1BC9DA335";
shapes = (
{
closed = 1;
nodes = (
(140.667,-118.333,o),
(207,-56,o),
(207,16,cs),
(207,142,l),
(54,142,l),
(54,-133,l),
(54,-133,l)
);
}
);
width = 243;
}
);
unicode = 44;
},
{
color = 4;
glyphname = colon;
layers = (
{
layerId = "17A5F7C0-AED1-4270-89BA-BFDC1003B8A5";
shapes = (
{
closed = 1;
nodes = (
(136,506,l),
(136,588,l),
(54,588,l),
(54,506,l),
(54,506,l)
);
},
{
closed = 1;
nodes = (
(136,0,l),
(136,82,l),
(54,82,l),
(54,0,l),
(54,0,l)
);
}
);
width = 214;
},
{
layerId = "D465923C-ABAE-4975-85A4-08C1BC9DA335";
shapes = (
{
closed = 1;
nodes = (
(207,426,l),
(207,580,l),
(54,580,l),
(54,426,l),
(54,426,l)
);
},
{
closed = 1;
nodes = (
(207,0,l),
(207,153,l),
(54,153,l),
(54,0,l),
(54,0,l)
);
}
);
width = 247;
}
);
unicode = 58;
},
{
color = 4;
glyphname = semicolon;
layers = (
{
layerId = "17A5F7C0-AED1-4270-89BA-BFDC1003B8A5";
shapes = (
{
closed = 1;
nodes = (
(99,-115,o),
(133,-69.333,o),
(133,-16,cs),
(133,82,l),
(51,82,l),
(51,-131,l),
(51,-131,l)
);
},
{
closed = 1;
nodes = (
(133,506,l),
(133,588,l),
(51,588,l),
(51,506,l),
(51,506,l)
);
}
);
width = 193;
},
{
layerId = "D465923C-ABAE-4975-85A4-08C1BC9DA335";
shapes = (
{
closed = 1;
nodes = (
(138.667,-118.333,o),
(205,-56,o),
(205,16,cs),
(205,142,l),
(52,142,l),
(52,-133,l),
(52,-133,l)
);
},
{
closed = 1;
nodes = (
(205,426,l),
(205,580,l),
(51,580,l),
(51,426,l),
(51,426,l)
);
}
);
width = 266;
}
);
unicode = 59;
},
{
color = 4;
glyphname = ellipsis;
layers = (
{
layerId = "17A5F7C0-AED1-4270-89BA-BFDC1003B8A5";
shapes = (
{
closed = 1;
nodes = (
(137,0,l),
(137,82,l),
(54,82,l),
(54,0,l),
(54,0,l)
);
},
{
closed = 1;
nodes = (
(326,0,l),
(326,82,l),
(244,82,l),
(244,0,l),
(244,0,l)
);
},
{
closed = 1;
nodes = (
(514,0,l),
(514,82,l),
(432,82,l),
(432,0,l),
(432,0,l)
);
}
);
width = 574;
},
{
layerId = "D465923C-ABAE-4975-85A4-08C1BC9DA335";
shapes = (
{
closed = 1;
nodes = (
(208,0,l),
(208,153,l),
(54,153,l),
(54,0,l),
(54,0,l)
);
},
{
closed = 1;
nodes = (
(400,0,l),
(400,153,l),
(246,153,l),
(246,0,l),
(246,0,l)
);
},
{
closed = 1;
nodes = (
(591,0,l),
(591,153,l),
(438,153,l),
(438,0,l),
(438,0,l)
);
}
);
width = 574;
}
);
unicode = 8230;
},
{
color = 4;
glyphname = exclam;
layers = (
{
layerId = "17A5F7C0-AED1-4270-89BA-BFDC1003B8A5";
shapes = (
{
closed = 1;
nodes = (
(140,203,l),
(140,720,l),
(58,720,l),
(58,203,l),
(58,203,l)
);
},
{
closed = 1;
nodes = (
(140,0,l),
(140,82,l),
(58,82,l),
(58,0,l),
(58,0,l)
);
}
);
width = 220;
},
{
layerId = "D465923C-ABAE-4975-85A4-08C1BC9DA335";
shapes = (
{
closed = 1;
nodes = (
(211,201,l),
(211,720,l),
(58,720,l),
(58,201,l),
(58,201,l)
);
},
{
closed = 1;
nodes = (
(211,0,l),
(211,153,l),
(58,153,l),
(58,0,l),
(58,0,l)
);
}
);
width = 220;
}
);
unicode = 33;
},
{
color = 4;
glyphname = exclamdown;
layers = (
{
layerId = "17A5F7C0-AED1-4270-89BA-BFDC1003B8A5";
shapes = (
{
closed = 1;
nodes = (
(135,0,l),
(135,517,l),
(53,517,l),
(53,0,l),
(53,0,l)
);
},
{
closed = 1;
nodes = (
(135,645,l),
(135,728,l),
(53,728,l),
(53,645,l),
(53,645,l)
);
}
);
width = 210;
},
{
layerId = "D465923C-ABAE-4975-85A4-08C1BC9DA335";
shapes = (
{
closed = 1;
nodes = (
(206,0,l),
(206,526,l),
(53,526,l),
(53,0,l),
(53,0,l)
);
},
{
closed = 1;
nodes = (
(206,553,l),
(206,706,l),
(53,706,l),
(53,553,l),
(53,553,l)
);
}
);
width = 210;
}
);
unicode = 161;
},
{
color = 4;
glyphname = question;
layers = (
{
layerId = "17A5F7C0-AED1-4270-89BA-BFDC1003B8A5";
shapes = (
{
closed = 1;
nodes = (
(235,201,l),
(235,243,ls),
(235,264.333,o),
(252.667,282,o),
(274,282,cs),
(548,282,ls),
(614.667,282,o),
(669,336.333,o),
(669,403,cs),
(669,597,ls),
(669,665,o),
(614.667,719,o),
(548,719,cs),
(31,720,l),
(31,636,l),
(548,636,ls),
(569.333,636,o),
(587,618.333,o),
(587,597,cs),
(587,403,ls),
(587,381.667,o),
(569.333,364,o),
(548,364,cs),
(274,364,ls),
(207.333,364,o),
(153,311,o),
(153,243,cs),
(153,201,l),
(153,201,l)
);
},
{
closed = 1;
nodes = (
(235,0,l),
(235,82,l),
(153,82,l),
(153,0,l),
(153,0,l)
);
}
);
width = 678;
},
{
layerId = "D465923C-ABAE-4975-85A4-08C1BC9DA335";
shapes = (
{
closed = 1;
nodes = (
(282,194,l),
(282,263,l),
(282,263,o),
(282,263,o),
(282,263,cs),
(507,263,ls),
(587,263,o),
(653,329,o),
(653,409,cs),
(653,575,ls),
(653,655,o),
(587,720,o),
(507,720,cs),
(31,720,l),
(31,567,l),
(500,567,l),
(500,567,o),
(500,567,o),
(500,567,cs),
(500,417,l),
(500,417,o),
(500,417,o),
(500,417,cs),
(273,417,ls),
(193,417,o),
(128,352,o),
(128,272,cs),
(128,194,l),
(128,194,l)
);
},
{
closed = 1;
nodes = (
(282,0,l),
(282,153,l),
(128,153,l),
(128,0,l),
(128,0,l)
);
}
);
width = 678;
}
);
unicode = 63;
},
{
color = 4;
glyphname = questiondown;
layers = (
{
layerId = "17A5F7C0-AED1-4270-89BA-BFDC1003B8A5";
shapes = (
{
closed = 1;
nodes = (
(140,0,l),
(656,0,l),
(655,82,l),
(140,82,ls),
(118.667,82,o),
(101,99.667,o),
(101,121,cs),
(101,315,ls),
(101,336.333,o),
(118.667,354,o),
(140,354,cs),
(413,354,ls),
(481,354,o),
(534,408,o),
(534,476,cs),
(534,524,l),
(452,524,l),
(452,476,ls),
(452,454.667,o),
(434.333,437,o),
(413,437,cs),
(140,437,ls),
(72,437,o),
(19,383,o),
(19,315,cs),
(19,121,ls),
(19,54.333,o),
(72,0,o),
(140,0,c)
);
},
{
closed = 1;
nodes = (
(534,645,l),
(534,728,l),
(452,728,l),
(452,645,l),
(452,645,l)
);
}
);
width = 675;
},
{
layerId = "D465923C-ABAE-4975-85A4-08C1BC9DA335";
shapes = (
{
closed = 1;
nodes = (
(165,0,l),
(642,0,l),
(642,153,l),
(172,153,l),
(172,153,o),
(172,153,o),
(172,153,cs),
(172,303,l),
(172,303,o),
(172,303,o),
(172,303,cs),
(398,303,ls),
(478,303,o),
(544,369,o),
(544,449,cs),
(544,532,l),
(391,532,l),
(391,457,l),
(391,457,o),
(391,457,o),
(391,457,cs),
(165,457,ls),
(85,457,o),
(19,392,o),
(19,312,cs),
(19,145,ls),
(19,66.333,o),
(85,0,o),
(165,0,c)
);
},
{
closed = 1;
nodes = (
(544,553,l),
(544,706,l),
(391,706,l),
(391,553,l),
(391,553,l)
);
}
);
width = 675;
}
);
unicode = 191;
},
{
color = 4;
glyphname = bullet;
layers = (
{
layerId = "17A5F7C0-AED1-4270-89BA-BFDC1003B8A5";
shapes = (
{
closed = 1;
nodes = (
(172,325,l),
(197,325,ls),
(215.905,325,o),
(226,335.089,o),
(226,353,cs),
(226,374,ls),
(226,391.911,o),
(215.905,403,o),
(197,403,cs),
(172,403,ls),
(155.084,403,o),
(144,391.911,o),
(144,374,cs),
(144,353,ls),
(144,335.089,o),
(155.084,325,o),
(172,325,c)
);
}
);
width = 371;
},
{
layerId = "D465923C-ABAE-4975-85A4-08C1BC9DA335";
shapes = (
{
closed = 1;
nodes = (
(174,279,l),
(195,279,ls),
(238.781,279,o),
(262,301.213,o),
(262,344,cs),
(262,362,ls),
(262,404.787,o),
(238.781,428,o),
(195,428,cs),
(174,428,ls),
(131.213,428,o),
(108,404.787,o),
(108,362,cs),
(108,344,ls),
(108,301.213,o),
(131.213,279,o),
(174,279,c)
);
}
);
width = 371;
}
);
unicode = 8226;
},
{
color = 4;
glyphname = asterisk;
layers = (
{
layerId = "17A5F7C0-AED1-4270-89BA-BFDC1003B8A5";
shapes = (
{
closed = 1;
nodes = (
(237,438,l),
(328,315,l),
(394,363,l),
(304,488,l),
(450,535,l),
(423,614,l),
(278,566,l),
(278,719,l),
(196,719,l),
(196,565,l),
(49,614,l),
(25,535,l),
(170,488,l),
(80,362,l),
(147,315,l),
(147,315,l)
);
}
);
width = 491;
},
{
layerId = "D465923C-ABAE-4975-85A4-08C1BC9DA335";
shapes = (
{
closed = 1;
nodes = (
(257,354,l),
(328,261,l),
(451,351,l),
(382,444,l),
(492,479,l),
(445,627,l),
(335,590,l),
(335,706,l),
(181,706,l),
(181,590,l),
(72,627,l),
(25,479,l),
(135,444,l),
(66,351,l),
(191,261,l),
(191,261,l)
);
}
);
width = 516;
}
);
unicode = 42;
},
{
color = 4;
glyphname = numbersign;
layers = (
{
layerId = "17A5F7C0-AED1-4270-89BA-BFDC1003B8A5";
shapes = (
{
closed = 1;
nodes = (
(161,0,l),
(214,171,l),
(474,171,l),
(420,0,l),
(502,0,l),
(555,171,l),
(740,171,l),
(740,253,l),
(581,253,l),
(652,473,l),
(773,473,l),
(773,555,l),
(677,555,l),
(734,719,l),
(653,719,l),
(597,555,l),
(336,555,l),
(393,719,l),
(312,719,l),
(256,555,l),
(64,555,l),
(64,473,l),
(230,473,l),
(159,253,l),
(32,253,l),
(32,171,l),
(133,171,l),
(79,0,l),
(79,0,l)
);
},
{
closed = 1;
nodes = (
(311,473,l),
(571,473,l),
(500,253,l),
(241,253,l),
(241,253,l)
);
}
);
width = 797;
},
{
layerId = "D465923C-ABAE-4975-85A4-08C1BC9DA335";
shapes = (
{
closed = 1;
nodes = (
(215,0,l),
(259,158,l),
(399,158,l),
(351,0,l),
(506,0,l),
(551,158,l),
(722,158,l),
(722,311,l),
(601,311,l),
(635,417,l),
(750,417,l),
(750,570,l),
(683,570,l),
(734,720,l),
(577,720,l),
(529,570,l),
(391,570,l),
(442,720,l),
(284,720,l),
(236,570,l),
(60,570,l),
(60,417,l),
(187,417,l),
(153,311,l),
(32,311,l),
(32,158,l),
(107,158,l),
(60,0,l),
(60,0,l)
);
},
{
closed = 1;
nodes = (
(343,417,l),
(479,417,l),
(445,311,l),
(309,311,l),
(309,311,l)
);
}
);
width = 797;
}
);
unicode = 35;
},
{
color = 4;
glyphname = slash;
layers = (
{
layerId = "17A5F7C0-AED1-4270-89BA-BFDC1003B8A5";
shapes = (
{
closed = 1;
nodes = (
(14,10,l),
(512,616,l),
(512,720,l),
(505,712,l),
(6,106,l),
(6,0,l),
(6,0,l)
);
}
);
width = 521;
},
{
layerId = "D465923C-ABAE-4975-85A4-08C1BC9DA335";
shapes = (
{
closed = 1;
nodes = (
(61,0,l),
(522,566,l),
(522,720,l),
(467,720,l),
(6,155,l),
(6,0,l),
(6,0,l)
);
}
);
width = 521;
}
);
unicode = 47;
},
{
color = 4;
glyphname = backslash;
layers = (
{
layerId = "17A5F7C0-AED1-4270-89BA-BFDC1003B8A5";
shapes = (
{
closed = 1;
nodes = (
(512,0,l),
(511,107,l),
(11,720,l),
(5,720,l),
(5,621,l),
(508,0,l),
(508,0,l)
);
}
);
width = 520;
},
{
layerId = "D465923C-ABAE-4975-85A4-08C1BC9DA335";
shapes = (
{
closed = 1;
nodes = (
(521,0,l),
(521,154,l),
(60,720,l),
(5,720,l),
(5,566,l),
(466,0,l),
(466,0,l)
);
}
);
width = 520;
}
);
unicode = 92;
},
{
color = 4;
glyphname = question.alt;
layers = (
{
layerId = "17A5F7C0-AED1-4270-89BA-BFDC1003B8A5";
shapes = (
{
closed = 1;
nodes = (
(287,151,l),
(287,244,ls),
(287,264.896,o),
(304.109,283,o),
(326,283,cs),
(526,283,ls),
(592.667,283,o),
(647,337.333,o),
(647,404,cs),
(647,598,ls),
(647,665.661,o),
(592.667,720,o),
(526,720,cs),
(146,720,ls),
(90.279,720,o),
(40.931,670.741,o),
(27,619,c),
(27,523,l),
(109,523,l),
(109,637,l),
(526,637,ls),
(546.896,637,o),
(565,618.896,o),
(565,598,cs),
(565,404,ls),
(565,383.104,o),
(546.896,365,o),
(526,365,cs),
(326,365,ls),
(258.339,365,o),
(204,311.661,o),
(204,244,cs),
(204,151,l),
(204,151,l)
);
},
{
closed = 1;
nodes = (
(287,0,l),
(287,82,l),
(204,82,l),
(204,0,l),
(204,0,l)
);
}
);
width = 667;
},
{
layerId = "D465923C-ABAE-4975-85A4-08C1BC9DA335";
shapes = (
{
closed = 1;
nodes = (
(332,190,l),
(332,263,l),
(332,263,o),
(332,263,o),
(332,263,cs),
(496,263,ls),
(574.607,263,o),
(641,329.397,o),
(641,409,cs),
(641,575,ls),
(641,654.601,o),
(574.607,720,o),
(496,720,cs),
(170,720,ls),
(97.363,720,o),
(36.951,666.661,o),
(27,599,c),
(27,469,l),
(180,469,l),
(180,567,l),
(488,567,l),
(488,567,o),
(488,567,o),
(488,567,cs),
(488,417,l),
(488,417,o),
(488,417,o),
(488,417,cs),
(323,417,ls),
(244.393,417,o),
(178,351.603,o),
(178,272,cs),
(178,190,l),
(178,190,l)
);
},
{
closed = 1;
nodes = (
(332,0,l),
(332,153,l),
(178,153,l),
(178,0,l),
(178,0,l)
);
}
);
width = 667;
}
);
},
{
color = 4;
export = 0;
glyphname = periodcentered;
layers = (
{
layerId = "17A5F7C0-AED1-4270-89BA-BFDC1003B8A5";
shapes = (
{
closed = 1;
nodes = (
(226,255,l),
(226,337,l),
(144,337,l),
(144,255,l),
(144,255,l)
);
}
);
width = 371;
},
{
layerId = "D465923C-ABAE-4975-85A4-08C1BC9DA335";
shapes = (
{
closed = 1;
nodes = (
(262,260,l),
(262,413,l),
(108,413,l),
(108,260,l),
(108,260,l)
);
}
);
width = 371;
}
);
unicode = 183;
},
{
color = 4;
glyphname = parenleft;
layers = (
{
layerId = "17A5F7C0-AED1-4270-89BA-BFDC1003B8A5";
shapes = (
{
closed = 1;
nodes = (
(173,0,l),
(202,0,l),
(202,82,l),
(173,82,ls),
(151.667,82,o),
(134,100.104,o),
(134,121,cs),
(134,598,ls),
(134,618.896,o),
(152.104,637,o),
(173,637,cs),
(202,637,l),
(202,720,l),
(173,720,ls),
(106.333,720,o),
(52,665.661,o),
(52,598,cs),
(52,121,ls),
(52,54.333,o),
(106.333,0,o),
(173,0,c)
);
}
);
width = 277;
},
{
layerId = "D465923C-ABAE-4975-85A4-08C1BC9DA335";
shapes = (
{
closed = 1;
nodes = (
(197,0,l),
(263,0,l),
(263,153,l),
(205,153,l),
(205,153,o),
(205,153,o),
(205,153,cs),
(205,567,l),
(205,567,o),
(205,567,o),
(205,567,cs),
(263,567,l),
(263,720,l),
(197,720,ls),
(117.399,720,o),
(52,654.601,o),
(52,575,cs),
(52,145,ls),
(52,66.393,o),
(117.399,0,o),
(197,0,c)
);
}
);
width = 294;
}
);
unicode = 40;
},
{
color = 4;
glyphname = parenright;
layers = (
{
layerId = "17A5F7C0-AED1-4270-89BA-BFDC1003B8A5";
shapes = (
{
closed = 1;
nodes = (
(84,0,ls),
(150.667,0,o),
(206,54.333,o),
(206,121,cs),
(206,598,ls),
(206,665.661,o),
(150.667,720,o),
(84,720,cs),
(56,720,l),
(56,637,l),
(84,637,ls),
(105.891,637,o),
(123,618.896,o),
(123,598,cs),
(123,121,ls),
(123,100.104,o),
(105.891,82,o),
(84,82,cs),
(56,82,l),
(56,0,l),
(56,0,l)
);
}
);
width = 278;
},
{
layerId = "D465923C-ABAE-4975-85A4-08C1BC9DA335";
shapes = (
{
closed = 1;
nodes = (
(123,0,ls),
(201.607,0,o),
(268,66.393,o),
(268,145,cs),
(268,575,ls),
(268,654.601,o),
(201.607,720,o),
(123,720,cs),
(56,720,l),
(56,567,l),
(114,567,l),
(114,567,o),
(114,567,o),
(114,567,cs),
(114,153,l),
(114,153,o),
(114,153,o),
(114,153,cs),
(56,153,l),
(56,0,l),
(56,0,l)
);
}
);
width = 297;
}
);
unicode = 41;
},
{
color = 4;
glyphname = braceleft;
layers = (
{
layerId = "17A5F7C0-AED1-4270-89BA-BFDC1003B8A5";
shapes = (
{
closed = 1;
nodes = (
(191,0,l),
(220,0,l),
(220,82,l),
(191,82,ls),
(170.104,82,o),
(152,100.104,o),
(152,121,cs),
(152,291,l),
(68,360,l),
(152,427,l),
(152,598,ls),
(152,618.896,o),
(170.104,637,o),
(191,637,cs),
(220,637,l),
(220,720,l),
(191,720,ls),
(124.333,720,o),
(70,665.661,o),
(70,598,cs),
(70,434,l),
(23,409,l),
(23,313,l),
(70,284,l),
(70,121,ls),
(70,54.333,o),
(124.333,0,o),
(191,0,c)
);
}
);
width = 289;
},
{
layerId = "D465923C-ABAE-4975-85A4-08C1BC9DA335";
shapes = (
{
closed = 1;
nodes = (
(209,0,l),
(274,0,l),
(274,153,l),
(216,153,l),
(216,153,o),
(216,153,o),
(216,153,cs),
(216,331,l),
(171,368,l),
(216,406,l),
(216,567,l),
(216,567,o),
(216,567,o),
(216,567,cs),
(274,567,l),
(274,720,l),
(209,720,ls),
(129,720,o),
(63,655,o),
(63,575,cs),
(63,456,l),
(23,434,l),
(23,303,l),
(63,280,l),
(63,145,ls),
(63,66.333,o),
(129,0,o),
(209,0,c)
);
}
);
width = 289;
}
);
unicode = 123;
},
{
color = 4;
glyphname = braceright;
layers = (
{
layerId = "17A5F7C0-AED1-4270-89BA-BFDC1003B8A5";
shapes = (
{
closed = 1;
nodes = (
(80,0,ls),
(146.667,0,o),
(201,54.333,o),
(201,121,cs),
(201,283,l),
(247,312,l),
(247,407,l),
(201,434,l),
(201,598,ls),
(201,665.661,o),
(146.667,720,o),
(80,720,cs),
(51,720,l),
(51,637,l),
(80,637,ls),
(100.896,637,o),
(119,618.896,o),
(119,598,cs),
(119,425,l),
(203,359,l),
(119,290,l),
(119,121,ls),
(119,100.104,o),
(100.896,82,o),
(80,82,cs),
(51,82,l),
(51,0,l),
(51,0,l)
);
}
);
width = 289;
},
{
layerId = "D465923C-ABAE-4975-85A4-08C1BC9DA335";
shapes = (
{
closed = 1;
nodes = (
(116,0,ls),
(196,0,o),
(262,66.333,o),
(262,145,cs),
(262,280,l),
(302,305,l),
(302,433,l),
(262,457,l),
(262,575,ls),
(262,655,o),
(196,720,o),
(116,720,cs),
(51,720,l),
(51,567,l),
(109,567,l),
(109,567,o),
(109,567,o),
(109,567,cs),
(109,406,l),
(154,368,l),
(109,330,l),
(109,153,l),
(109,153,o),
(109,153,o),
(109,153,cs),
(51,153,l),
(51,0,l),
(51,0,l)
);
}
);
width = 289;
}
);
unicode = 125;
},
{
color = 4;
glyphname = bracketleft;
layers = (
{
layerId = "17A5F7C0-AED1-4270-89BA-BFDC1003B8A5";
shapes = (
{
closed = 1;
nodes = (
(204,0,l),
(204,82,l),
(136,82,l),
(136,638,l),
(204,638,l),
(204,721,l),
(54,721,l),
(54,0,l),
(54,0,l)
);
}
);
width = 275;
},
{
layerId = "D465923C-ABAE-4975-85A4-08C1BC9DA335";
shapes = (
{
closed = 1;
nodes = (
(265,0,l),
(265,153,l),
(207,153,l),
(207,567,l),
(265,567,l),
(265,720,l),
(54,720,l),
(54,0,l),
(54,0,l)
);
}
);
width = 275;
}
);
unicode = 91;
},
{
color = 4;
glyphname = bracketright;
layers = (
{
layerId = "17A5F7C0-AED1-4270-89BA-BFDC1003B8A5";
shapes = (
{
closed = 1;
nodes = (
(201,0,l),
(201,721,l),
(51,721,l),
(51,638,l),
(118,638,l),
(118,82,l),
(51,82,l),
(51,0,l),
(51,0,l)
);
}
);
width = 276;
},
{
layerId = "D465923C-ABAE-4975-85A4-08C1BC9DA335";
shapes = (
{
closed = 1;
nodes = (
(262,0,l),
(262,720,l),
(51,720,l),
(51,567,l),
(108,567,l),
(108,153,l),
(51,153,l),
(51,0,l),
(51,0,l)
);
}
);
width = 276;
}
);
unicode = 93;
},
{
color = 4;
glyphname = hyphen;
layers = (
{
layerId = "17A5F7C0-AED1-4270-89BA-BFDC1003B8A5";
shapes = (
{
closed = 1;
nodes = (
(449,255,l),
(449,337,l),
(59,337,l),
(59,255,l),
(59,255,l)
);
}
);
width = 517;
},
{
layerId = "D465923C-ABAE-4975-85A4-08C1BC9DA335";
shapes = (
{
closed = 1;
nodes = (
(476,219,l),
(476,372,l),
(59,372,l),
(59,219,l),
(59,219,l)
);
}
);
width = 517;
}
);
unicode = 45;
},
{
color = 4;
glyphname = endash;
layers = (
{
layerId = "17A5F7C0-AED1-4270-89BA-BFDC1003B8A5";
shapes = (
{
closed = 1;
nodes = (
(655,254,l),
(655,336,l),
(54,336,l),
(54,254,l),
(54,254,l)
);
}
);
width = 708;
},
{
layerId = "D465923C-ABAE-4975-85A4-08C1BC9DA335";
shapes = (
{
closed = 1;
nodes = (
(652,218,l),
(652,371,l),
(54,371,l),
(54,218,l),
(54,218,l)
);
}
);
width = 708;
}
);
unicode = 8211;
},
{
color = 4;
glyphname = emdash;
layers = (
{
layerId = "17A5F7C0-AED1-4270-89BA-BFDC1003B8A5";
shapes = (
{
closed = 1;
nodes = (
(775,254,l),
(775,336,l),
(54,336,l),
(54,254,l),
(54,254,l)
);
}
);
width = 822;
},
{
layerId = "D465923C-ABAE-4975-85A4-08C1BC9DA335";
shapes = (
{
closed = 1;
nodes = (
(756,218,l),
(756,371,l),
(54,371,l),
(54,218,l),
(54,218,l)
);
}
);
width = 822;
}
);
unicode = 8212;
},
{
color = 4;
glyphname = underscore;
layers = (
{
layerId = "17A5F7C0-AED1-4270-89BA-BFDC1003B8A5";
shapes = (
{
closed = 1;
nodes = (
(782,-82,l),
(782,0,l),
(54,0,l),
(54,-82,l),
(54,-82,l)
);
}
);
width = 828;
},
{
layerId = "D465923C-ABAE-4975-85A4-08C1BC9DA335";
shapes = (
{
closed = 1;
nodes = (
(761,-155,l),
(761,-2,l),
(54,-2,l),
(54,-155,l),
(54,-155,l)
);
}
);
width = 828;
}
);
unicode = 95;
},
{
color = 4;
glyphname = quotedblleft;
layers = (
{
layerId = "17A5F7C0-AED1-4270-89BA-BFDC1003B8A5";
shapes = (
{
closed = 1;
nodes = (
(130,502,l),
(130,715,l),
(81.244,700.075,o),
(47,653.732,o),
(47,600,cs),
(47,502,l),
(47,502,l)
);
},
{
closed = 1;
nodes = (
(310,502,l),
(310,715,l),
(261.244,700.075,o),
(228,653.732,o),
(228,600,cs),
(228,502,l),
(228,502,l)
);
}
);
width = 363;
},
{
layerId = "D465923C-ABAE-4975-85A4-08C1BC9DA335";
shapes = (
{
closed = 1;
nodes = (
(198,438,l),
(198,713,l),
(111.333,699.667,o),
(45,637.333,o),
(45,564,cs),
(45,438,l),
(45,438,l)
);
},
{
closed = 1;
nodes = (
(413,437,l),
(413,712,l),
(327.667,698.667,o),
(260,636.333,o),
(260,563,cs),
(260,437,l),
(260,437,l)
);
}
);
width = 466;
}
);
unicode = 8220;
},
{
color = 4;
glyphname = quotedblright;
layers = (
{
layerId = "17A5F7C0-AED1-4270-89BA-BFDC1003B8A5";
shapes = (
{
closed = 1;
nodes = (
(102.756,522.925,o),
(137,569.268,o),
(137,623,cs),
(137,721,l),
(54,721,l),
(54,508,l),
(54,508,l)
);
},
{
closed = 1;
nodes = (
(282.761,522.925,o),
(317,569.268,o),
(317,623,cs),
(317,721,l),
(235,721,l),
(235,508,l),
(235,508,l)
);
}
);
width = 363;
},
{
layerId = "D465923C-ABAE-4975-85A4-08C1BC9DA335";
shapes = (
{
closed = 1;
nodes = (
(140.667,446.667,o),
(208,509,o),
(208,581,cs),
(208,706,l),
(54,706,l),
(54,432,l),
(54,432,l)
);
},
{
closed = 1;
nodes = (
(355.667,446.667,o),
(422,509,o),
(422,581,cs),
(422,706,l),
(269,706,l),
(269,432,l),
(269,432,l)
);
}
);
width = 466;
}
);
unicode = 8221;
},
{
color = 4;
glyphname = quoteleft;
layers = (
{
layerId = "17A5F7C0-AED1-4270-89BA-BFDC1003B8A5";
shapes = (
{
closed = 1;
nodes = (
(116,503,l),
(116,716,l),
(67.244,701.075,o),
(33,654.732,o),
(33,601,cs),
(33,503,l),
(33,503,l)
);
}
);
width = 168;
},
{
layerId = "D465923C-ABAE-4975-85A4-08C1BC9DA335";
shapes = (
{
closed = 1;
nodes = (
(187,437,l),
(187,712,l),
(100.433,698.069,o),
(34,636.632,o),
(34,563,cs),
(34,437,l),
(34,437,l)
);
}
);
width = 240;
}
);
unicode = 8216;
},
{
color = 4;
glyphname = quoteright;
layers = (
{
layerId = "17A5F7C0-AED1-4270-89BA-BFDC1003B8A5";
shapes = (
{
closed = 1;
nodes = (
(101.761,522.925,o),
(136,569.268,o),
(136,623,cs),
(136,721,l),
(54,721,l),
(54,508,l),
(54,508,l)
);
}
);
width = 166;
},
{
layerId = "D465923C-ABAE-4975-85A4-08C1BC9DA335";
shapes = (
{
closed = 1;
nodes = (
(140.567,446.925,o),
(207,508.363,o),
(207,581,cs),
(207,706,l),
(54,706,l),
(54,432,l),
(54,432,l)
);
}
);
width = 238;
}
);
unicode = 8217;
},
{
color = 4;
glyphname = quotedbl;
layers = (
{
layerId = "17A5F7C0-AED1-4270-89BA-BFDC1003B8A5";
shapes = (
{
closed = 1;
nodes = (
(296,580,l),
(296,720,l),
(214,720,l),
(214,580,l),
(214,580,l)
);
},
{
closed = 1;
nodes = (
(141,580,l),
(141,720,l),
(59,720,l),
(59,580,l),
(59,580,l)
);
}
);
width = 372;
},
{
layerId = "D465923C-ABAE-4975-85A4-08C1BC9DA335";
shapes = (
{
closed = 1;
nodes = (
(369,505,l),
(369,706,l),
(217,706,l),
(217,505,l),
(217,505,l)
);
},
{
closed = 1;
nodes = (
(188,505,l),
(188,706,l),
(36,706,l),
(36,505,l),
(36,505,l)
);
}
);
width = 396;
}
);
unicode = 34;
},
{
color = 4;
glyphname = quotesingle;
layers = (
{
layerId = "17A5F7C0-AED1-4270-89BA-BFDC1003B8A5";
shapes = (
{
closed = 1;
nodes = (
(141,580,l),
(141,720,l),
(59,720,l),
(59,580,l),
(59,580,l)
);
}
);
width = 224;
},
{
layerId = "D465923C-ABAE-4975-85A4-08C1BC9DA335";
shapes = (
{
closed = 1;
nodes = (
(212,504,l),
(212,706,l),
(59,706,l),
(59,504,l),
(59,504,l)
);
}
);
width = 251;
}
);
unicode = 39;
},
{
color = 4;
export = 0;
glyphname = guillemetleft;
layers = (
{
layerId = "17A5F7C0-AED1-4270-89BA-BFDC1003B8A5";
shapes = (
{
closed = 1;
nodes = (
(421,179,l),
(320,380,l),
(420,580,l),
(320,580,l),
(220,380,l),
(321,179,l),
(321,179,l)
);
},
{
closed = 1;
nodes = (
(221,179,l),
(120,380,l),
(220,580,l),
(120,580,l),
(20,380,l),
(121,179,l),
(121,179,l)
);
}
);
width = 471;
},
{
layerId = "D465923C-ABAE-4975-85A4-08C1BC9DA335";
shapes = (
{
closed = 1;
nodes = (
(473,179,l),
(372,380,l),
(472,580,l),
(312,580,l),
(212,380,l),
(313,179,l),
(313,179,l)
);
},
{
closed = 1;
nodes = (
(273,179,l),
(172,380,l),
(272,580,l),
(112,580,l),
(12,380,l),
(113,179,l),
(113,179,l)
);
}
);
width = 500;
}
);
unicode = 171;
},
{
color = 4;
export = 0;
glyphname = guillemetright;
layers = (
{
layerId = "17A5F7C0-AED1-4270-89BA-BFDC1003B8A5";
shapes = (
{
closed = 1;
nodes = (
(351,179,l),
(451,379,l),
(350,580,l),
(250,580,l),
(351,379,l),
(251,179,l),
(251,179,l)
);
},
{
closed = 1;
nodes = (
(151,179,l),
(251,379,l),
(150,580,l),
(50,580,l),
(151,379,l),
(51,179,l),
(51,179,l)
);
}
);
width = 471;
},
{
layerId = "D465923C-ABAE-4975-85A4-08C1BC9DA335";
shapes = (
{
closed = 1;
nodes = (
(381,179,l),
(481,379,l),
(380,580,l),
(220,580,l),
(321,379,l),
(221,179,l),
(221,179,l)
);
},
{
closed = 1;
nodes = (
(181,179,l),
(281,379,l),
(180,580,l),
(20,580,l),
(121,379,l),
(21,179,l),
(21,179,l)
);
}
);
width = 500;
}
);
unicode = 187;
},
{
color = 4;
glyphname = .notdef;
layers = (
{
layerId = "17A5F7C0-AED1-4270-89BA-BFDC1003B8A5";
shapes = (
{
closed = 1;
nodes = (
(480,720,l),
(20,720,l),
(20,1,l),
(480,0,l),
(480,0,l)
);
},
{
closed = 1;
nodes = (
(40,21,l),
(40,700,l),
(460,700,l),
(460,20,l),
(460,20,l)
);
}
);
width = 500;
},
{
layerId = "D465923C-ABAE-4975-85A4-08C1BC9DA335";
shapes = (
{
closed = 1;
nodes = (
(480,720,l),
(20,720,l),
(20,1,l),
(480,0,l),
(480,0,l)
);
},
{
closed = 1;
nodes = (
(60,40,l),
(60,680,l),
(440,680,l),
(440,40,l),
(440,40,l)
);
}
);
width = 500;
}
);
},
{
color = 4;
glyphname = Euro;
layers = (
{
layerId = "17A5F7C0-AED1-4270-89BA-BFDC1003B8A5";
shapes = (
{
closed = 1;
nodes = (
(262,0,l),
(761,0,l),
(761,82,l),
(262,82,ls),
(241.104,82,o),
(223,100.104,o),
(223,121,cs),
(223,230,l),
(647,230,l),
(647,312,l),
(223,312,l),
(223,415,l),
(647,415,l),
(647,498,l),
(223,498,l),
(223,599,ls),
(223,619.896,o),
(241.104,638,o),
(262,638,cs),
(761,638,l),
(761,721,l),
(262,721,ls),
(194.339,721,o),
(140,666.661,o),
(140,599,cs),
(140,498,l),
(35,498,l),
(35,415,l),
(140,415,l),
(140,312,l),
(35,312,l),
(35,230,l),
(140,230,l),
(140,121,ls),
(140,54.333,o),
(194.339,0,o),
(262,0,c)
);
}
);
width = 799;
},
{
layerId = "D465923C-ABAE-4975-85A4-08C1BC9DA335";
shapes = (
{
closed = 1;
nodes = (
(270,0,l),
(739,0,l),
(739,153,l),
(278,153,l),
(278,153,o),
(278,153,o),
(278,153,cs),
(278,187,l),
(641,187,l),
(641,340,l),
(278,340,l),
(278,375,l),
(641,375,l),
(641,528,l),
(278,528,l),
(278,567,l),
(278,567,o),
(278,567,o),
(278,567,cs),
(739,567,l),
(739,720,l),
(270,720,ls),
(190.399,720,o),
(125,654.601,o),
(125,575,cs),
(125,528,l),
(35,528,l),
(35,375,l),
(125,375,l),
(125,340,l),
(35,340,l),
(35,187,l),
(125,187,l),
(125,145,ls),
(125,66.393,o),
(190.399,0,o),
(270,0,c)
);
}
);
width = 799;
}
);
unicode = 8364;
},
{
color = 4;
glyphname = cent;
layers = (
{
layerId = "17A5F7C0-AED1-4270-89BA-BFDC1003B8A5";
shapes = (
{
closed = 1;
nodes = (
(369,-115,l),
(369,0,l),
(621,0,l),
(621,82,l),
(369,82,l),
(369,508,l),
(621,508,l),
(621,591,l),
(369,591,l),
(369,726,l),
(287,726,l),
(287,591,l),
(154,591,ls),
(86.339,591,o),
(33,536.661,o),
(33,469,cs),
(33,121,ls),
(33,54.333,o),
(86.339,0,o),
(154,0,cs),
(287,0,l),
(287,-115,l),
(287,-115,l)
);
},
{
closed = 1;
nodes = (
(133.104,82,o),
(115,100.104,o),
(115,121,cs),
(115,469,ls),
(115,489.896,o),
(133.104,508,o),
(154,508,cs),
(287,508,l),
(287,82,l),
(154,82,l)
);
}
);
width = 636;
},
{
layerId = "D465923C-ABAE-4975-85A4-08C1BC9DA335";
shapes = (
{
closed = 1;
nodes = (
(445,-99,l),
(445,0,l),
(621,0,l),
(621,153,l),
(445,153,l),
(445,435,l),
(621,435,l),
(621,590,l),
(445,590,l),
(445,705,l),
(291,705,l),
(291,590,l),
(179,590,ls),
(99.399,590,o),
(33,523.603,o),
(33,444,cs),
(33,145,ls),
(33,66.393,o),
(99.399,0,o),
(179,0,cs),
(291,0,l),
(291,-99,l),
(291,-99,l)
);
},
{
closed = 1;
nodes = (
(186,153,o),
(186,153,o),
(186,153,cs),
(186,435,l),
(186,435,o),
(186,435,o),
(186,435,cs),
(291,435,l),
(291,153,l),
(186,153,l)
);
}
);
width = 636;
}
);
unicode = 162;
},
{
color = 4;
glyphname = dollar;
layers = (
{
layerId = "17A5F7C0-AED1-4270-89BA-BFDC1003B8A5";
shapes = (
{
closed = 1;
nodes = (
(439,-114,l),
(439,0,l),
(642,0,ls),
(708.667,0,o),
(762,53.333,o),
(762,120,cs),
(762,281,ls),
(762,347.667,o),
(706.667,402,o),
(640,402,cs),
(439,402,l),
(439,639,l),
(640,639,ls),
(661.333,639,o),
(679,620.333,o),
(679,599,cs),
(679,572,l),
(760,572,l),
(761,600,ls),
(763.667,666.667,o),
(706.667,720,o),
(640,720,cs),
(439,720,l),
(439,835,l),
(357,835,l),
(357,720,l),
(154,720,ls),
(87.333,720,o),
(34,666.667,o),
(34,600,cs),
(34,439,ls),
(34,373.667,o),
(87.333,319,o),
(154,319,cs),
(357,319,l),
(357,81,l),
(154,81,ls),
(132.667,81,o),
(115,98.667,o),
(115,120,cs),
(115,148,l),
(34,148,l),
(34,120,ls),
(34,53.333,o),
(87.333,0,o),
(154,0,cs),
(357,0,l),
(357,-114,l),
(357,-114,l)
);
},
{
closed = 1;
nodes = (
(132.667,401,o),
(115,417.667,o),
(115,439,cs),
(115,600,ls),
(115,621.333,o),
(132.667,639,o),
(154,639,cs),
(357,639,l),
(357,401,l),
(154,401,l)
);
},
{
closed = 1;
nodes = (
(439,320,l),
(640,320,ls),
(660,320,o),
(679,302.333,o),
(679,281,cs),
(679,121,ls),
(679,99.667,o),
(661,82,o),
(641,82,cs),
(439,81,l),
(439,81,l)
);
}
);
width = 788;
},
{
layerId = "D465923C-ABAE-4975-85A4-08C1BC9DA335";
shapes = (
{
closed = 1;
nodes = (
(464,-98,l),
(464,0,l),
(592,0,ls),
(676,0,o),
(740,66.667,o),
(740,148,cs),
(740,290,ls),
(740,366,o),
(677.333,433,o),
(592,433,cs),
(464,433,l),
(464,567,l),
(587,567,l),
(587,567,o),
(587,567,o),
(587,567,cs),
(587,508,l),
(740,508,l),
(740,572,ls),
(740,656,o),
(677.333,720,o),
(592,720,cs),
(464,720,l),
(464,818,l),
(311,818,l),
(311,720,l),
(182,720,ls),
(96.667,720,o),
(34,656,o),
(34,572,cs),
(34,430,ls),
(34,343.333,o),
(98,280,o),
(182,280,cs),
(310,280,l),
(310,153,l),
(187,153,l),
(187,153,o),
(187,153,o),
(187,153,cs),
(187,211,l),
(34,211,l),
(34,148,ls),
(34,65.333,o),
(96.667,0,o),
(182,0,cs),
(311,0,l),
(311,-98,l),
(311,-98,l)
);
},
{
closed = 1;
nodes = (
(187,433,o),
(187,433,o),
(187,433,cs),
(187,567,l),
(187,567,o),
(187,567,o),
(187,567,cs),
(310,567,l),
(310,433,l),
(187,433,l)
);
},
{
closed = 1;
nodes = (
(464,280,l),
(587,280,l),
(587,280,o),
(587,280,o),
(587,280,cs),
(587,153,l),
(587,153,o),
(587,153,o),
(587,153,cs),
(464,153,l),
(464,153,l)
);
}
);
width = 788;
}
);
unicode = 36;
},
{
color = 4;
glyphname = sterling;
layers = (
{
layerId = "17A5F7C0-AED1-4270-89BA-BFDC1003B8A5";
shapes = (
{
closed = 1;
nodes = (
(691,0,l),
(691,82,l),
(227,82,l),
(227,323,l),
(579,323,l),
(579,405,l),
(227,405,l),
(227,598,ls),
(227,618.896,o),
(245.104,637,o),
(266,637,cs),
(569,637,ls),
(590.891,637,o),
(608,618.896,o),
(608,598,cs),
(608,583,l),
(691,583,l),
(691,598,ls),
(691,665.661,o),
(634.333,720,o),
(569,720,cs),
(266,720,ls),
(198.339,720,o),
(144,665.661,o),
(144,598,cs),
(144,405,l),
(39,405,l),
(39,323,l),
(144,323,l),
(144,82,l),
(39,82,l),
(39,0,l),
(39,0,l)
);
}
);
width = 734;
},
{
layerId = "D465923C-ABAE-4975-85A4-08C1BC9DA335";
shapes = (
{
closed = 1;
nodes = (
(680,0,l),
(680,153,l),
(282,153,l),
(282,277,l),
(584,277,l),
(584,430,l),
(282,430,l),
(282,577,l),
(282,577,o),
(282,577,o),
(282,577,cs),
(526,577,l),
(526,577,o),
(526,577,o),
(526,577,cs),
(526,519,l),
(680,519,l),
(680,575,ls),
(680,654.601,o),
(614.601,720,o),
(535,720,cs),
(274,720,ls),
(195.393,720,o),
(129,654.601,o),
(129,575,cs),
(129,430,l),
(39,430,l),
(39,277,l),
(129,277,l),
(129,153,l),
(39,153,l),
(39,0,l),
(39,0,l)
);
}
);
width = 734;
}
);
unicode = 163;
},
{
color = 4;
export = 0;
glyphname = currency;
layers = (
{
layerId = "17A5F7C0-AED1-4270-89BA-BFDC1003B8A5";
shapes = (
{
closed = 1;
nodes = (
(160,71,l),
(176,63.667,o),
(193,60,o),
(211,60,cs),
(459,60,ls),
(478.333,60,o),
(496,64,o),
(512,72,c),
(577,6,l),
(635,64,l),
(570,130,l),
(577.333,146,o),
(581,163,o),
(581,181,cs),
(581,399,ls),
(581,417.667,o),
(577,435,o),
(569,451,c),
(635,516,l),
(577,574,l),
(511,509,l),
(494.333,516.333,o),
(477,520,o),
(459,520,cs),
(211,520,ls),
(192.333,520,o),
(175,516,o),
(159,508,c),
(94,574,l),
(36,516,l),
(101,450,l),
(93.667,434,o),
(90,417,o),
(90,399,cs),
(90,181,ls),
(90,162.333,o),
(94,145,o),
(102,129,c),
(36,64,l),
(94,6,l),
(94,6,l)
);
},
{
closed = 1;
nodes = (
(189.667,142,o),
(172,159.667,o),
(172,181,cs),
(172,399,ls),
(172,420.333,o),
(189.667,438,o),
(211,438,cs),
(459,438,ls),
(480.333,438,o),
(498,420.333,o),
(498,399,cs),
(498,181,ls),
(498,159.667,o),
(480.333,142,o),
(459,142,cs),
(211,142,l)
);
}
);
width = 671;
},
{
layerId = "D465923C-ABAE-4975-85A4-08C1BC9DA335";
shapes = (
{
closed = 1;
nodes = (
(211,64,l),
(221,61.333,o),
(232.333,60,o),
(245,60,cs),
(423,60,ls),
(437,60,o),
(450.333,62,o),
(463,66,c),
(547,-17,l),
(655,92,l),
(566,179,l),
(567.333,189.667,o),
(568,198.333,o),
(568,205,cs),
(568,375,ls),
(568,385,o),
(567,395,o),
(565,405,c),
(655,495,l),
(546,603,l),
(459,515,l),
(447,518.333,o),
(435,520,o),
(423,520,cs),
(245,520,ls),
(233.667,520,o),
(222,518.333,o),
(210,515,c),
(125,600,l),
(17,491,l),
(103,406,l),
(101,396,o),
(100,385.667,o),
(100,375,cs),
(100,205,ls),
(100,192.333,o),
(101.333,181.667,o),
(104,173,c),
(17,86,l),
(126,-22,l),
(126,-22,l)
);
},
{
closed = 1;
nodes = (
(257,224,o),
(257,224,o),
(257,224,cs),
(257,378,l),
(257,378,o),
(257,378,o),
(257,378,cs),
(419,378,l),
(419,378,o),
(419,378,o),
(419,378,cs),
(419,224,l),
(419,224,o),
(419,224,o),
(419,224,cs),
(257,224,l)
);
}
);
width = 668;
}
);
unicode = 164;
},
{
color = 4;
export = 0;
glyphname = yen;
layers = (
{
anchors = (
{
name = top;
pos = (387,720);
}
);
layerId = "17A5F7C0-AED1-4270-89BA-BFDC1003B8A5";
shapes = (
{
closed = 1;
nodes = (
(427,0,l),
(427,159,l),
(627,159,l),
(627,208,l),
(427,208,l),
(427,268,l),
(627,268,l),
(627,317,l),
(461,317,l),
(758,719,l),
(758,720,l),
(663,720,l),
(387,348,l),
(108,720,l),
(16,720,l),
(16,719,l),
(312,317,l),
(147,317,l),
(147,268,l),
(346,268,l),
(346,208,l),
(147,208,l),
(147,159,l),
(346,159,l),
(346,0,l),
(346,0,l)
);
}
);
width = 774;
},
{
anchors = (
{
name = top;
pos = (396,720);
}
);
layerId = "D465923C-ABAE-4975-85A4-08C1BC9DA335";
shapes = (
{
closed = 1;
nodes = (
(474,0,l),
(474,119,l),
(674,119,l),
(674,208,l),
(474,208,l),
(474,268,l),
(674,268,l),
(674,357,l),
(540,357,l),
(772,667,l),
(772,720,l),
(621,720,l),
(396,436,l),
(170,720,l),
(24,720,l),
(24,667,l),
(253,357,l),
(118,357,l),
(118,268,l),
(318,268,l),
(318,208,l),
(118,208,l),
(118,119,l),
(318,119,l),
(318,0,l),
(318,0,l)
);
}
);
width = 796;
}
);
unicode = 165;
},
{
color = 4;
glyphname = plus;
layers = (
{
layerId = "17A5F7C0-AED1-4270-89BA-BFDC1003B8A5";
shapes = (
{
closed = 1;
nodes = (
(251,100,l),
(251,255,l),
(407,255,l),
(407,337,l),
(251,337,l),
(251,490,l),
(169,490,l),
(169,337,l),
(17,337,l),
(17,255,l),
(169,255,l),
(169,100,l),
(169,100,l)
);
}
);
width = 433;
},
{
layerId = "D465923C-ABAE-4975-85A4-08C1BC9DA335";
shapes = (
{
closed = 1;
nodes = (
(300,86,l),
(300,219,l),
(434,219,l),
(434,372,l),
(300,372,l),
(300,503,l),
(147,503,l),
(147,372,l),
(17,372,l),
(17,219,l),
(147,219,l),
(147,86,l),
(147,86,l)
);
}
);
width = 455;
}
);
unicode = 43;
},
{
color = 4;
glyphname = minus;
layers = (
{
layerId = "17A5F7C0-AED1-4270-89BA-BFDC1003B8A5";
shapes = (
{
closed = 1;
nodes = (
(449,255,l),
(449,337,l),
(59,337,l),
(59,255,l),
(59,255,l)
);
}
);
width = 517;
},
{
layerId = "D465923C-ABAE-4975-85A4-08C1BC9DA335";
shapes = (
{
closed = 1;
nodes = (
(476,219,l),
(476,372,l),
(59,372,l),
(59,219,l),
(59,219,l)
);
}
);
width = 517;
}
);
unicode = 8722;
},
{
color = 4;
glyphname = multiply;
layers = (
{
layerId = "17A5F7C0-AED1-4270-89BA-BFDC1003B8A5";
shapes = (
{
closed = 1;
nodes = (
(161,95,l),
(266,239,l),
(372,95,l),
(478,95,l),
(472,102,l),
(320,301,l),
(474,501,l),
(478,506,l),
(372,506,l),
(266,362,l),
(161,506,l),
(53,506,l),
(56,502,l),
(212,301,l),
(60,103,l),
(54,95,l),
(54,95,l)
);
}
);
width = 546;
},
{
layerId = "D465923C-ABAE-4975-85A4-08C1BC9DA335";
shapes = (
{
closed = 1;
nodes = (
(210,82,l),
(279,175,l),
(348,82,l),
(507,82,l),
(507,132,l),
(377,300,l),
(507,466,l),
(507,516,l),
(348,516,l),
(279,422,l),
(211,516,l),
(53,516,l),
(53,466,l),
(182,300,l),
(53,132,l),
(53,82,l),
(53,82,l)
);
}
);
width = 546;
}
);
unicode = 215;
},
{
color = 4;
glyphname = divide;
layers = (
{
layerId = "17A5F7C0-AED1-4270-89BA-BFDC1003B8A5";
shapes = (
{
closed = 1;
nodes = (
(492,255,l),
(492,337,l),
(18,337,l),
(18,255,l),
(18,255,l)
);
},
{
closed = 1;
nodes = (
(297,1,l),
(297,83,l),
(215,83,l),
(215,1,l),
(215,1,l)
);
},
{
closed = 1;
nodes = (
(297,497,l),
(297,579,l),
(215,579,l),
(215,497,l),
(215,497,l)
);
}
);
width = 508;
},
{
layerId = "D465923C-ABAE-4975-85A4-08C1BC9DA335";
shapes = (
{
closed = 1;
nodes = (
(497,240,l),
(497,393,l),
(7,393,l),
(7,240,l),
(7,240,l)
);
},
{
closed = 1;
nodes = (
(336,0,l),
(336,153,l),
(183,153,l),
(183,0,l),
(183,0,l)
);
},
{
closed = 1;
nodes = (
(336,462,l),
(336,616,l),
(183,616,l),
(183,462,l),
(183,462,l)
);
}
);
width = 519;
}
);
unicode = 247;
},
{
color = 4;
glyphname = equal;
layers = (
{
layerId = "17A5F7C0-AED1-4270-89BA-BFDC1003B8A5";
shapes = (
{
closed = 1;
nodes = (
(576,351,l),
(576,433,l),
(59,433,l),
(59,351,l),
(59,351,l)
);
},
{
closed = 1;
nodes = (
(576,151,l),
(576,233,l),
(59,233,l),
(59,151,l),
(59,151,l)
);
}
);
width = 638;
},
{
layerId = "D465923C-ABAE-4975-85A4-08C1BC9DA335";
shapes = (
{
closed = 1;
nodes = (
(585,331,l),
(585,484,l),
(59,484,l),
(59,331,l),
(59,331,l)
);
},
{
closed = 1;
nodes = (
(585,129,l),
(585,282,l),
(59,282,l),
(59,129,l),
(59,129,l)
);
}
);
width = 638;
}
);
unicode = 61;
},
{
color = 4;
glyphname = greater;
layers = (
{
layerId = "17A5F7C0-AED1-4270-89BA-BFDC1003B8A5";
shapes = (
{
closed = 1;
nodes = (
(461,246,l),
(461,343,l),
(59,574,l),
(59,479,l),
(379,294,l),
(59,109,l),
(59,14,l),
(59,14,l)
);
}
);
width = 475;
},
{
layerId = "D465923C-ABAE-4975-85A4-08C1BC9DA335";
shapes = (
{
closed = 1;
nodes = (
(487,229,l),
(487,358,l),
(59,605,l),
(59,428,l),
(292,294,l),
(59,159,l),
(59,-19,l),
(59,-19,l)
);
}
);
width = 475;
}
);
unicode = 62;
},
{
color = 4;
glyphname = less;
layers = (
{
layerId = "17A5F7C0-AED1-4270-89BA-BFDC1003B8A5";
shapes = (
{
closed = 1;
nodes = (
(407,111,l),
(87,296,l),
(407,481,l),
(407,576,l),
(5,345,l),
(5,248,l),
(407,16,l),
(407,16,l)
);
}
);
width = 473;
},
{
layerId = "D465923C-ABAE-4975-85A4-08C1BC9DA335";
shapes = (
{
closed = 1;
nodes = (
(432,160,l),
(198,296,l),
(432,431,l),
(432,607,l),
(5,359,l),
(5,231,l),
(432,-17,l),
(432,-17,l)
);
}
);
width = 473;
}
);
unicode = 60;
},
{
color = 4;
glyphname = asciitilde;
layers = (
{
layerId = "17A5F7C0-AED1-4270-89BA-BFDC1003B8A5";
shapes = (
{
closed = 1;
nodes = (
(297,245,l),
(317.667,245,o),
(339.667,249.333,o),
(363,258,c),
(363,299,l),
(339.667,288.333,o),
(317.333,283,o),
(296,283,cs),
(278.667,283,o),
(246,294.833,o),
(198,318.5,cs),
(150,342.167,o),
(112.667,354,o),
(86,354,cs),
(62.667,354,o),
(42,351,o),
(24,345,c),
(24,308,l),
(39.333,313.333,o),
(60,316,o),
(86,316,cs),
(114,316,o),
(150.333,304.167,o),
(195,280.5,cs),
(239.667,256.833,o),
(273.667,245,o),
(297,245,c)
);
}
);
width = 404;
},
{
layerId = "D465923C-ABAE-4975-85A4-08C1BC9DA335";
shapes = (
{
closed = 1;
nodes = (
(300,210,l),
(326,210,o),
(359,218.333,o),
(399,235,c),
(399,361,l),
(361.667,337,o),
(332.333,325,o),
(311,325,cs),
(295,325,o),
(265.333,335.333,o),
(222,356,cs),
(178.667,376.667,o),
(144.333,387,o),
(119,387,cs),
(91,387,o),
(59.333,379.333,o),
(24,364,c),
(24,232,l),
(58,258,o),
(87.667,271,o),
(113,271,cs),
(135.667,271,o),
(166.5,260.833,o),
(205.5,240.5,cs),
(244.5,220.167,o),
(276,210,o),
(300,210,c)
);
}
);
width = 404;
}
);
unicode = 126;
},
{
color = 4;
glyphname = percent;
layers = (
{
layerId = "17A5F7C0-AED1-4270-89BA-BFDC1003B8A5";
shapes = (
{
closed = 1;
nodes = (
(154,15,l),
(865,614,l),
(865,721,l),
(853,711,l),
(137,108,l),
(137,0,l),
(137,0,l)
);
},
{
closed = 1;
nodes = (
(170,393,l),
(264,393,ls),
(331.661,393,o),
(386,447.333,o),
(386,514,cs),
(386,598,ls),
(386,665.661,o),
(331.661,720,o),
(264,720,cs),
(170,720,ls),
(102.339,720,o),
(48,665.661,o),
(48,598,cs),
(48,514,ls),
(48,447.333,o),
(102.339,393,o),
(170,393,c)
);
},
{
closed = 1;
nodes = (
(109,454,o),
(109,454,o),
(109,454,cs),
(109,658,l),
(109,658,o),
(109,658,o),
(109,658,cs),
(325,658,l),
(325,658,o),
(325,658,o),
(325,658,cs),
(325,454,ls),
(325,454,o),
(325,454,o),
(325,454,cs),
(109,454,l),
(109,454,l)
);
},
{
closed = 1;
nodes = (
(716,-1,l),
(811,-1,ls),
(877.667,-1,o),
(932,53.333,o),
(932,120,cs),
(932,205,ls),
(932,271.667,o),
(877.667,326,o),
(811,326,cs),
(716,326,ls),
(648.339,326,o),
(595,271.667,o),
(595,205,cs),
(595,120,ls),
(595,53.333,o),
(648.339,-1,o),
(716,-1,c)
);
},
{
closed = 1;
nodes = (
(656,60,o),
(656,60,o),
(656,60,cs),
(656,265,l),
(656,265,o),
(656,265,o),
(656,265,cs),
(871,265,l),
(871,265,o),
(871,265,o),
(871,265,cs),
(871,60,l),
(871,60,o),
(871,60,o),
(871,60,cs),
(656,60,l),
(656,60,l)
);
}
);
width = 966;
},
{
layerId = "D465923C-ABAE-4975-85A4-08C1BC9DA335";
shapes = (
{
closed = 1;
nodes = (
(185,0,l),
(841,563,l),
(841,719,l),
(790,719,l),
(134,157,l),
(134,0,l),
(134,0,l)
);
},
{
closed = 1;
nodes = (
(184,369,l),
(265,369,ls),
(344.603,369,o),
(401,425.397,o),
(401,505,cs),
(401,577,ls),
(401,656.601,o),
(344.603,712,o),
(265,712,cs),
(184,712,ls),
(104.399,712,o),
(48,656.601,o),
(48,577,cs),
(48,505,ls),
(48,425.397,o),
(104.399,369,o),
(184,369,c)
);
},
{
closed = 1;
nodes = (
(187.333,495,o),
(173,509.333,o),
(173,528,cs),
(173,554,ls),
(173,572.667,o),
(187.333,587,o),
(206,587,cs),
(242,587,ls),
(260.667,587,o),
(275,572.667,o),
(275,554,cs),
(275,528,ls),
(275,509.333,o),
(260.667,495,o),
(242,495,cs),
(206,495,l),
(206,495,l)
);
},
{
closed = 1;
nodes = (
(692,9,l),
(773,9,ls),
(852.601,9,o),
(909,65.399,o),
(909,145,cs),
(909,217,ls),
(909,296.603,o),
(852.601,352,o),
(773,352,cs),
(692,352,ls),
(613.393,352,o),
(557,296.603,o),
(557,217,cs),
(557,145,ls),
(557,65.399,o),
(613.393,9,o),
(692,9,c)
);
},
{
closed = 1;
nodes = (
(696.333,134,o),
(682,148.333,o),
(682,167,cs),
(682,194,ls),
(682,212.667,o),
(696.333,227,o),
(715,227,cs),
(751,227,ls),
(769.667,227,o),
(784,212.667,o),
(784,194,cs),
(784,167,ls),
(784,148.333,o),
(769.667,134,o),
(751,134,cs),
(715,134,l),
(715,134,l)
);
}
);
width = 966;
}
);
unicode = 37;
},
{
color = 4;
export = 0;
glyphname = plusminus;
layers = (
{
layerId = "17A5F7C0-AED1-4270-89BA-BFDC1003B8A5";
shapes = (
{
closed = 1;
nodes = (
(291,200,l),
(291,355,l),
(447,355,l),
(447,437,l),
(291,437,l),
(291,590,l),
(209,590,l),
(209,437,l),
(57,437,l),
(57,355,l),
(209,355,l),
(209,200,l),
(209,200,l)
);
},
{
closed = 1;
nodes = (
(449,45,l),
(449,127,l),
(59,127,l),
(59,45,l),
(59,45,l)
);
}
);
width = 500;
},
{
layerId = "D465923C-ABAE-4975-85A4-08C1BC9DA335";
shapes = (
{
closed = 1;
nodes = (
(291,200,l),
(291,355,l),
(447,355,l),
(447,437,l),
(291,437,l),
(291,590,l),
(209,590,l),
(209,437,l),
(57,437,l),
(57,355,l),
(209,355,l),
(209,200,l),
(209,200,l)
);
},
{
closed = 1;
nodes = (
(449,45,l),
(449,127,l),
(59,127,l),
(59,45,l),
(59,45,l)
);
}
);
width = 500;
}
);
unicode = 177;
},
{
color = 4;
export = 0;
glyphname = logicalnot;
layers = (
{
layerId = "17A5F7C0-AED1-4270-89BA-BFDC1003B8A5";
shapes = (
{
closed = 1;
nodes = (
(476,497,l),
(476,603,ls),
(476,669.667,o),
(421.667,724,o),
(355,724,cs),
(75,724,l),
(75,642,l),
(354,642,ls),
(375.333,642,o),
(393,623,o),
(393,603,cs),
(394,497,l),
(394,497,l)
);
}
);
width = 500;
},
{
layerId = "D465923C-ABAE-4975-85A4-08C1BC9DA335";
shapes = (
{
closed = 1;
nodes = (
(476,427,l),
(476,543,ls),
(476,676.333,o),
(435,724,o),
(355,724,cs),
(75,724,l),
(75,582,l),
(304,582,ls),
(325.333,582,o),
(343,563,o),
(343,543,cs),
(344,427,l),
(344,427,l)
);
}
);
width = 500;
}
);
unicode = 172;
},
{
color = 4;
export = 0;
glyphname = asciicircum;
layers = (
{
layerId = "17A5F7C0-AED1-4270-89BA-BFDC1003B8A5";
shapes = (
{
closed = 1;
nodes = (
(380,595,l),
(380,667,l),
(105,667,l),
(105,595,l),
(105,595,l)
);
}
);
width = 500;
},
{
layerId = "D465923C-ABAE-4975-85A4-08C1BC9DA335";
shapes = (
{
closed = 1;
nodes = (
(380,595,l),
(380,667,l),
(105,667,l),
(105,595,l),
(105,595,l)
);
}
);
width = 500;
}
);
unicode = 94;
},
{
color = 4;
glyphname = at;
layers = (
{
layerId = "17A5F7C0-AED1-4270-89BA-BFDC1003B8A5";
shapes = (
{
closed = 1;
nodes = (
(175,0,l),
(781,0,l),
(781,82,l),
(175,82,ls),
(153.667,82,o),
(136,99.667,o),
(136,121,cs),
(136,598,ls),
(136,619.333,o),
(153.667,637,o),
(175,637,cs),
(660,637,ls),
(681.333,637,o),
(699,619.333,o),
(699,598,cs),
(699,254,l),
(586,254,l),
(586,398,ls),
(586,464.667,o),
(531.667,519,o),
(465,519,cs),
(370,519,ls),
(302,519,o),
(249,464.667,o),
(249,398,cs),
(249,314,ls),
(249,246,o),
(302,192,o),
(370,192,cs),
(781,192,l),
(781,598,ls),
(781,666,o),
(726.667,720,o),
(660,720,cs),
(175,720,ls),
(107,720,o),
(54,666,o),
(54,598,cs),
(54,121,ls),
(54,54.333,o),
(107,0,o),
(175,0,c)
);
},
{
closed = 1;
nodes = (
(327.667,254,o),
(310,271.667,o),
(310,293,cs),
(310,419,ls),
(310,440.333,o),
(327.667,458,o),
(349,458,cs),
(486,458,ls),
(507.333,458,o),
(525,440.333,o),
(525,419,cs),
(525,254,l),
(349,254,l)
);
}
);
width = 832;
},
{
layerId = "D465923C-ABAE-4975-85A4-08C1BC9DA335";
shapes = (
{
closed = 1;
nodes = (
(200,0,l),
(761,0,l),
(761,153,l),
(207,153,l),
(207,153,o),
(207,153,o),
(207,153,cs),
(207,567,l),
(207,567,o),
(207,567,o),
(207,567,cs),
(608,567,l),
(608,567,o),
(608,567,o),
(608,567,cs),
(608,331,l),
(564,331,l),
(564,394,ls),
(564,474,o),
(519,519,o),
(439,519,cs),
(377,519,ls),
(297,519,o),
(251,474,o),
(251,394,cs),
(251,341,ls),
(251,261,o),
(297,216,o),
(377,216,cs),
(761,216,l),
(761,575,ls),
(761,655,o),
(695,720,o),
(615,720,cs),
(200,720,ls),
(120,720,o),
(54,655,o),
(54,575,cs),
(54,145,ls),
(54,66.333,o),
(120,0,o),
(200,0,c)
);
},
{
closed = 1;
nodes = (
(357,331,o),
(357,331,o),
(357,331,cs),
(357,413,l),
(357,413,o),
(357,413,o),
(357,413,cs),
(458,413,l),
(458,413,o),
(458,413,o),
(458,413,cs),
(458,331,l),
(357,331,l)
);
}
);
width = 815;
}
);
metricLeft = "=n";
metricRight = "=n";
unicode = 64;
},
{
color = 4;
glyphname = ampersand;
layers = (
{
layerId = "17A5F7C0-AED1-4270-89BA-BFDC1003B8A5";
shapes = (
{
closed = 1;
nodes = (
(659,0,ls),
(709.747,0,o),
(755.109,38.273,o),
(777,93,c),
(914,16,l),
(914,88,l),
(780,167,l),
(780,333,l),
(698,333,l),
(698,194,l),
(177,457,l),
(177,596,ls),
(177,616.896,o),
(195.104,635,o),
(216,635,cs),
(627,635,ls),
(648.891,635,o),
(666,616.896,o),
(666,596,cs),
(666,562,l),
(749,562,l),
(749,617,l),
(734.075,668.741,o),
(682.721,719,o),
(627,719,cs),
(216,719,ls),
(149.333,719,o),
(95,664.661,o),
(95,597,cs),
(95,497,ls),
(95,461.667,o),
(114,429.667,o),
(152,401,c),
(92,401,o),
(53,365.333,o),
(53,336,cs),
(53,121,ls),
(53,54.333,o),
(107.333,0,o),
(174,0,c)
);
},
{
closed = 1;
nodes = (
(153.104,82,o),
(135,100.104,o),
(135,121,cs),
(135,336,ls),
(135,356.896,o),
(153.104,375,o),
(174,375,cs),
(189,375,l),
(699,118,l),
(690.045,97.104,o),
(672.931,82,o),
(659,82,cs),
(174,82,l)
);
}
);
width = 938;
},
{
layerId = "D465923C-ABAE-4975-85A4-08C1BC9DA335";
shapes = (
{
closed = 1;
nodes = (
(614,0,ls),
(660.667,0,o),
(706,24.667,o),
(734,62,c),
(874,-18,l),
(874,140,l),
(759,208,l),
(759,369,l),
(606,369,l),
(606,274,l),
(242,457,l),
(242,565,l),
(242,565,o),
(242,565,o),
(242,565,cs),
(579,565,l),
(579,565,o),
(579,565,o),
(579,565,cs),
(579,512,l),
(732,512,l),
(732,600,l),
(720,668,o),
(657.667,719,o),
(587,719,cs),
(234,719,ls),
(155.333,719,o),
(89,656.667,o),
(89,574,cs),
(89,467,ls),
(89,443,o),
(91.333,425.333,o),
(96,414,c),
(68,395.333,o),
(53,359.333,o),
(53,330,cs),
(53,145,ls),
(53,63.667,o),
(119.333,0,o),
(198,0,c)
);
},
{
closed = 1;
nodes = (
(206,153,o),
(206,153,o),
(206,153,cs),
(206,271,l),
(206,312,o),
(205,318,o),
(208,318,c),
(223,310,l),
(534,153,l),
(520,153,o),
(508,153,o),
(494,153,cs),
(206,153,l)
);
}
);
width = 938;
}
);
unicode = 38;
},
{
color = 4;
glyphname = paragraph;
layers = (
{
layerId = "17A5F7C0-AED1-4270-89BA-BFDC1003B8A5";
shapes = (
{
closed = 1;
nodes = (
(563,0,l),
(563,271,l),
(701,271,l),
(701,0,l),
(783,0,l),
(783,720,l),
(177,720,ls),
(109,720,o),
(56,664.667,o),
(56,598,cs),
(56,392,ls),
(56,326.328,o),
(109.339,271,o),
(177,271,cs),
(481,271,l),
(481,0,l),
(481,0,l)
);
},
{
closed = 1;
nodes = (
(156.104,353,o),
(138,371.104,o),
(138,392,cs),
(138,598,ls),
(138,619.333,o),
(155.667,637,o),
(177,637,cs),
(481,637,l),
(481,353,l),
(177,353,l)
);
},
{
closed = 1;
nodes = (
(563,637,l),
(701,637,l),
(701,353,l),
(563,353,l),
(563,353,l)
);
}
);
width = 833;
},
{
layerId = "D465923C-ABAE-4975-85A4-08C1BC9DA335";
shapes = (
{
closed = 1;
nodes = (
(564,0,l),
(564,232,l),
(630,232,l),
(630,0,l),
(783,0,l),
(783,706,l),
(202,706,ls),
(122.399,706,o),
(56,638.607,o),
(56,560,cs),
(56,377,ls),
(56,299.388,o),
(122.399,232,o),
(202,232,cs),
(410,232,l),
(410,0,l),
(410,0,l)
);
},
{
closed = 1;
nodes = (
(209,386,o),
(209,386,o),
(209,386,cs),
(209,552,l),
(209,552,o),
(209,552,o),
(209,552,cs),
(410,552,l),
(410,386,l),
(209,386,l)
);
},
{
closed = 1;
nodes = (
(564,552,l),
(630,552,l),
(630,386,l),
(564,386,l),
(564,386,l)
);
}
);
width = 833;
}
);
unicode = 182;
},
{
color = 4;
glyphname = degree;
layers = (
{
layerId = "17A5F7C0-AED1-4270-89BA-BFDC1003B8A5";
shapes = (
{
closed = 1;
nodes = (
(167,401,l),
(261,401,ls),
(328.661,401,o),
(383,455.333,o),
(383,522,cs),
(383,606,ls),
(383,673.661,o),
(328.661,728,o),
(261,728,cs),
(167,728,ls),
(99.339,728,o),
(45,673.661,o),
(45,606,cs),
(45,522,ls),
(45,455.333,o),
(99.339,401,o),
(167,401,c)
);
},
{
closed = 1;
nodes = (
(124.104,462,o),
(106,480.104,o),
(106,501,cs),
(106,627,ls),
(106,648.891,o),
(124.104,666,o),
(145,666,cs),
(283,666,ls),
(303.896,666,o),
(322,648.891,o),
(322,627,cs),
(322,501,ls),
(322,480.104,o),
(303.896,462,o),
(283,462,cs),
(145,462,l)
);
}
);
width = 439;
},
{
layerId = "D465923C-ABAE-4975-85A4-08C1BC9DA335";
shapes = (
{
closed = 1;
nodes = (
(191,343,l),
(272,343,ls),
(350.607,343,o),
(417,409.397,o),
(417,489,cs),
(417,561,ls),
(417,640.601,o),
(350.607,706,o),
(272,706,cs),
(191,706,ls),
(111.399,706,o),
(45,640.601,o),
(45,561,cs),
(45,489,ls),
(45,409.397,o),
(111.399,343,o),
(191,343,c)
);
},
{
closed = 1;
nodes = (
(180,479,o),
(180,479,o),
(180,479,cs),
(180,571,l),
(180,571,o),
(180,571,o),
(180,571,cs),
(282,571,l),
(282,571,o),
(282,571,o),
(282,571,cs),
(282,479,l),
(282,479,o),
(282,479,o),
(282,479,cs),
(180,479,l)
);
}
);
width = 439;
}
);
unicode = 176;
},
{
color = 4;
glyphname = bar;
layers = (
{
layerId = "17A5F7C0-AED1-4270-89BA-BFDC1003B8A5";
shapes = (
{
closed = 1;
nodes = (
(136,-115,l),
(136,842,l),
(54,842,l),
(54,-115,l),
(54,-115,l)
);
}
);
width = 214;
},
{
layerId = "D465923C-ABAE-4975-85A4-08C1BC9DA335";
shapes = (
{
closed = 1;
nodes = (
(207,-99,l),
(207,804,l),
(54,804,l),
(54,-99,l),
(54,-99,l)
);
}
);
width = 214;
}
);
unicode = 124;
},
{
color = 4;
export = 0;
glyphname = copyright;
layers = (
{
layerId = "17A5F7C0-AED1-4270-89BA-BFDC1003B8A5";
shapes = (
{
closed = 1;
nodes = (
(184,0,l),
(664,0,ls),
(730.667,0,o),
(784,53.333,o),
(784,120,cs),
(784,600,ls),
(784,666.667,o),
(730.667,720,o),
(664,720,cs),
(184,720,ls),
(117.333,720,o),
(64,666.667,o),
(64,600,cs),
(64,120,ls),
(64,53.333,o),
(117.333,0,o),
(184,0,c)
);
},
{
closed = 1;
nodes = (
(356,150,l),
(574,150,l),
(574,232,l),
(356,232,ls),
(334.667,232,o),
(317,249.667,o),
(317,271,cs),
(317,440,ls),
(317,461.333,o),
(334.667,479,o),
(356,479,cs),
(574,479,l),
(574,561,l),
(356,561,ls),
(289.333,561,o),
(235,506.667,o),
(235,440,cs),
(235,271,ls),
(235,204.333,o),
(289.333,150,o),
(356,150,c)
);
},
{
closed = 1;
nodes = (
(162.667,81,o),
(145,98.667,o),
(145,120,cs),
(145,600,ls),
(145,621.333,o),
(162.667,639,o),
(184,639,cs),
(664,639,ls),
(685.333,639,o),
(703,621.333,o),
(703,600,cs),
(703,120,ls),
(703,98.667,o),
(685.333,81,o),
(664,81,cs),
(184,81,l),
(184,81,l)
);
}
);
width = 848;
},
{
layerId = "D465923C-ABAE-4975-85A4-08C1BC9DA335";
shapes = (
{
closed = 1;
nodes = (
(184,0,l),
(664,0,ls),
(730.667,0,o),
(784,53.333,o),
(784,120,cs),
(784,600,ls),
(784,666.667,o),
(730.667,720,o),
(664,720,cs),
(184,720,ls),
(117.333,720,o),
(64,666.667,o),
(64,600,cs),
(64,120,ls),
(64,53.333,o),
(117.333,0,o),
(184,0,c)
);
},
{
closed = 1;
nodes = (
(356,150,l),
(574,150,l),
(574,232,l),
(356,232,ls),
(334.667,232,o),
(317,249.667,o),
(317,271,cs),
(317,440,ls),
(317,461.333,o),
(334.667,479,o),
(356,479,cs),
(574,479,l),
(574,561,l),
(356,561,ls),
(289.333,561,o),
(235,506.667,o),
(235,440,cs),
(235,271,ls),
(235,204.333,o),
(289.333,150,o),
(356,150,c)
);
},
{
closed = 1;
nodes = (
(162.667,81,o),
(145,98.667,o),
(145,120,cs),
(145,600,ls),
(145,621.333,o),
(162.667,639,o),
(184,639,cs),
(664,639,ls),
(685.333,639,o),
(703,621.333,o),
(703,600,cs),
(703,120,ls),
(703,98.667,o),
(685.333,81,o),
(664,81,cs),
(184,81,l),
(184,81,l)
);
}
);
width = 848;
}
);
unicode = 169;
},
{
color = 4;
export = 0;
glyphname = registered;
layers = (
{
layerId = "17A5F7C0-AED1-4270-89BA-BFDC1003B8A5";
shapes = (
{
closed = 1;
nodes = (
(109,400,l),
(323,400,ls),
(352.333,400,o),
(376,423.667,o),
(376,453,cs),
(376,667,ls),
(376,696.333,o),
(352.333,720,o),
(323,720,cs),
(109,720,ls),
(79.667,720,o),
(56,696.333,o),
(56,667,cs),
(56,453,ls),
(56,423.667,o),
(79.667,400,o),
(109,400,c)
);
},
{
closed = 1;
nodes = (
(99.667,436,o),
(92,443.667,o),
(92,453,cs),
(92,667,ls),
(92,676.333,o),
(99.667,684,o),
(109,684,cs),
(323,684,ls),
(332.333,684,o),
(340,676.333,o),
(340,667,cs),
(340,453,ls),
(340,443.667,o),
(332.333,436,o),
(323,436,cs),
(109,436,l),
(109,436,l)
);
},
{
closed = 1;
nodes = (
(151,466,l),
(151,534,l),
(210,534,l),
(284,466,l),
(318,466,l),
(243,534,l),
(278,534,ls),
(299.333,534,o),
(317,551.333,o),
(317,574,cs),
(317,616,ls),
(317,638.667,o),
(299.333,656,o),
(278,656,cs),
(125,656,l),
(125,466,l),
(125,466,l)
);
},
{
closed = 1;
nodes = (
(157.333,561,o),
(151,567.333,o),
(151,574,cs),
(151,616,ls),
(151,622.667,o),
(157.333,629,o),
(164,629,cs),
(278,629,ls),
(284.667,629,o),
(291,622.667,o),
(291,616,cs),
(291,574,ls),
(291,567.333,o),
(284.667,561,o),
(278,561,cs),
(164,561,l),
(164,561,l)
);
}
);
width = 432;
},
{
layerId = "D465923C-ABAE-4975-85A4-08C1BC9DA335";
shapes = (
{
closed = 1;
nodes = (
(109,400,l),
(323,400,ls),
(352.333,400,o),
(376,423.667,o),
(376,453,cs),
(376,667,ls),
(376,696.333,o),
(352.333,720,o),
(323,720,cs),
(109,720,ls),
(79.667,720,o),
(56,696.333,o),
(56,667,cs),
(56,453,ls),
(56,423.667,o),
(79.667,400,o),
(109,400,c)
);
},
{
closed = 1;
nodes = (
(99.667,436,o),
(92,443.667,o),
(92,453,cs),
(92,667,ls),
(92,676.333,o),
(99.667,684,o),
(109,684,cs),
(323,684,ls),
(332.333,684,o),
(340,676.333,o),
(340,667,cs),
(340,453,ls),
(340,443.667,o),
(332.333,436,o),
(323,436,cs),
(109,436,l),
(109,436,l)
);
},
{
closed = 1;
nodes = (
(151,466,l),
(151,534,l),
(210,534,l),
(284,466,l),
(318,466,l),
(243,534,l),
(278,534,ls),
(299.333,534,o),
(317,551.333,o),
(317,574,cs),
(317,616,ls),
(317,638.667,o),
(299.333,656,o),
(278,656,cs),
(125,656,l),
(125,466,l),
(125,466,l)
);
},
{
closed = 1;
nodes = (
(157.333,561,o),
(151,567.333,o),
(151,574,cs),
(151,616,ls),
(151,622.667,o),
(157.333,629,o),
(164,629,cs),
(278,629,ls),
(284.667,629,o),
(291,622.667,o),
(291,616,cs),
(291,574,ls),
(291,567.333,o),
(284.667,561,o),
(278,561,cs),
(164,561,l),
(164,561,l)
);
}
);
width = 432;
}
);
unicode = 174;
},
{
color = 4;
export = 0;
glyphname = brokenbar;
layers = (
{
layerId = "17A5F7C0-AED1-4270-89BA-BFDC1003B8A5";
shapes = (
{
closed = 1;
nodes = (
(136,453,l),
(136,842,l),
(54,842,l),
(54,453,l),
(54,453,l)
);
},
{
closed = 1;
nodes = (
(136,-115,l),
(136,263,l),
(54,263,l),
(54,-115,l),
(54,-115,l)
);
}
);
width = 190;
},
{
layerId = "D465923C-ABAE-4975-85A4-08C1BC9DA335";
shapes = (
{
closed = 1;
nodes = (
(207,-99,l),
(207,297,l),
(54,297,l),
(54,-99,l),
(54,-99,l)
);
},
{
closed = 1;
nodes = (
(207,437,l),
(207,804,l),
(54,804,l),
(54,437,l),
(54,437,l)
);
}
);
width = 261;
}
);
unicode = 166;
},
{
color = 4;
glyphname = dieresiscomb;
layers = (
{
anchors = (
{
name = _top;
pos = (0,580);
}
);
layerId = "17A5F7C0-AED1-4270-89BA-BFDC1003B8A5";
shapes = (
{
closed = 1;
nodes = (
(133,640,l),
(133,722,l),
(50,722,l),
(50,640,l),
(50,640,l)
);
},
{
closed = 1;
nodes = (
(-50,640,l),
(-50,722,l),
(-133,722,l),
(-133,640,l),
(-133,640,l)
);
}
);
width = 0;
},
{
anchors = (
{
name = _top;
pos = (0,580);
}
);
layerId = "D465923C-ABAE-4975-85A4-08C1BC9DA335";
shapes = (
{
closed = 1;
nodes = (
(184,640,l),
(184,794,l),
(30,794,l),
(30,640,l),
(30,640,l)
);
},
{
closed = 1;
nodes = (
(-30,640,l),
(-30,794,l),
(-183,794,l),
(-183,640,l),
(-183,640,l)
);
}
);
width = 0;
}
);
unicode = 776;
},
{
color = 4;
glyphname = dotaccentcomb;
layers = (
{
anchors = (
{
name = _top;
pos = (0,580);
}
);
layerId = "17A5F7C0-AED1-4270-89BA-BFDC1003B8A5";
shapes = (
{
closed = 1;
nodes = (
(41,640,l),
(41,722,l),
(-42,722,l),
(-42,640,l)
);
}
);
width = 0;
},
{
anchors = (
{
name = _top;
pos = (0,580);
}
);
layerId = "D465923C-ABAE-4975-85A4-08C1BC9DA335";
shapes = (
{
closed = 1;
nodes = (
(77,640,l),
(77,794,l),
(-77,794,l),
(-77,640,l)
);
}
);
width = 0;
}
);
unicode = 775;
},
{
color = 4;
glyphname = gravecomb;
layers = (
{
anchors = (
{
name = _top;
pos = (0,580);
}
);
layerId = "17A5F7C0-AED1-4270-89BA-BFDC1003B8A5";
shapes = (
{
closed = 1;
nodes = (
(47,640,l),
(13,779,l),
(-68,779,l),
(-33,640,l),
(-33,640,l)
);
}
);
width = 0;
},
{
anchors = (
{
name = _top;
pos = (0,580);
}
);
layerId = "D465923C-ABAE-4975-85A4-08C1BC9DA335";
shapes = (
{
closed = 1;
nodes = (
(87,640,l),
(36,843,l),
(-121,843,l),
(-70,640,l),
(-70,640,l)
);
}
);
width = 0;
}
);
unicode = 768;
},
{
color = 4;
glyphname = acutecomb;
layers = (
{
anchors = (
{
name = _top;
pos = (0,580);
}
);
layerId = "17A5F7C0-AED1-4270-89BA-BFDC1003B8A5";
shapes = (
{
closed = 1;
nodes = (
(33,640,l),
(67,779,l),
(-12,779,l),
(-47,640,l),
(-47,640,l)
);
}
);
width = 0;
},
{
anchors = (
{
name = _top;
pos = (0,580);
}
);
background = {
shapes = (
{
closed = 1;
nodes = (
(87,640,l),
(36,843,l),
(-121,843,l),
(-70,640,l),
(-70,640,l)
);
}
);
};
layerId = "D465923C-ABAE-4975-85A4-08C1BC9DA335";
shapes = (
{
closed = 1;
nodes = (
(73,640,l),
(124,843,l),
(-33,843,l),
(-84,640,l),
(-84,640,l)
);
}
);
width = 0;
}
);
unicode = 769;
},
{
color = 4;
glyphname = circumflexcomb;
layers = (
{
anchors = (
{
name = _top;
pos = (1,580);
}
);
layerId = "17A5F7C0-AED1-4270-89BA-BFDC1003B8A5";
shapes = (
{
closed = 1;
nodes = (
(-58,670,l),
(2,775,l),
(60,670,l),
(122,670,l),
(41,807,l),
(-38,807,l),
(-119,670,l),
(-119,670,l)
);
}
);
width = 0;
},
{
anchors = (
{
name = _top;
pos = (0,580);
}
);
layerId = "D465923C-ABAE-4975-85A4-08C1BC9DA335";
shapes = (
{
closed = 1;
nodes = (
(-26,640,l),
(-1,684,l),
(27,640,l),
(161,640,l),
(51,824,l),
(-49,824,l),
(-159,640,l),
(-159,640,l)
);
}
);
width = 0;
}
);
unicode = 770;
},
{
color = 4;
glyphname = caroncomb;
layers = (
{
anchors = (
{
name = _top;
pos = (0,580);
}
);
layerId = "17A5F7C0-AED1-4270-89BA-BFDC1003B8A5";
shapes = (
{
closed = 1;
nodes = (
(30,640,l),
(100,757,l),
(59,757,l),
(1,672,l),
(-59,757,l),
(-101,757,l),
(-29,640,l),
(-29,640,l)
);
}
);
width = 0;
},
{
anchors = (
{
name = _top;
pos = (0,580);
}
);
layerId = "D465923C-ABAE-4975-85A4-08C1BC9DA335";
shapes = (
{
closed = 1;
nodes = (
(50,640,l),
(160,824,l),
(25,824,l),
(-2,780,l),
(-29,824,l),
(-160,824,l),
(-50,640,l),
(-50,640,l)
);
}
);
width = 0;
}
);
unicode = 780;
},
{
color = 4;
glyphname = ringcomb;
layers = (
{
anchors = (
{
name = _top;
pos = (0,580);
}
);
layerId = "17A5F7C0-AED1-4270-89BA-BFDC1003B8A5";
shapes = (
{
closed = 1;
nodes = (
(28,661,ls),
(57,661,o),
(82,685,o),
(82,714,cs),
(82,768,ls),
(82,797,o),
(57,821,o),
(28,821,cs),
(-28,821,ls),
(-57,821,o),
(-82,797,o),
(-82,768,cs),
(-82,714,ls),
(-82,685,o),
(-57,661,o),
(-28,661,c)
);
},
{
closed = 1;
nodes = (
(-38,701,o),
(-42,706,o),
(-42,711,cs),
(-42,771,ls),
(-42,776,o),
(-38,781,o),
(-33,781,cs),
(33,781,ls),
(38,781,o),
(42,776,o),
(42,771,cs),
(42,711,ls),
(42,706,o),
(38,701,o),
(33,701,cs),
(-33,701,l)
);
}
);
width = 0;
},
{
anchors = (
{
name = _top;
pos = (0,580);
}
);
layerId = "D465923C-ABAE-4975-85A4-08C1BC9DA335";
shapes = (
{
closed = 1;
nodes = (
(26,640,ls),
(67.333,640,o),
(102,674.667,o),
(102,716,cs),
(102,765,ls),
(102,806.333,o),
(67.333,841,o),
(26,841,cs),
(-25,841,ls),
(-66.333,841,o),
(-102,806.333,o),
(-102,765,cs),
(-102,716,ls),
(-102,674.667,o),
(-66.333,640,o),
(-25,640,c)
);
},
{
closed = 1;
nodes = (
(-25,709,o),
(-25,709,o),
(-25,709,cs),
(-25,763,ls),
(-25,763,o),
(-25,763,o),
(-25,763,cs),
(25,763,ls),
(25,763,o),
(25,763,o),
(25,763,c),
(25,709,ls),
(25,709,o),
(25,709,o),
(25,709,cs),
(-25,709,l)
);
}
);
width = 0;
}
);
unicode = 778;
},
{
color = 4;
glyphname = tildecomb;
layers = (
{
anchors = (
{
name = _top;
pos = (0,580);
}
);
layerId = "17A5F7C0-AED1-4270-89BA-BFDC1003B8A5";
shapes = (
{
closed = 1;
nodes = (
(110,679,l),
(170,679,l),
(170,744,l),
(117,744,ls),
(84,744,o),
(45,759,o),
(-1,789,cs),
(-47,819,o),
(-84,834,o),
(-112,834,cs),
(-170,834,l),
(-170,769,l),
(-132,769,ls),
(-97,769,o),
(-57,754,o),
(-12,724,cs),
(34,694,o),
(74,679,o),
(110,679,c)
);
}
);
width = 0;
},
{
anchors = (
{
name = _top;
pos = (0,580);
}
);
layerId = "D465923C-ABAE-4975-85A4-08C1BC9DA335";
shapes = (
{
closed = 1;
nodes = (
(86,648,l),
(188,648,l),
(188,762,l),
(95,762,ls),
(66,762,o),
(35,776,o),
(3,805,cs),
(-29,834,o),
(-63,848,o),
(-99,848,cs),
(-188,848,l),
(-188,732,l),
(-111,732,ls),
(-88,732,o),
(-60,718,o),
(-25,690,cs),
(11,662,o),
(47,648,o),
(86,648,c)
);
}
);
width = 0;
}
);
unicode = 771;
},
{
glyphname = cedillacomb;
layers = (
{
anchors = (
{
name = _bottom;
pos = (441,0);
}
);
layerId = "17A5F7C0-AED1-4270-89BA-BFDC1003B8A5";
shapes = (
{
closed = 1;
nodes = (
(447,-139,l),
(485,16,l),
(406,16,l),
(367,-139,l)
);
}
);
width = 822;
},
{
anchors = (
{
name = _bottom;
pos = (441,0);
}
);
layerId = "D465923C-ABAE-4975-85A4-08C1BC9DA335";
shapes = (
{
closed = 1;
nodes = (
(484,-156,l),
(536,15,l),
(379,15,l),
(327,-156,l)
);
}
);
width = 822;
}
);
unicode = 807;
},
{
color = 4;
glyphname = breve;
layers = (
{
layerId = "17A5F7C0-AED1-4270-89BA-BFDC1003B8A5";
shapes = (
{
closed = 1;
nodes = (
(105,872,l),
(160,872,ls),
(201.333,872,o),
(223.667,903,o),
(225,939,c),
(194,939,l),
(194,916.333,o),
(189.333,905,o),
(180,905,cs),
(93,905,ls),
(79,905,o),
(72,916.333,o),
(72,939,c),
(40,939,l),
(41.333,903,o),
(65,872,o),
(105,872,c)
);
}
);
width = 287;
},
{
layerId = "D465923C-ABAE-4975-85A4-08C1BC9DA335";
shapes = (
{
closed = 1;
nodes = (
(143,747,l),
(189,747,ls),
(238.333,747,o),
(282,780,o),
(282,880,c),
(181,880,l),
(181,861.333,o),
(181,851.333,o),
(181,850,c),
(142,850,l),
(142,851.333,o),
(142,861.333,o),
(142,880,c),
(40,879,l),
(40,780.333,o),
(79,747,o),
(143,747,c)
);
}
);
width = 287;
}
);
unicode = 728;
},
{
color = 4;
glyphname = macron;
layers = (
{
layerId = "17A5F7C0-AED1-4270-89BA-BFDC1003B8A5";
shapes = (
{
closed = 1;
nodes = (
(411,638,l),
(411,720,l),
(87,720,l),
(87,638,l),
(87,638,l)
);
}
);
width = 500;
},
{
layerId = "D465923C-ABAE-4975-85A4-08C1BC9DA335";
shapes = (
{
closed = 1;
nodes = (
(411,638,l),
(411,720,l),
(87,720,l),
(87,638,l),
(87,638,l)
);
}
);
width = 500;
}
);
unicode = 175;
},
{
color = 4;
glyphname = ogonek;
layers = (
{
layerId = "17A5F7C0-AED1-4270-89BA-BFDC1003B8A5";
shapes = (
{
closed = 1;
nodes = (
(311,-250,l),
(311,-17,l),
(189,-17,l),
(189,-250,l),
(189,-250,l)
);
}
);
width = 500;
},
{
layerId = "D465923C-ABAE-4975-85A4-08C1BC9DA335";
shapes = (
{
closed = 1;
nodes = (
(311,-250,l),
(311,-17,l),
(189,-17,l),
(189,-250,l),
(189,-250,l)
);
}
);
width = 500;
}
);
unicode = 731;
},
{
color = 4;
export = 0;
glyphname = hungarumlaut;
layers = (
{
layerId = "17A5F7C0-AED1-4270-89BA-BFDC1003B8A5";
shapes = (
{
closed = 1;
nodes = (
(183,630,l),
(263,812,l),
(180,812,l),
(100,630,l),
(100,630,l)
);
},
{
closed = 1;
nodes = (
(362,630,l),
(442,812,l),
(360,812,l),
(280,630,l),
(280,630,l)
);
}
);
width = 542;
},
{
layerId = "D465923C-ABAE-4975-85A4-08C1BC9DA335";
shapes = (
{
closed = 1;
nodes = (
(183,630,l),
(263,812,l),
(180,812,l),
(100,630,l),
(100,630,l)
);
},
{
closed = 1;
nodes = (
(362,630,l),
(442,812,l),
(360,812,l),
(280,630,l),
(280,630,l)
);
}
);
width = 542;
}
);
unicode = 733;
},
